<svg id="box" enable-background="new 0 0 300 300" height="512" viewBox="0 0 300 300" width="512"
     xmlns="http://www.w3.org/2000/svg">
    <g>
        <path d="m162 108c2.209 0 4-1.791 4-4s-1.791-4-4-4h-12c-2.209 0-4 1.791-4 4v24c0 2.209 1.791 4 4 4s4-1.791 4-4v-8h8c2.209 0 4-1.791 4-4s-1.791-4-4-4h-8v-4z"/>
        <path d="m138 100c-2.209 0-4 1.791-4 4v6.344l-9.172-9.172c-1.146-1.146-2.863-1.486-4.359-.867-1.494.619-2.469 2.078-2.469 3.695v24c0 2.209 1.791 4 4 4s4-1.791 4-4v-14.344l8 8v6.344c0 2.209 1.791 4 4 4s4-1.791 4-4v-24c0-2.209-1.791-4-4-4z"/>
        <path d="m186 128v-20h4c2.209 0 4-1.791 4-4s-1.791-4-4-4h-16c-2.209 0-4 1.791-4 4s1.791 4 4 4h4v20c0 2.209 1.791 4 4 4s4-1.791 4-4z"/>
        <path d="m265.393 185.881-20-32c-.733-1.17-2.014-1.881-3.393-1.881h-16.574c5.608-11.119 8.574-23.431 8.574-36 0-44.111-35.889-80-80-80s-80 35.889-80 80c0 12.571 2.967 24.883 8.574 36h-24.574c-1.379 0-2.66.711-3.393 1.881l-20 32c-.77 1.232-.811 2.787-.105 4.059s2.043 2.06 3.498 2.06h16v68c0 2.209 1.791 4 4 4h184c2.209 0 4-1.791 4-4v-68h16c1.455 0 2.793-.789 3.498-2.061s.664-2.826-.105-4.058zm-183.393-69.881c0-39.701 32.299-72 72-72s72 32.299 72 72c0 12.692-3.363 25.087-9.677 36h-19.53c8.437-10.019 13.207-22.681 13.207-36 0-30.879-25.121-56-56-56s-56 25.121-56 56c0 13.329 4.766 25.984 13.205 36h-19.526c-6.314-10.909-9.679-23.303-9.679-36zm40.33 36c-10.368-9.128-16.33-22.153-16.33-36 0-26.467 21.533-48 48-48s48 21.533 48 48c0 13.835-5.958 26.871-16.32 36zm-62.113 8h118.566l-15 24h-118.566zm1.783 32h104c1.379 0 2.66-.711 3.393-1.881l12.607-20.172v86.053h-120zm176 64h-48v-86.053l12.607 20.172c.732 1.17 2.014 1.881 3.393 1.881h32zm-29.783-72-15-24h46.566l15 24z"/>
        <path d="m170 236h-36c-2.209 0-4 1.791-4 4s1.791 4 4 4h36c2.209 0 4-1.791 4-4s-1.791-4-4-4z"/>
        <path d="m48 118.529c2.501 0 4.53-2.028 4.53-4.529 0-2.502-2.028-4.53-4.53-4.53s-4.53 2.028-4.53 4.53c0 2.501 2.029 4.529 4.53 4.529z"/>
        <path d="m45.516 76.484c.781.781 1.805 1.172 2.828 1.172s2.047-.391 2.828-1.172l2.828-2.828 2.828 2.828c.781.781 1.805 1.172 2.828 1.172s2.047-.391 2.828-1.172c1.562-1.562 1.562-4.094 0-5.656l-2.828-2.828 2.828-2.828c1.562-1.562 1.562-4.094 0-5.656s-4.094-1.562-5.656 0l-2.828 2.828-2.828-2.828c-1.562-1.562-4.094-1.562-5.656 0s-1.562 4.094 0 5.656l2.828 2.828-2.828 2.828c-1.563 1.563-1.563 4.094 0 5.656z"/>
        <circle cx="154" cy="52" r="4"/>
        <circle cx="218" cy="116" r="4"/>
        <circle cx="90" cy="116" r="4"/>
        <path d="m111.573 73.573c1.562-1.562 1.562-4.095 0-5.657s-4.095-1.562-5.657 0-1.562 4.095 0 5.657c1.563 1.563 4.095 1.563 5.657 0z"/>
        <path d="m202.083 73.573c1.562-1.562 1.562-4.095 0-5.657s-4.095-1.562-5.657 0-1.562 4.095 0 5.657c1.563 1.563 4.095 1.563 5.657 0z"/>
    </g>
</svg>