<svg height="496pt" viewBox="0 0 496 496" width="496pt" xmlns="http://www.w3.org/2000/svg">
    <path d="m256 200c0 4.417969-3.582031 8-8 8s-8-3.582031-8-8 3.582031-8 8-8 8 3.582031 8 8zm0 0"/>
    <path d="m248 256c-30.871094 0-56 25.128906-56 56s25.128906 56 56 56 56-25.128906 56-56-25.128906-56-56-56zm0 96c-22.054688 0-40-17.945312-40-40s17.945312-40 40-40 40 17.945312 40 40-17.945312 40-40 40zm0 0"/>
    <path d="m248 384c-13.230469 0-24 10.769531-24 24s10.769531 24 24 24 24-10.769531 24-24-10.769531-24-24-24zm0 32c-4.414062 0-8-3.585938-8-8s3.585938-8 8-8 8 3.585938 8 8-3.585938 8-8 8zm0 0"/>
    <path d="m328 302.527344c0-56.863282-28.246094-109.648438-75.558594-141.183594l-4.441406-2.960938-4.441406 2.960938c-4.007813 2.671875-7.832032 5.550781-11.558594 8.519531v-81.863281h-17.863281l33.863281-56.457031 33.863281 56.457031h-17.863281v64h16v-48h30.136719l-62.136719-103.542969-62.136719 103.542969h30.136719v80.351562c-30.472656 31.320313-48 73.464844-48 118.183594v69.21875l-72 48.621094v46.730469l85.238281-23.242188 4.28125 20.136719h17.527344l16 32h57.890625l16-32h17.527344l4.277344-20.144531 85.257812 23.25v-46.730469l-72-48.621094zm-80-124.800782c17.441406 12.519532 31.785156 28.328126 42.457031 46.273438h-84.914062c10.671875-17.945312 25.015625-33.753906 42.457031-46.273438zm19.054688 302.273438h-38.109376l-8-16h54.109376zm116.945312-51.128906v17.273437l-81.367188-22.175781-5.113281 24.03125h-99.039062l-5.113281-24.03125-81.367188 22.183594v-17.273438l72-48.621094v-77.722656c0-21.910156 4.648438-43.152344 13.265625-62.527344h101.460937c8.625 19.367188 13.273438 40.609376 13.273438 62.519532v77.71875zm0 0"/>
    <path d="m465.863281 112h-17.863281v200h16v-184h30.136719l-62.136719-103.542969-62.136719 103.542969h30.136719v168h16v-184h-17.863281l33.863281-56.457031zm0 0"/>
    <path d="m448 328h16v16h-16zm0 0"/>
    <path d="m80 296h16v-168h30.136719l-62.136719-103.542969-62.136719 103.542969h30.136719v184h16v-200h-17.863281l33.863281-56.457031 33.863281 56.457031h-17.863281zm0 0"/>
    <path d="m32 328h16v16h-16zm0 0"/>
    <path d="m464 384h16v16h-16zm0 0"/>
    <path d="m480 400h16v16h-16zm0 0"/>
    <path d="m464 416h16v16h-16zm0 0"/>
    <path d="m448 400h16v16h-16zm0 0"/>
    <path d="m16 376h16v16h-16zm0 0"/>
    <path d="m32 392h16v16h-16zm0 0"/>
    <path d="m16 408h16v16h-16zm0 0"/>
    <path d="m0 392h16v16h-16zm0 0"/>
    <path d="m104 312h16v16h-16zm0 0"/>
    <path d="m120 328h16v16h-16zm0 0"/>
    <path d="m104 344h16v16h-16zm0 0"/>
    <path d="m88 328h16v16h-16zm0 0"/>
    <path d="m136 0h16v16h-16zm0 0"/>
    <path d="m152 16h16v16h-16zm0 0"/>
    <path d="m136 32h16v16h-16zm0 0"/>
    <path d="m120 16h16v16h-16zm0 0"/>
    <path d="m336 40h16v16h-16zm0 0"/>
    <path d="m352 56h16v16h-16zm0 0"/>
    <path d="m336 72h16v16h-16zm0 0"/>
    <path d="m320 56h16v16h-16zm0 0"/>
    <path d="m384 328h16v16h-16zm0 0"/>
    <path d="m400 344h16v16h-16zm0 0"/>
    <path d="m384 360h16v16h-16zm0 0"/>
    <path d="m368 344h16v16h-16zm0 0"/>
</svg>