<svg viewBox="-45 0 511 511.998" xmlns="http://www.w3.org/2000/svg">
    <path d="m315.109375 166.863281v-12.449219c0-4.144531-3.359375-7.5-7.5-7.5-4.144531 0-7.5 3.355469-7.5 7.5v12.449219c0 4.144531 3.355469 7.5 7.5 7.5 4.140625 0 7.5-3.355469 7.5-7.5zm0 0"/>
    <path d="m153.792969 166.863281v-12.449219c0-4.144531-3.355469-7.5-7.5-7.5-4.140625 0-7.5 3.355469-7.5 7.5v12.449219c0 4.144531 3.359375 7.5 7.5 7.5 4.144531 0 7.5-3.355469 7.5-7.5zm0 0"/>
    <path d="m226.949219 182.21875c9.707031 0 19.414062-3.144531 27.515625-9.425781 3.273437-2.539063 3.867187-7.25 1.328125-10.523438-2.535157-3.273437-7.25-3.867187-10.519531-1.328125-10.789063 8.367188-25.855469 8.367188-36.640626 0-3.273437-2.539062-7.988281-1.945312-10.523437 1.328125-2.539063 3.273438-1.945313 7.984375 1.328125 10.523438 8.097656 6.28125 17.804688 9.425781 27.511719 9.425781zm0 0"/>
    <path d="m413.65625 111.578125c4.140625 0 7.5-3.359375 7.5-7.5v-42.605469c0-33.894531-27.578125-61.472656-61.476562-61.472656h-265.457032c-33.898437 0-61.476562 27.578125-61.476562 61.472656v35.566406h-4.171875c-15.480469 0-28.074219 12.59375-28.074219 28.074219v25.101563c0 15.480468 12.59375 28.074218 28.074219 28.074218h4.171875v13.539063h-4.171875c-15.480469 0-28.074219 12.59375-28.074219 28.074219 0 15.484375 12.59375 28.078125 28.074219 28.078125h4.171875v202.542969c0 33.898437 27.578125 61.472656 61.476562 61.472656h265.457032c33.898437 0 61.472656-27.574219 61.472656-61.472656v-313.757813c0-4.144531-3.355469-7.5-7.5-7.5-4.140625 0-7.5 3.355469-7.5 7.5v313.761719c0 25.625-20.847656 46.472656-46.472656 46.472656h-265.457032c-25.625 0-46.476562-20.847656-46.476562-46.472656v-389.054688c0-25.625 20.851562-46.472656 46.476562-46.472656h265.457032c25.628906 0 46.476562 20.847656 46.476562 46.472656v42.605469c0 4.140625 3.355469 7.5 7.5 7.5zm-385.082031 51.710937c-7.210938 0-13.074219-5.863281-13.074219-13.074218v-25.101563c0-7.210937 5.867188-13.074219 13.074219-13.074219h4.171875v51.25zm0 69.691407c-7.210938 0-13.074219-5.867188-13.074219-13.074219 0-7.210938 5.867188-13.078125 13.074219-13.078125h4.171875v26.152344zm0 0"/>
    <path d="m368.5625 88.960938c0-22.261719-18.109375-40.367188-40.367188-40.367188h-202.488281c-22.257812 0-40.367187 18.105469-40.367187 40.367188v103.5c0 4.140624 3.355468 7.5 7.5 7.5 4.140625 0 7.5-3.359376 7.5-7.5v-103.5c0-13.988282 11.378906-25.367188 25.367187-25.367188h202.488281c13.988282 0 25.367188 11.378906 25.367188 25.367188v151.207031c0 13.988281-11.378906 25.367187-25.367188 25.367187h-202.488281c-13.988281 0-25.367187-11.378906-25.367187-25.367187v-14.804688c0-4.140625-3.359375-7.5-7.5-7.5-4.144532 0-7.5 3.359375-7.5 7.5v14.804688c0 22.261719 18.109375 40.367187 40.367187 40.367187h202.488281c22.257813 0 40.367188-18.105468 40.367188-40.367187zm0 0"/>
    <path d="m133.773438 428.59375h18.089843c10.832031 0 19.640625-8.808594 19.640625-19.636719v-9.15625h9.15625c10.828125 0 19.640625-8.8125 19.640625-19.640625v-18.089844c0-10.832031-8.8125-19.640624-19.640625-19.640624h-9.15625v-9.15625c0-10.828126-8.8125-19.636719-19.640625-19.636719h-18.089843c-10.828126 0-19.636719 8.808593-19.636719 19.636719v9.15625h-9.160157c-10.828124 0-19.636718 8.8125-19.636718 19.640624v18.089844c0 10.828125 8.808594 19.640625 19.636718 19.640625h9.160157v9.15625c0 10.828125 8.808593 19.636719 19.636719 19.636719zm-28.796876-43.796875c-2.554687 0-4.636718-2.078125-4.636718-4.636719v-18.09375c0-2.554687 2.082031-4.636718 4.636718-4.636718h16.660157c4.140625 0 7.5-3.359376 7.5-7.5v-16.65625c0-2.558594 2.082031-4.640626 4.636719-4.640626h18.089843c2.558594 0 4.640625 2.082032 4.640625 4.640626v16.65625c0 4.140624 3.355469 7.5 7.5 7.5h16.65625c2.558594 0 4.640625 2.082031 4.640625 4.636718v18.09375c0 2.558594-2.082031 4.636719-4.640625 4.636719h-16.65625c-4.144531 0-7.5 3.359375-7.5 7.5v16.660156c0 2.558594-2.082031 4.636719-4.640625 4.636719h-18.089843c-2.558594 0-4.636719-2.082031-4.636719-4.636719v-16.660156c0-4.140625-3.359375-7.5-7.5-7.5zm0 0"/>
    <path d="m284.429688 371.113281c0-14.972656-12.179688-27.152343-27.152344-27.152343s-27.15625 12.179687-27.15625 27.152343c0 14.972657 12.183594 27.15625 27.15625 27.15625s27.152344-12.183593 27.152344-27.15625zm-27.152344 12.15625c-6.703125 0-12.15625-5.453125-12.15625-12.15625 0-6.699219 5.453125-12.152343 12.15625-12.152343s12.152344 5.453124 12.152344 12.152343c0 6.703125-5.453126 12.15625-12.152344 12.15625zm0 0"/>
    <path d="m368.5625 371.113281c0-14.972656-12.179688-27.152343-27.15625-27.152343-14.972656 0-27.152344 12.179687-27.152344 27.152343 0 14.972657 12.179688 27.15625 27.152344 27.15625 14.976562 0 27.15625-12.183593 27.15625-27.15625zm-39.308594 0c0-6.703125 5.453125-12.152343 12.152344-12.152343 6.703125 0 12.15625 5.449218 12.15625 12.152343s-5.453125 12.15625-12.15625 12.15625c-6.699219 0-12.152344-5.453125-12.152344-12.15625zm0 0"/>
    <path d="m299.34375 356.203125c14.972656 0 27.152344-12.179687 27.152344-27.152344 0-14.976562-12.179688-27.15625-27.152344-27.15625s-27.15625 12.179688-27.15625 27.15625c0 14.972657 12.183594 27.152344 27.15625 27.152344zm0-39.308594c6.703125 0 12.152344 5.453125 12.152344 12.15625 0 6.699219-5.449219 12.152344-12.152344 12.152344s-12.15625-5.453125-12.15625-12.152344c0-6.703125 5.453125-12.15625 12.15625-12.15625zm0 0"/>
    <path d="m299.34375 440.335938c14.972656 0 27.152344-12.183594 27.152344-27.15625 0-14.972657-12.179688-27.152344-27.152344-27.152344s-27.15625 12.179687-27.15625 27.152344c0 14.972656 12.183594 27.15625 27.15625 27.15625zm0-39.308594c6.703125 0 12.152344 5.453125 12.152344 12.152344 0 6.703124-5.449219 12.15625-12.152344 12.15625s-12.15625-5.453126-12.15625-12.15625c0-6.703126 5.453125-12.152344 12.15625-12.152344zm0 0"/>
    <path d="m214.863281 486.816406h24.175781c13.492188 0 24.464844-10.976562 24.464844-24.464844 0-13.492187-10.972656-24.464843-24.464844-24.464843h-24.175781c-13.492187 0-24.464843 10.972656-24.464843 24.464843 0 13.488282 10.972656 24.464844 24.464843 24.464844zm0-33.929687h24.175781c5.21875 0 9.464844 4.246093 9.464844 9.464843s-4.246094 9.464844-9.464844 9.464844h-24.175781c-5.21875 0-9.464843-4.246094-9.464843-9.464844s4.246093-9.464843 9.464843-9.464843zm0 0"/>
</svg>