<?xml version="1.0" encoding="iso-8859-1"?>
<!-- Generator: Adobe Illustrator 19.0.0, SVG Export Plug-In . SVG Version: 6.00 Build 0)  -->
<svg version="1.1" id="Layer_1" xmlns="http://www.w3.org/2000/svg" xmlns:xlink="http://www.w3.org/1999/xlink" x="0px"
     y="0px"
     viewBox="0 0 487.9 487.9" style="enable-background:new 0 0 487.9 487.9;" xml:space="preserve">
<g>
	<g>
		<path d="M200.4,359.45c-3.6-15.2-9-44.9-49.7-74.3c-3.9-2.8-9.5-8.3-12.4-12.1l-45.2-58.2c-4.7-7.9-15.8-10.6-24.4-5.3
			c-8.5,5.2-11.2,16.4-6.5,24.3l43.5,71c1.4,2.3,0.6,5.4-1.8,6.7c-2.2,1.2-4.9,0.5-6.3-1.5l-1.8-2.7c0,0-32.9-45-49.3-80.5
			c-3-6.5-4.6-13-5.1-20.1c-0.1-1.1-0.1-2.6-0.2-3.7c-0.5-16.2-3.1-39.2-5.8-55.3c-0.8-4.5-3-21.3-7.8-26.7
			c-6.7-7.6-15.6-5.9-21.3-1.3c-4.7,3.8-6.8,10-6.2,16.1l12.6,122.7l0.7,4.5c2.3,15.4,9.6,28.2,20.3,39.6l72.7,87.5l1.4,40.4
			c0,3.6,2.9,6.5,6.5,6.5l76.5,0.4c3.6,0,6.5-2.9,6.5-6.5l2.7-48.9c0.7-5.1,0.8-10.2,0.8-14.3
			C200.8,362.85,200.4,359.45,200.4,359.45z"/>
	</g>
</g>
    <g>
	<g>
		<path d="M375.7,91.15c-3.3-8.1-8.1-15.4-14.3-21.6c-6.2-6.2-13.5-11-21.6-14.3c-7.8-3.2-16.1-4.8-24.5-4.8
			c-8.5,0-16.7,1.6-24.5,4.8c-8.1,3.3-15.4,8.1-21.6,14.3l-5.3,5.3l20.8,20.8l5.3-5.3c6.8-6.8,15.8-10.5,25.4-10.5
			c9.6,0,18.6,3.7,25.4,10.5s10.5,15.8,10.5,25.4c0,9.6-3.7,18.6-10.5,25.4c-6.8,6.8-15.8,10.5-25.4,10.5c-9.6,0-18.6-3.7-25.4-10.5
			l-10.3-10.3l-61.2-61.2c-6.2-6.2-13.5-11-21.6-14.3c-7.8-3.2-16.1-4.8-24.5-4.8c-8.4,0-16.7,1.6-24.5,4.8
			c-8.1,3.3-15.4,8.1-21.6,14.3c-6.2,6.2-11,13.5-14.3,21.6c-3.2,7.8-4.8,16.1-4.8,24.5c0,8.5,1.6,16.7,4.8,24.5
			c3.3,8.1,8.1,15.4,14.3,21.6s13.5,11,21.6,14.3c7.8,3.2,16.1,4.8,24.5,4.8c8.4,0,16.7-1.6,24.5-4.8c8.1-3.3,15.4-8.1,21.6-14.3
			l4.5-4.5l-20.8-20.8l-4.5,4.5c-6.8,6.8-15.8,10.5-25.4,10.5s-18.6-3.7-25.4-10.5c-6.8-6.8-10.5-15.8-10.5-25.4
			c0-9.6,3.7-18.6,10.5-25.4c6.8-6.8,15.8-10.5,25.4-10.5c9.6,0,18.6,3.7,25.4,10.5l25.4,25.4l46.1,46.1c6.2,6.2,13.5,11,21.6,14.3
			c7.8,3.2,16.1,4.8,24.5,4.8c8.5,0,16.7-1.6,24.5-4.8c8.1-3.3,15.4-8.1,21.6-14.3s11-13.5,14.3-21.6c3.2-7.8,4.8-16.1,4.8-24.5
			C380.5,107.15,378.9,98.95,375.7,91.15z"/>
	</g>
</g>
    <g>
	<g>
		<path d="M57.6,142.35c-1.8-6.2-5.4-10.7-11.7-12.8c1.3,4.3,2.2,8.7,2.9,12.9c2.3,13.9,5.8,38.9,6,52.2c0,1.4,0.1,2.7,0.1,4.1
			c1.5-1.3,3.1-2.6,4.9-3.7c2.2-1.4,4.5-2.4,6.9-3.2c0.1-0.2,0.2-0.3,0.3-0.4C65.3,178.75,60.8,154.75,57.6,142.35z"/>
	</g>
</g>
    <g>
	<g>
		<path d="M481.6,119.55c-5.8-4.5-14.7-6.1-21.4,1.4c-4.7,5.4-7,22.2-7.8,26.7c-2.7,16.1-5.4,39.1-5.8,55.3c0,1.1-0.1,2.6-0.2,3.7
			c-0.4,7.1-2.1,13.7-5.1,20.1c-16.3,35.6-49.2,80.5-49.2,80.5l-1.8,2.7c-1.4,2-4.1,2.7-6.3,1.5c-2.4-1.3-3.2-4.4-1.8-6.7l43.5-71
			c4.7-7.9,2-19-6.5-24.3c-8.5-5.2-19.7-2.5-24.4,5.3l-45.2,58.2c-3,3.8-8.5,9.3-12.4,12.1c-40.7,29.3-46.1,59-49.7,74.3
			c0,0-0.3,3.4-0.4,8.3c0,4.1,0.1,9.2,0.8,14.3l2.7,48.9c0,3.6,2.9,6.5,6.5,6.5l76.5-0.4c3.6,0,6.5-2.9,6.5-6.5l1.4-40.4l72.7-87.5
			c10.7-11.4,18-24.2,20.3-39.6l0.7-4.5l12.6-122.8C488.4,129.65,486.3,123.35,481.6,119.55z"/>
	</g>
</g>
    <g>
	<g>
		<path d="M406.2,159.95c-2,7.7-7.5,24-8.7,32.2c3.5-1.3,7.1-2,10.9-2.2c0-0.6,0-1.2,0.1-1.8l0.7-6c1.2-8.9,6.3-25.8,8.4-35
			C411.4,149.25,407.8,153.75,406.2,159.95z"/>
	</g>
</g>
    <g>
	<g>
		<path d="M430.4,142.35c-3.3,12.4-7.8,36.4-9.4,49.1c0.1,0.2,0.2,0.3,0.3,0.4c2.4,0.8,4.7,1.9,6.9,3.2c1.6,1.1,3.2,2.4,4.8,3.7
			c0-1.4,0.1-2.7,0.1-4.1c0.3-13.3,3.7-38.3,6-52.2c0.7-4.2,1.5-8.5,2.9-12.9C435.7,131.65,432.1,136.15,430.4,142.35z"/>
	</g>
</g>
    <g>
	<g>
		<path d="M81.8,160.05c-1.8-6.3-5.4-10.8-11.5-12.9c2,9.2,7.2,26.1,8.4,35l0.8,6.1c0.1,0.6,0.1,1.2,0.1,1.8
			c3.7,0.1,7.4,0.9,10.9,2.2C89.3,184.05,83.8,167.65,81.8,160.05z"/>
	</g>
</g>
    <g>
</g>
    <g>
</g>
    <g>
</g>
    <g>
</g>
    <g>
</g>
    <g>
</g>
    <g>
</g>
    <g>
</g>
    <g>
</g>
    <g>
</g>
    <g>
</g>
    <g>
</g>
    <g>
</g>
    <g>
</g>
    <g>
</g>
</svg>
