<svg id="Layer_1" enable-background="new 0 0 496.027 496.027" height="512" viewBox="0 0 496.027 496.027" width="512"
     xmlns="http://www.w3.org/2000/svg">
    <path d="m451.535 277.498c-49.999-50.009-130.975-50.05-181.001-.014l-25.353 25.237c-31.135-52.875-93.477-73.36-146.768-57.53 120.215-123.657 168.438-173.231 168.839-173.729 2.056-2.574 2.277-6.034.815-8.768-.783-1.465-.105-.595-18.79-19.279-4.689-4.69-2.042-12.742 4.564-13.684l94.939-13.561c10.558-1.507 19.587 7.52 18.08 18.079l-13.56 94.935c-.947 6.597-8.988 9.261-13.682 4.571-17.433-17.443-16.503-16.547-17.065-16.996-2.718-2.098-6.089-2.213-8.747-.792-1.639.886 3.697-4.346-82.446 84.268-3.08 3.168-3.008 8.232.16 11.313 3.165 3.077 8.23 3.011 11.313-.16l74.826-76.971 10.648 10.654c14.039 14.023 38.023 5.968 40.833-13.619l13.561-94.94c3.013-21.114-15.047-39.199-36.181-36.181l-94.94 13.56c-19.62 2.802-27.628 26.825-13.617 40.837l11.812 11.812c-236.095 242.858-196.599 202.302-205.253 210.957-50.029 50.016-50.037 130.988-.001 181.013 52.599 52.611 139.036 49.444 187.729-7.243l18.396-18.354c23.588 40.427 66.62 63.114 111.067 63.114 69.427-.002 127.317-56.88 127.317-128.023 0-34.191-13.316-66.333-37.495-90.506zm-11.315 169.699c-53.704 53.717-142.89 39.098-177.799-26.032 76.867-76.675 75.829-75.608 75.899-75.709 11.77-12.15 32.422-12.995 45.337-.081 12.49 12.487 12.506 32.755.003 45.258-6.037 6.037-14.066 9.361-22.611 9.361-.005.001-.009.004-.018 0-4.417 0-7.998 3.579-8 7.996-.002 4.419 3.578 8.002 7.997 8.004 13.059 0 25.038-5.138 33.947-14.047 18.739-18.74 18.758-49.127-.004-67.887-9.061-9.059-21.106-14.047-33.91-14.047-.021-.002-.043-.001-.065 0-12.459 0-24.356 4.632-33.976 14.116-111.75 111.468-106.413 106.132-106.724 106.498-42.131 49.297-117.695 53.346-164.461 6.569-42.82-42.811-43.464-110.98-3.577-154.637.66-.52.114-.007 6.367-6.438 53.536-50.113 140.074-35.742 174.797 28.331-12.385 12.397-67.24 67.308-78.612 78.696-20.794 16.385-51.779 1.623-51.779-25.145 0-17.645 14.355-32 32-32 4.418 0 8-3.582 8-8s-3.582-8-8-8c-26.467 0-48 21.532-48 48 0 39.461 45.454 62.865 78.141 37.354.001-.001.001-.001.002-.002 4.698-3.87-17.043 16.552 116.663-116.545 43.763-43.774 114.611-43.783 158.385.001 43.773 43.764 43.783 114.612-.002 158.386zm-268.321-48.52c.15-.154.12-.121-.032.033.011-.01.021-.022.032-.033z"/>
</svg>