<svg xmlns="http://www.w3.org/2000/svg" xmlns:xlink="http://www.w3.org/1999/xlink" viewBox="0 0 378.37 228.09"><defs><style>.cls-1{isolation:isolate;}.cls-2{fill:url(#radial-gradient);}.cls-3{fill:url(#radial-gradient-2);}.cls-4,.cls-6,.cls-60,.cls-61,.cls-7,.cls-8,.cls-9{mix-blend-mode:screen;}.cls-4{fill:url(#radial-gradient-3);}.cls-5{opacity:0.7;}.cls-6{fill:url(#radial-gradient-4);}.cls-7{fill:url(#radial-gradient-5);}.cls-8{fill:url(#radial-gradient-6);}.cls-9{fill:url(#radial-gradient-7);}.cls-10,.cls-11,.cls-12,.cls-13,.cls-14,.cls-15,.cls-16,.cls-17,.cls-18,.cls-19,.cls-20,.cls-21,.cls-22,.cls-23,.cls-24,.cls-25,.cls-26,.cls-27,.cls-28,.cls-29,.cls-30,.cls-31,.cls-32,.cls-33,.cls-34,.cls-35,.cls-36,.cls-37,.cls-38,.cls-39,.cls-40,.cls-41,.cls-42,.cls-43,.cls-44,.cls-45,.cls-46,.cls-47,.cls-48,.cls-49,.cls-50,.cls-51,.cls-52,.cls-53,.cls-54,.cls-55,.cls-56,.cls-57,.cls-58,.cls-59,.cls-60{opacity:0.5;}.cls-10,.cls-11,.cls-12,.cls-13,.cls-14,.cls-15,.cls-16,.cls-17,.cls-18,.cls-19,.cls-20,.cls-21,.cls-22,.cls-23,.cls-24,.cls-25,.cls-26,.cls-27,.cls-28,.cls-29,.cls-30,.cls-31,.cls-32,.cls-33,.cls-34,.cls-35,.cls-36,.cls-37,.cls-38,.cls-39,.cls-40,.cls-41,.cls-42,.cls-43,.cls-44,.cls-45,.cls-46,.cls-47,.cls-48,.cls-49,.cls-50,.cls-51,.cls-52,.cls-53,.cls-54,.cls-55,.cls-56,.cls-57,.cls-58,.cls-59{mix-blend-mode:multiply;}.cls-10{fill:url(#radial-gradient-8);}.cls-11{fill:url(#radial-gradient-9);}.cls-12{fill:url(#radial-gradient-10);}.cls-13{fill:url(#radial-gradient-11);}.cls-14{fill:url(#radial-gradient-12);}.cls-15{fill:url(#radial-gradient-13);}.cls-16{fill:url(#radial-gradient-14);}.cls-17{fill:url(#radial-gradient-15);}.cls-18{fill:url(#radial-gradient-16);}.cls-19{fill:url(#radial-gradient-17);}.cls-20{fill:url(#radial-gradient-18);}.cls-21{fill:url(#radial-gradient-19);}.cls-22{fill:url(#radial-gradient-20);}.cls-23{fill:url(#radial-gradient-21);}.cls-24{fill:url(#radial-gradient-22);}.cls-25{fill:url(#radial-gradient-23);}.cls-26{fill:url(#radial-gradient-24);}.cls-27{fill:url(#radial-gradient-25);}.cls-28{fill:url(#radial-gradient-26);}.cls-29{fill:url(#radial-gradient-27);}.cls-30{fill:url(#radial-gradient-28);}.cls-31{fill:url(#radial-gradient-29);}.cls-32{fill:url(#radial-gradient-30);}.cls-33{fill:url(#radial-gradient-31);}.cls-34{fill:url(#radial-gradient-32);}.cls-35{fill:url(#radial-gradient-33);}.cls-36{fill:url(#radial-gradient-34);}.cls-37{fill:url(#radial-gradient-35);}.cls-38{fill:url(#radial-gradient-36);}.cls-39{fill:url(#radial-gradient-37);}.cls-40{fill:url(#radial-gradient-38);}.cls-41{fill:url(#radial-gradient-39);}.cls-42{fill:url(#radial-gradient-40);}.cls-43{fill:url(#radial-gradient-41);}.cls-44{fill:url(#radial-gradient-42);}.cls-45{fill:url(#radial-gradient-43);}.cls-46{fill:url(#radial-gradient-44);}.cls-47{fill:url(#radial-gradient-45);}.cls-48{fill:url(#radial-gradient-46);}.cls-49{fill:url(#radial-gradient-47);}.cls-50{fill:url(#radial-gradient-48);}.cls-51{fill:url(#radial-gradient-49);}.cls-52{fill:url(#radial-gradient-50);}.cls-53{fill:url(#radial-gradient-51);}.cls-54{fill:url(#radial-gradient-52);}.cls-55{fill:url(#radial-gradient-53);}.cls-56{fill:url(#radial-gradient-54);}.cls-57{fill:url(#radial-gradient-55);}.cls-58{fill:url(#radial-gradient-56);}.cls-59{fill:url(#radial-gradient-57);}.cls-60{fill:url(#radial-gradient-58);}.cls-61{opacity:0.35;}.cls-62{fill:url(#radial-gradient-59);}.cls-63{fill:url(#radial-gradient-60);}</style><radialGradient id="radial-gradient" cx="187.82" cy="113.52" r="115.31" gradientUnits="userSpaceOnUse"><stop offset="0" stop-color="#f07"/><stop offset="0.37" stop-color="#fe0077" stop-opacity="0.99"/><stop offset="0.51" stop-color="#fb0279" stop-opacity="0.97"/><stop offset="0.6" stop-color="#f5057c" stop-opacity="0.92"/><stop offset="0.68" stop-color="#ed0a7f" stop-opacity="0.85"/><stop offset="0.75" stop-color="#e21084" stop-opacity="0.77"/><stop offset="0.8" stop-color="#d4178a" stop-opacity="0.66"/><stop offset="0.86" stop-color="#c42091" stop-opacity="0.53"/><stop offset="0.91" stop-color="#b22a99" stop-opacity="0.39"/><stop offset="0.95" stop-color="#9c35a3" stop-opacity="0.22"/><stop offset="0.99" stop-color="#8642ad" stop-opacity="0.04"/><stop offset="1" stop-color="#8144af" stop-opacity="0"/></radialGradient><radialGradient id="radial-gradient-2" cx="198.63" cy="24.66" r="201.04" gradientUnits="userSpaceOnUse"><stop offset="0" stop-color="#f07"/><stop offset="0.14" stop-color="#fa0379"/><stop offset="0.31" stop-color="#ec0a80"/><stop offset="0.49" stop-color="#d4178a"/><stop offset="0.67" stop-color="#b32999"/><stop offset="0.87" stop-color="#8840ac"/><stop offset="0.9" stop-color="#8144af"/></radialGradient><radialGradient id="radial-gradient-3" cx="119.64" cy="-914.12" r="191.16" gradientTransform="matrix(1.31, 0.35, -0.31, 1.15, -304.22, 910.19)" gradientUnits="userSpaceOnUse"><stop offset="0.05" stop-color="#f3a400"/><stop offset="0.41" stop-color="#f3a301" stop-opacity="0.99"/><stop offset="0.54" stop-color="#f3a007" stop-opacity="0.96"/><stop offset="0.63" stop-color="#f29a10" stop-opacity="0.92"/><stop offset="0.7" stop-color="#f2911c" stop-opacity="0.85"/><stop offset="0.77" stop-color="#f1862d" stop-opacity="0.76"/><stop offset="0.82" stop-color="#f17842" stop-opacity="0.64"/><stop offset="0.87" stop-color="#f0685a" stop-opacity="0.51"/><stop offset="0.92" stop-color="#e57" stop-opacity="0.35"/><stop offset="0.96" stop-color="#ed4096" stop-opacity="0.19"/><stop offset="1" stop-color="#ec29b8" stop-opacity="0"/></radialGradient><radialGradient id="radial-gradient-4" cx="196.19" cy="25.71" r="149.58" gradientTransform="matrix(1, 0, 0, 1, 0, 0)" xlink:href="#radial-gradient-3"/><radialGradient id="radial-gradient-5" cx="196.19" cy="25.71" r="149.58" gradientTransform="matrix(1, 0, 0, 1, 0, 0)" xlink:href="#radial-gradient-3"/><radialGradient id="radial-gradient-6" cx="196.19" cy="25.71" r="149.58" gradientTransform="matrix(1, 0, 0, 1, 0, 0)" xlink:href="#radial-gradient-3"/><radialGradient id="radial-gradient-7" cx="196.19" cy="25.71" r="149.58" gradientTransform="matrix(1, 0, 0, 1, 0, 0)" xlink:href="#radial-gradient-3"/><radialGradient id="radial-gradient-8" cx="198.45" cy="52.1" r="175.96" xlink:href="#radial-gradient-2"/><radialGradient id="radial-gradient-9" cx="197.25" cy="106.04" r="129.35" xlink:href="#radial-gradient-2"/><radialGradient id="radial-gradient-10" cx="180.65" cy="6.5" r="44.8" xlink:href="#radial-gradient-2"/><radialGradient id="radial-gradient-11" cx="180.65" cy="6.5" r="44.8" xlink:href="#radial-gradient-2"/><radialGradient id="radial-gradient-12" cx="525.93" cy="-5692.5" r="44.8" gradientTransform="translate(814.12 -5538.24) rotate(180)" xlink:href="#radial-gradient-2"/><radialGradient id="radial-gradient-13" cx="525.93" cy="-5692.5" r="44.8" gradientTransform="translate(-5181.67 -1502.81) rotate(101.24)" xlink:href="#radial-gradient-2"/><radialGradient id="radial-gradient-14" cx="-3959.07" cy="-6010.93" r="44.8" gradientTransform="translate(-3750.05 -5805.47) rotate(-180)" xlink:href="#radial-gradient-2"/><radialGradient id="radial-gradient-15" cx="-3959.07" cy="-6010.93" r="44.8" gradientTransform="translate(-4114.5 -5548.8) rotate(176.44)" xlink:href="#radial-gradient-2"/><radialGradient id="radial-gradient-16" cx="-5421.36" cy="-3575.74" r="53.72" gradientTransform="matrix(0, -1, 1.77, 0, 6433.38, -5263.47)" xlink:href="#radial-gradient-2"/><radialGradient id="radial-gradient-17" cx="146.54" cy="94.83" r="68.38" xlink:href="#radial-gradient-2"/><radialGradient id="radial-gradient-18" cx="867.12" cy="-1433.94" r="34.58" gradientTransform="matrix(0, 1, -1.77, 0, -2310.82, -812.04)" xlink:href="#radial-gradient-2"/><radialGradient id="radial-gradient-19" cx="-2977.48" cy="-6513.42" r="44.01" gradientTransform="translate(-4839.56 -4985.33) rotate(159.71)" xlink:href="#radial-gradient-2"/><radialGradient id="radial-gradient-20" cx="-1752.1" cy="-4868.83" r="43.4" gradientTransform="matrix(-1, 0, 0, -1.77, -1508.71, -8429.92)" xlink:href="#radial-gradient-2"/><radialGradient id="radial-gradient-21" cx="-4173.25" cy="-25.6" r="55.24" gradientTransform="translate(1442.18 -3843.41) rotate(-72.91)" xlink:href="#radial-gradient-2"/><radialGradient id="radial-gradient-22" cx="-3030.85" cy="716.47" r="35.32" gradientTransform="translate(3149.83 -668.47)" xlink:href="#radial-gradient-2"/><radialGradient id="radial-gradient-23" cx="-3030.85" cy="716.47" r="35.32" gradientTransform="translate(1322.02 -2804.78) rotate(-53.79)" xlink:href="#radial-gradient-2"/><radialGradient id="radial-gradient-24" cx="-5585.38" cy="-2481.22" r="44.81" gradientTransform="translate(2571.98 -5412.29) rotate(-90)" xlink:href="#radial-gradient-2"/><radialGradient id="radial-gradient-25" cx="-5585.38" cy="-2481.22" r="44.81" gradientTransform="matrix(-0.51, -0.86, 0.86, -0.51, -595.9, -5889.47)" xlink:href="#radial-gradient-2"/><radialGradient id="radial-gradient-26" cx="1401.83" cy="-1487.77" r="25.36" gradientTransform="translate(-1721.85 612.4) rotate(29.94)" xlink:href="#radial-gradient-2"/><radialGradient id="radial-gradient-27" cx="1401.83" cy="-1487.77" r="25.36" gradientTransform="translate(-1721.85 612.4) rotate(29.94)" xlink:href="#radial-gradient-2"/><radialGradient id="radial-gradient-28" cx="-3350.91" cy="-6299.88" r="25.36" gradientTransform="translate(-4554.59 -5084.13) rotate(165.92)" xlink:href="#radial-gradient-2"/><radialGradient id="radial-gradient-29" cx="-3350.91" cy="-6299.88" r="25.36" gradientTransform="translate(-4554.59 -5084.13) rotate(165.92)" xlink:href="#radial-gradient-2"/><radialGradient id="radial-gradient-30" cx="-5181.42" cy="-803.99" r="25.36" gradientTransform="translate(890.11 -5054.69) rotate(-90)" xlink:href="#radial-gradient-2"/><radialGradient id="radial-gradient-31" cx="-5181.42" cy="-803.99" r="25.36" gradientTransform="translate(633.12 -5087.52) rotate(-92.84)" xlink:href="#radial-gradient-2"/><radialGradient id="radial-gradient-32" cx="-4996.09" cy="-5223.5" r="25.36" gradientTransform="translate(-3503.3 -6004.21) rotate(-166.86)" xlink:href="#radial-gradient-2"/><radialGradient id="radial-gradient-33" cx="-4996.09" cy="-5223.5" r="25.36" gradientTransform="translate(-3503.3 -6004.21) rotate(-166.86)" xlink:href="#radial-gradient-2"/><radialGradient id="radial-gradient-34" cx="1638.26" cy="-3953.13" r="19.46" gradientTransform="matrix(0, 1, -1, 0, -3662.68, -1548.34)" xlink:href="#radial-gradient-2"/><radialGradient id="radial-gradient-35" cx="1638.26" cy="-3953.13" r="19.46" gradientTransform="translate(-3989.72 -34.05) rotate(69.11)" xlink:href="#radial-gradient-2"/><radialGradient id="radial-gradient-36" cx="-1000.06" cy="-6513.39" r="19.46" gradientTransform="matrix(-0.64, 0.77, -0.77, -0.64, -5382.21, -3209.95)" xlink:href="#radial-gradient-2"/><radialGradient id="radial-gradient-37" cx="-1000.06" cy="-6513.39" r="19.46" gradientTransform="matrix(-0.64, 0.77, -0.77, -0.64, -5382.21, -3209.95)" xlink:href="#radial-gradient-2"/><radialGradient id="radial-gradient-38" cx="-5270.37" cy="-1611.59" r="13.26" gradientTransform="translate(1719.41 -5135.38) rotate(-90)" xlink:href="#radial-gradient-2"/><radialGradient id="radial-gradient-39" cx="-5270.37" cy="-1611.59" r="13.26" gradientTransform="matrix(-0.31, -0.95, 0.95, -0.31, 8.28, -5373.56)" xlink:href="#radial-gradient-2"/><radialGradient id="radial-gradient-40" cx="-1469.44" cy="-600.09" r="13.27" gradientTransform="matrix(0.84, -0.54, 0.95, 1.46, 1956.44, 141.49)" xlink:href="#radial-gradient-2"/><radialGradient id="radial-gradient-41" cx="-1469.44" cy="-600.09" r="13.27" gradientTransform="matrix(0.84, -0.54, 0.95, 1.46, 1956.44, 141.49)" xlink:href="#radial-gradient-2"/><radialGradient id="radial-gradient-42" cx="1467.34" cy="-749.52" r="13.26" gradientTransform="translate(-1423.71 192.65) rotate(21.68)" xlink:href="#radial-gradient-2"/><radialGradient id="radial-gradient-43" cx="1467.34" cy="-749.52" r="13.26" gradientTransform="translate(-1423.71 192.65) rotate(21.68)" xlink:href="#radial-gradient-2"/><radialGradient id="radial-gradient-44" cx="592.03" cy="-4490.57" r="10.55" gradientTransform="matrix(-0.29, 0.96, -1.57, -0.47, -6612.03, -2555.53)" xlink:href="#radial-gradient-2"/><radialGradient id="radial-gradient-45" cx="592.03" cy="-4490.57" r="10.55" gradientTransform="matrix(-0.29, 0.96, -1.57, -0.47, -6612.03, -2555.53)" xlink:href="#radial-gradient-2"/><radialGradient id="radial-gradient-46" cx="-2207.52" cy="802.94" r="25.36" gradientTransform="translate(2331.7 -775.38)" xlink:href="#radial-gradient-2"/><radialGradient id="radial-gradient-47" cx="-2207.52" cy="802.94" r="25.36" gradientTransform="translate(1344.42 -1968.4) rotate(-38.54)" xlink:href="#radial-gradient-2"/><radialGradient id="radial-gradient-48" cx="-1545.17" cy="1594.4" r="58.77" gradientTransform="matrix(0.87, -0.5, 0.41, 0.72, 898.07, -1768.23)" xlink:href="#radial-gradient-2"/><radialGradient id="radial-gradient-49" cx="-1545.17" cy="1594.4" r="58.77" gradientTransform="matrix(0.87, -0.5, 0.41, 0.72, 898.07, -1768.23)" xlink:href="#radial-gradient-2"/><radialGradient id="radial-gradient-50" cx="1562.97" cy="-3693.8" r="65.56" gradientTransform="matrix(0.45, 0.89, -0.74, 0.37, -3279.36, 113.99)" xlink:href="#radial-gradient-2"/><radialGradient id="radial-gradient-51" cx="1574.33" cy="-3675.62" r="39.63" gradientTransform="matrix(0.45, 0.89, -0.74, 0.37, -3279.36, 113.99)" xlink:href="#radial-gradient-2"/><radialGradient id="radial-gradient-52" cx="1091.06" cy="-5120.87" r="32.27" gradientTransform="matrix(0.12, 0.99, -0.83, 0.1, -4226.03, -460.33)" xlink:href="#radial-gradient-2"/><radialGradient id="radial-gradient-53" cx="1083.1" cy="-5330.51" r="46.96" gradientTransform="matrix(0.12, 0.99, -0.83, 0.1, -4226.03, -460.33)" xlink:href="#radial-gradient-2"/><radialGradient id="radial-gradient-54" cx="1092.66" cy="-5314.81" r="30.75" gradientTransform="matrix(0.12, 0.99, -0.83, 0.1, -4226.03, -460.33)" xlink:href="#radial-gradient-2"/><radialGradient id="radial-gradient-55" cx="1528.68" cy="-1740.96" r="58.77" gradientTransform="matrix(0.78, 0.62, -0.52, 0.65, -1933.46, 338.4)" xlink:href="#radial-gradient-2"/><radialGradient id="radial-gradient-56" cx="1528.68" cy="-1740.96" r="58.77" gradientTransform="matrix(0.78, 0.62, -0.52, 0.65, -1933.46, 338.4)" xlink:href="#radial-gradient-2"/><radialGradient id="radial-gradient-57" cx="1507.66" cy="-1740.73" r="58.77" gradientTransform="matrix(0.78, 0.62, -0.52, 0.65, -1933.46, 338.4)" xlink:href="#radial-gradient-2"/><radialGradient id="radial-gradient-58" cx="177.59" cy="-12.18" r="170.77" gradientTransform="matrix(1, 0, 0, 1, 0, 0)" xlink:href="#radial-gradient-3"/><radialGradient id="radial-gradient-59" cx="-526.11" cy="1878.13" r="375.35" gradientTransform="matrix(0.92, -0.35, 0.18, 0.74, 355.16, -1433.62)" gradientUnits="userSpaceOnUse"><stop offset="0" stop-color="#cae1ee"/><stop offset="0.34" stop-color="#52e1ee"/><stop offset="0.94" stop-color="#842ba7"/></radialGradient><radialGradient id="radial-gradient-60" cx="881.26" cy="717.66" r="375.36" gradientTransform="matrix(0.98, 0.11, -0.18, 0.75, -547.79, -483.55)" xlink:href="#radial-gradient-59"/></defs><g class="cls-1"><g id="Layer_2" data-name="Layer 2"><circle class="cls-2" cx="188.89" cy="114.05" r="114.05"/><circle class="cls-3" cx="188.89" cy="114.05" r="102.11"/><path class="cls-4" d="M110.12,101.11c-4.6-8.75-3.21-21.33-.41-29.83,5.92-18,21.33-30.9,37.36-39.83C197.16,3.51,252.22,38.09,256.9,60.1s-17.37,33.67-47.37,26.6S157,112.92,136.24,113c-7.9,0-16-1.28-22.16-6.78A18.14,18.14,0,0,1,110.12,101.11Z"/><g class="cls-5"><path class="cls-6" d="M127.6,65.72a205.71,205.71,0,0,1-5.91-21.66A96.58,96.58,0,0,0,103.51,158.6,96.66,96.66,0,0,1,127.6,65.72Z"/><path class="cls-7" d="M241.27,32.35a96.52,96.52,0,0,0-114.49,7.12,193.09,193.09,0,0,0,5.55,21.72A96.56,96.56,0,0,1,243.78,48.9,102,102,0,0,0,241.27,32.35Z"/><path class="cls-8" d="M267.94,68.09a102.83,102.83,0,0,0-.58-10.8A97.12,97.12,0,0,0,246.49,36a114.65,114.65,0,0,1,1.76,15.57A97.2,97.2,0,0,1,267.94,68.09Z"/><path class="cls-9" d="M272.17,73A97.63,97.63,0,0,1,282,88a96.57,96.57,0,0,0-9.78-23.23Q272.34,68.9,272.17,73Z"/></g><path class="cls-10" d="M257.66,41.31A81.76,81.76,0,1,1,99.25,69.77c0-.17,0-.34,0-.51a100.3,100.3,0,1,0,158.4-27.95Z"/><path class="cls-11" d="M284.22,99.07v.43c0,55.16-43.39,99.88-96.92,99.88-49.55,0-90.41-38.31-96.22-87.76C91.32,166.57,134.62,211,188,211c53.54,0,96.93-44.71,96.93-99.87A104.85,104.85,0,0,0,284.22,99.07Z"/><ellipse class="cls-12" cx="194.38" cy="28.52" rx="24" ry="11.4"/><path class="cls-13" d="M172.51,33.22c3.77,4,12.14,6.71,21.87,6.71,10.78,0,19.9-3.38,22.93-8-3.77-3.95-12.14-6.71-21.87-6.71C184.66,25.19,175.54,28.57,172.51,33.22Z"/><ellipse class="cls-14" cx="274.69" cy="132.24" rx="24" ry="11.4" transform="matrix(0.2, -0.98, 0.98, 0.2, 91.42, 375.86)"/><path class="cls-15" d="M274.35,109.87c-4.61,2.93-9,10.6-10.84,20.14-2.11,10.58-.57,20.18,3.4,24.06,4.61-2.93,8.94-10.6,10.84-20.14C279.85,123.35,278.32,113.75,274.35,109.87Z"/><ellipse class="cls-16" cx="195.25" cy="183.73" rx="24" ry="11.4" transform="translate(-11.04 12.48) rotate(-3.56)"/><path class="cls-17" d="M216.78,177.68c-4-3.71-12.53-5.94-22.24-5.34-10.76.67-19.65,4.61-22.39,9.44,4,3.71,12.54,5.94,22.25,5.34C205.16,186.45,214.05,182.51,216.78,177.68Z"/><ellipse class="cls-18" cx="158.87" cy="141.43" rx="24.17" ry="28.78" transform="translate(-47 194.9) rotate(-56.23)"/><path class="cls-19" d="M172.31,121.34c-11.92-8-26.7-7.25-34.92,1.11-4.55,10.79.43,24.69,12.33,32.65s26.7,7.25,34.93-1.11C189.2,143.2,184.21,129.3,172.31,121.34Z"/><ellipse class="cls-20" cx="194.02" cy="65.64" rx="15.56" ry="18.52" transform="translate(84.98 239.02) rotate(-76.52)"/><path class="cls-21" d="M190.4,80.77c9,2.15,17.73-1.58,20.83-8.47.34-7.53-5.77-14.81-14.73-17s-17.74,1.58-20.84,8.47C175.32,71.34,181.43,78.62,190.4,80.77Z"/><ellipse class="cls-22" cx="230.1" cy="139.4" rx="23.25" ry="19.53" transform="translate(-36.35 176.55) rotate(-39.15)"/><path class="cls-23" d="M217.77,124.25c-9,7.31-11.93,18.89-7.43,27.23,7.25,6.08,19.17,5.53,28.14-1.78s11.94-18.89,7.43-27.22C238.66,116.4,226.74,117,217.77,124.25Z"/><ellipse class="cls-24" cx="129.84" cy="65.32" rx="18.92" ry="8.99" transform="translate(0.43 131.49) rotate(-53.79)"/><path class="cls-25" d="M122.64,81.42c4.27-.55,9.92-4.6,14.45-10.78,5-6.86,7.12-14.24,5.58-18.33-4.27.56-9.92,4.6-14.45,10.79C123.19,70,121.1,77.33,122.64,81.42Z"/><ellipse class="cls-26" cx="112.87" cy="159.1" rx="11.4" ry="24" transform="translate(-65.13 79.3) rotate(-30.5)"/><path class="cls-27" d="M128,175.56c1.5-5.25-.38-13.86-5.32-22.25-5.47-9.29-13-15.43-18.55-15.68-1.5,5.25.38,13.86,5.32,22.25C114.94,169.17,122.48,175.31,128,175.56Z"/><path class="cls-28" d="M247.67,44.36c-1.78,3.09-8.49,2.56-15-1.19s-10.33-9.28-8.55-12.37,8.49-2.56,15,1.19S249.45,41.27,247.67,44.36Z"/><path class="cls-29" d="M223.85,33.71c.73,3,4.06,6.71,8.83,9.46,5.29,3,10.71,4,13.51,2.55-.73-3-4.06-6.72-8.83-9.47C232.07,33.2,226.65,32.28,223.85,33.71Z"/><path class="cls-30" d="M204.17,204.91c-.86-3.45,4.33-7.74,11.61-9.56s13.88-.5,14.75,3-4.33,7.74-11.61,9.56S205,208.37,204.17,204.91Z"/><path class="cls-31" d="M228.71,196c-2.61-1.65-7.59-2-12.93-.67-5.92,1.48-10.46,4.59-11.48,7.56,2.61,1.66,7.58,2,12.93.68C223.15,202.1,227.69,199,228.71,196Z"/><ellipse class="cls-32" cx="98.64" cy="119.1" rx="6.46" ry="13.59" transform="translate(-5.77 5.03) rotate(-2.84)"/><path class="cls-33" d="M101.91,131.33c2.13-2.24,3.45-7.05,3.18-12.55-.3-6.1-2.47-11.16-5.18-12.74-2.13,2.24-3.45,7-3.18,12.55C97,124.69,99.2,129.75,101.91,131.33Z"/><path class="cls-34" d="M156.62,201.05c.82-3.47,7.4-4.9,14.7-3.2s12.58,5.91,11.77,9.38-7.4,4.9-14.7,3.2S155.81,204.52,156.62,201.05Z"/><path class="cls-35" d="M182.51,204.37c-1.56-2.67-5.82-5.26-11.19-6.52-5.94-1.38-11.4-.69-13.67,1.48,1.57,2.66,5.83,5.26,11.19,6.51C174.78,207.23,180.25,206.54,182.51,204.37Z"/><ellipse class="cls-36" cx="281.08" cy="95.88" rx="4.95" ry="10.43" transform="translate(-15.71 106.53) rotate(-20.89)"/><path class="cls-37" d="M275.79,87.73c-1,2.14-.84,6,.67,9.91,1.67,4.38,4.45,7.56,6.81,8.07,1-2.15.84-6-.67-9.92C280.93,91.42,278.15,88.24,275.79,87.73Z"/><path class="cls-38" d="M256.52,176.92c-2.11-1.74-.84-6.75,2.83-11.19s8.35-6.62,10.46-4.87.84,6.75-2.83,11.19S258.63,178.67,256.52,176.92Z"/><path class="cls-39" d="M267.65,160.27c-2.37.17-5.61,2.21-8.3,5.46-3,3.61-4.38,7.6-3.66,9.9,2.37-.17,5.6-2.21,8.3-5.46C267,166.56,268.37,162.57,267.65,160.27Z"/><ellipse class="cls-40" cx="114.21" cy="131.05" rx="3.38" ry="7.11" transform="translate(-34.99 41.85) rotate(-18.05)"/><path class="cls-41" d="M117.54,136.78c.77-1.43.77-4-.12-6.77-1-3-2.78-5.3-4.36-5.72-.77,1.42-.78,4,.11,6.77C114.16,134.09,116,136.35,117.54,136.78Z"/><path class="cls-42" d="M172,70.14c1.77,2.71.53,6.65-2.77,8.78s-7.39,1.67-9.15-1-.52-6.65,2.77-8.79S170.24,67.42,172,70.14Z"/><path class="cls-43" d="M161.93,79.55a7.28,7.28,0,0,0,7.3-.63c2.68-1.73,4-4.66,3.45-7.15a7.3,7.3,0,0,0-7.31.63C162.7,74.13,161.38,77.06,161.93,79.55Z"/><path class="cls-44" d="M224.74,48.34c-.69,1.73-4.21,2-7.85.51s-6-4-5.36-5.76,4.2-2,7.85-.51S225.42,46.61,224.74,48.34Z"/><path class="cls-45" d="M211.6,44.62c.61,1.5,2.61,3.17,5.29,4.23,3,1.18,5.84,1.25,7.18.3-.6-1.5-2.6-3.17-5.28-4.23C215.82,43.74,212.94,43.67,211.6,44.62Z"/><path class="cls-46" d="M256.07,125.2c-2.33-.7-3.5-3.69-2.6-6.68s3.51-4.85,5.84-4.16,3.49,3.69,2.59,6.68S258.4,125.89,256.07,125.2Z"/><path class="cls-47" d="M257.42,114.33a5.89,5.89,0,0,0-4,4.19,5.68,5.68,0,0,0,1.42,6.06,5.91,5.91,0,0,0,4-4.19C259.57,118,258.94,115.52,257.42,114.33Z"/><ellipse class="cls-48" cx="131.85" cy="40.07" rx="13.59" ry="6.46" transform="translate(3.75 90.88) rotate(-38.54)"/><path class="cls-49" d="M123.83,49.87c3.06.42,7.74-1.32,12-4.75,4.77-3.8,7.62-8.51,7.32-11.64-3.06-.42-7.74,1.31-12,4.74C126.38,42,123.53,46.74,123.83,49.87Z"/><path class="cls-50" d="M237.3,177.9c.79,1.38-.55,3.63-3,5s-5.05,1.4-5.83,0,.55-3.63,3-5S236.52,176.52,237.3,177.9Z"/><path class="cls-51" d="M242.21,169.88c.48.84-.34,2.21-1.82,3.05s-3.07.85-3.55,0,.34-2.21,1.82-3.05S241.73,169,242.21,169.88Z"/><path class="cls-52" d="M130.21,156.43c-1.58.8-4-.82-5.41-3.62s-1.27-5.7.32-6.5,4,.82,5.41,3.62S131.79,155.63,130.21,156.43Z"/><path class="cls-53" d="M135.61,162.78c-1,.48-2.42-.5-3.28-2.18s-.76-3.45.2-3.93,2.42.49,3.27,2.18S136.56,162.3,135.61,162.78Z"/><path class="cls-54" d="M108.65,122.06c-.86.11-1.71-1-1.9-2.58s.37-2.85,1.24-3,1.72,1,1.9,2.58S109.52,122,108.65,122.06Z"/><path class="cls-55" d="M271.3,96.37c-1.27.15-2.5-1.53-2.77-3.75s.54-4.16,1.8-4.31,2.5,1.53,2.76,3.76S272.56,96.22,271.3,96.37Z"/><path class="cls-56" d="M269.83,104.12c-.82.1-1.64-1-1.81-2.45s.35-2.72,1.18-2.82,1.63,1,1.81,2.46S270.66,104,269.83,104.12Z"/><path class="cls-57" d="M145.39,193.36c-1,1.24-3.57.83-5.77-.91s-3.17-4.17-2.18-5.42,3.57-.83,5.77.91S146.38,192.12,145.39,193.36Z"/><path class="cls-58" d="M154.66,194.94c-.61.75-2.18.5-3.51-.56s-1.93-2.54-1.33-3.29,2.18-.51,3.51.55S155.26,194.18,154.66,194.94Z"/><path class="cls-59" d="M138.09,182c-.6.75-2.17.5-3.5-.56s-1.93-2.54-1.33-3.29,2.17-.51,3.51.55S138.7,181.24,138.09,182Z"/><path class="cls-60" d="M149.64,35.94c-.54-1.49,1.16-3.48,3.8-4.43s5.22-.5,5.75,1S158,36,155.39,36.93,150.18,37.44,149.64,35.94Zm-2.71,7.66c1.6-.58,2.64-1.78,2.31-2.69s-1.89-1.18-3.5-.6-2.64,1.78-2.31,2.69S145.32,44.18,146.93,43.6Zm19.71-7.3c1.6-.58,2.64-1.78,2.31-2.69s-1.89-1.18-3.5-.6-2.64,1.78-2.31,2.69S165,36.88,166.64,36.3ZM235.8,53.8c.45-1.52,3-2.11,5.69-1.31s4.5,2.68,4,4.2-3,2.11-5.69,1.31S235.35,55.32,235.8,53.8Zm13.49,10.36c1.63.48,3.18.13,3.46-.8s-.83-2.07-2.47-2.56-3.18-.12-3.46.8S247.65,63.67,249.29,64.16Z"/><g class="cls-61"><path class="cls-62" d="M351.81,20.72c-8.72-14.5-40.69-8.15-66-.27l-1,.32c-11,3.46-22.72,7.84-35,13,1.68,1,3.32,2.13,4.89,3.31,11.06-4.56,21.66-8.46,31.6-11.59l1-.32c32.37-10.09,54.89-10.8,60.24-1.9s-5.91,28.35-30.12,52c-25.7,25.12-63.27,52.93-105.79,78.31s-84.91,45.24-119.23,56c-32.37,10.09-54.88,10.8-60.23,1.89s5.91-28.35,30.12-52c7.88-7.7,16.88-15.66,26.8-23.73-.22-1.1-.4-2.21-.53-3.33-.16-.75-.29-1.5-.41-2.26-10.91,8.77-20.78,17.43-29.34,25.8C39.9,174.4,19.18,199.49,27.9,214s40.69,8.16,66,.27l1-.32c34.53-10.9,76.83-30.8,119.26-56.11,42.85-25.57,80.76-53.64,106.73-79C339.81,60.32,360.53,35.23,351.81,20.72Z"/></g><g class="cls-61"><path class="cls-63" d="M378.33,104.88c-1.21-17.07-32.77-25.91-59-30.31l-1.08-.18c-11.4-1.87-23.93-3.28-37.29-4.22,1,1.72,2,3.45,2.87,5.23,12,.92,23.27,2.23,33.61,3.92l1.06.18c33.61,5.64,54.12,15.26,54.87,25.74s-18.2,22.91-50.66,33.26c-34.47,11-80.8,19-130.47,22.52s-96.69,2.17-132.33-3.79C26.28,151.59,5.77,142,5,131.49s18.19-22.91,50.66-33.26C66.25,94.86,78,91.78,90.51,89c.3-1.09.65-2.18,1-3.25.21-.75.43-1.49.67-2.23-13.77,3-26.56,6.28-38,9.94C28.8,101.55-1.18,114.77,0,131.85s32.77,25.91,59,30.31l1.08.18c35.91,5.89,82.89,7.2,132.44,3.67,50-3.57,96.79-11.65,131.62-22.75C349.57,135.18,379.55,122,378.33,104.88Z"/></g></g></g></svg>