<svg xmlns="http://www.w3.org/2000/svg" xmlns:xlink="http://www.w3.org/1999/xlink" viewBox="0 0 259.72 259.72"><defs><style>.cls-1{isolation:isolate;}.cls-2{fill:url(#radial-gradient);}.cls-3{fill:url(#radial-gradient-2);}.cls-4,.cls-6,.cls-60,.cls-7,.cls-8,.cls-9{mix-blend-mode:screen;}.cls-4{fill:url(#radial-gradient-3);}.cls-5{opacity:0.7;}.cls-6{fill:url(#radial-gradient-4);}.cls-7{fill:url(#radial-gradient-5);}.cls-8{fill:url(#radial-gradient-6);}.cls-9{fill:url(#radial-gradient-7);}.cls-10,.cls-11,.cls-12,.cls-13,.cls-14,.cls-15,.cls-16,.cls-17,.cls-18,.cls-19,.cls-20,.cls-21,.cls-22,.cls-23,.cls-24,.cls-25,.cls-26,.cls-27,.cls-28,.cls-29,.cls-30,.cls-31,.cls-32,.cls-33,.cls-34,.cls-35,.cls-36,.cls-37,.cls-38,.cls-39,.cls-40,.cls-41,.cls-42,.cls-43,.cls-44,.cls-45,.cls-46,.cls-47,.cls-48,.cls-49,.cls-50,.cls-51,.cls-52,.cls-53,.cls-54,.cls-55,.cls-56,.cls-57,.cls-58,.cls-59,.cls-60{opacity:0.5;}.cls-10,.cls-11,.cls-12,.cls-13,.cls-14,.cls-15,.cls-16,.cls-17,.cls-18,.cls-19,.cls-20,.cls-21,.cls-22,.cls-23,.cls-24,.cls-25,.cls-26,.cls-27,.cls-28,.cls-29,.cls-30,.cls-31,.cls-32,.cls-33,.cls-34,.cls-35,.cls-36,.cls-37,.cls-38,.cls-39,.cls-40,.cls-41,.cls-42,.cls-43,.cls-44,.cls-45,.cls-46,.cls-47,.cls-48,.cls-49,.cls-50,.cls-51,.cls-52,.cls-53,.cls-54,.cls-55,.cls-56,.cls-57,.cls-58,.cls-59{mix-blend-mode:multiply;}.cls-10{fill:url(#radial-gradient-8);}.cls-11{fill:url(#radial-gradient-9);}.cls-12{fill:url(#radial-gradient-10);}.cls-13{fill:url(#radial-gradient-11);}.cls-14{fill:url(#radial-gradient-12);}.cls-15{fill:url(#radial-gradient-13);}.cls-16{fill:url(#radial-gradient-14);}.cls-17{fill:url(#radial-gradient-15);}.cls-18{fill:url(#radial-gradient-16);}.cls-19{fill:url(#radial-gradient-17);}.cls-20{fill:url(#radial-gradient-18);}.cls-21{fill:url(#radial-gradient-19);}.cls-22{fill:url(#radial-gradient-20);}.cls-23{fill:url(#radial-gradient-21);}.cls-24{fill:url(#radial-gradient-22);}.cls-25{fill:url(#radial-gradient-23);}.cls-26{fill:url(#radial-gradient-24);}.cls-27{fill:url(#radial-gradient-25);}.cls-28{fill:url(#radial-gradient-26);}.cls-29{fill:url(#radial-gradient-27);}.cls-30{fill:url(#radial-gradient-28);}.cls-31{fill:url(#radial-gradient-29);}.cls-32{fill:url(#radial-gradient-30);}.cls-33{fill:url(#radial-gradient-31);}.cls-34{fill:url(#radial-gradient-32);}.cls-35{fill:url(#radial-gradient-33);}.cls-36{fill:url(#radial-gradient-34);}.cls-37{fill:url(#radial-gradient-35);}.cls-38{fill:url(#radial-gradient-36);}.cls-39{fill:url(#radial-gradient-37);}.cls-40{fill:url(#radial-gradient-38);}.cls-41{fill:url(#radial-gradient-39);}.cls-42{fill:url(#radial-gradient-40);}.cls-43{fill:url(#radial-gradient-41);}.cls-44{fill:url(#radial-gradient-42);}.cls-45{fill:url(#radial-gradient-43);}.cls-46{fill:url(#radial-gradient-44);}.cls-47{fill:url(#radial-gradient-45);}.cls-48{fill:url(#radial-gradient-46);}.cls-49{fill:url(#radial-gradient-47);}.cls-50{fill:url(#radial-gradient-48);}.cls-51{fill:url(#radial-gradient-49);}.cls-52{fill:url(#radial-gradient-50);}.cls-53{fill:url(#radial-gradient-51);}.cls-54{fill:url(#radial-gradient-52);}.cls-55{fill:url(#radial-gradient-53);}.cls-56{fill:url(#radial-gradient-54);}.cls-57{fill:url(#radial-gradient-55);}.cls-58{fill:url(#radial-gradient-56);}.cls-59{fill:url(#radial-gradient-57);}.cls-60{fill:url(#radial-gradient-58);}</style><radialGradient id="radial-gradient" cx="-2238.78" cy="1059.53" r="131.3" gradientTransform="translate(1742.03 -1749.25) rotate(-24.02)" gradientUnits="userSpaceOnUse"><stop offset="0" stop-color="#52e1ee"/><stop offset="0.62" stop-color="#3e8def"/><stop offset="0.7" stop-color="#3f8cee" stop-opacity="0.99"/><stop offset="0.75" stop-color="#4189ec" stop-opacity="0.95"/><stop offset="0.79" stop-color="#4585e8" stop-opacity="0.89"/><stop offset="0.84" stop-color="#4b7ee2" stop-opacity="0.8"/><stop offset="0.87" stop-color="#5376db" stop-opacity="0.69"/><stop offset="0.91" stop-color="#5d6cd2" stop-opacity="0.54"/><stop offset="0.94" stop-color="#685fc7" stop-opacity="0.38"/><stop offset="0.97" stop-color="#7552bb" stop-opacity="0.19"/><stop offset="1" stop-color="#8144af" stop-opacity="0"/></radialGradient><radialGradient id="radial-gradient-2" cx="-2226.48" cy="958.35" r="228.91" gradientTransform="matrix(0.99, 0.14, -0.14, 0.99, 2497.13, -595.53)" gradientUnits="userSpaceOnUse"><stop offset="0" stop-color="#52e1ee"/><stop offset="0.62" stop-color="#3e8def"/><stop offset="0.64" stop-color="#4487e9"/><stop offset="0.75" stop-color="#6562ca"/><stop offset="0.84" stop-color="#7a4cb6"/><stop offset="0.9" stop-color="#8144af"/></radialGradient><radialGradient id="radial-gradient-3" cx="-1619.5" cy="244.7" r="217.66" gradientTransform="matrix(1.26, -0.5, 0.44, 1.1, 1869.26, -1099.48)" xlink:href="#radial-gradient-2"/><radialGradient id="radial-gradient-4" cx="-2229.25" cy="959.54" r="170.32" gradientTransform="translate(1290.85 -2056.98) rotate(-36.69)" xlink:href="#radial-gradient-2"/><radialGradient id="radial-gradient-5" cx="-2229.25" cy="959.54" r="170.32" gradientTransform="translate(1290.85 -2056.98) rotate(-36.69)" xlink:href="#radial-gradient-2"/><radialGradient id="radial-gradient-6" cx="-2229.25" cy="959.54" r="170.33" gradientTransform="translate(1290.85 -2056.98) rotate(-36.69)" xlink:href="#radial-gradient-2"/><radialGradient id="radial-gradient-7" cx="-2229.25" cy="959.54" r="170.32" gradientTransform="translate(1290.85 -2056.98) rotate(-36.69)" xlink:href="#radial-gradient-2"/><radialGradient id="radial-gradient-8" cx="-2226.68" cy="989.6" r="200.36" gradientTransform="translate(1290.85 -2056.98) rotate(-36.69)" xlink:href="#radial-gradient-2"/><radialGradient id="radial-gradient-9" cx="-2228.04" cy="1051.01" r="147.29" gradientTransform="translate(1290.85 -2056.98) rotate(-36.69)" xlink:href="#radial-gradient-2"/><radialGradient id="radial-gradient-10" cx="-2246.95" cy="937.67" r="51.02" gradientTransform="translate(1290.85 -2056.98) rotate(-36.69)" xlink:href="#radial-gradient-2"/><radialGradient id="radial-gradient-11" cx="-2246.95" cy="937.67" r="51.02" gradientTransform="translate(1290.85 -2056.98) rotate(-36.69)" xlink:href="#radial-gradient-2"/><radialGradient id="radial-gradient-12" cx="1173.13" cy="-4040.89" r="51.02" gradientTransform="translate(-3916.4 739.84) rotate(64.56)" xlink:href="#radial-gradient-2"/><radialGradient id="radial-gradient-13" cx="1173.13" cy="-4040.89" r="51.02" gradientTransform="translate(-3916.4 739.84) rotate(64.56)" xlink:href="#radial-gradient-2"/><radialGradient id="radial-gradient-14" cx="-2668.46" cy="-6766.14" r="51.01" gradientTransform="translate(-6197.23 -3242.31) rotate(139.75)" xlink:href="#radial-gradient-2"/><radialGradient id="radial-gradient-15" cx="-2668.46" cy="-6766.14" r="51.01" gradientTransform="translate(-6197.23 -3242.31) rotate(139.75)" xlink:href="#radial-gradient-2"/><radialGradient id="radial-gradient-16" cx="-4992.5" cy="-4538.8" r="61.17" gradientTransform="matrix(-1, 0.05, -0.09, -1.77, -5252.43, -7530.77)" xlink:href="#radial-gradient-2"/><radialGradient id="radial-gradient-17" cx="-2285.78" cy="1038.25" r="77.86" gradientTransform="translate(1290.85 -2056.98) rotate(-36.69)" xlink:href="#radial-gradient-2"/><radialGradient id="radial-gradient-18" cx="-1301.03" cy="-658.83" r="39.37" gradientTransform="matrix(0.92, -0.39, 0.7, 1.62, 1731.83, 613.15)" xlink:href="#radial-gradient-2"/><radialGradient id="radial-gradient-19" cx="-1541.79" cy="-6678.44" r="50.11" gradientTransform="translate(-6304.3 -2253.91) rotate(123.03)" xlink:href="#radial-gradient-2"/><radialGradient id="radial-gradient-20" cx="-358.38" cy="-4572.59" r="49.41" gradientTransform="matrix(-0.24, 0.97, -1.71, -0.43, -7695.09, -1510.28)" xlink:href="#radial-gradient-2"/><radialGradient id="radial-gradient-21" cx="-6171.3" cy="-1468.49" r="62.89" gradientTransform="translate(-538.23 -6156.48) rotate(-109.6)" xlink:href="#radial-gradient-2"/><radialGradient id="radial-gradient-22" cx="-5435.93" cy="-199.97" r="40.21" gradientTransform="translate(178.54 -5299.54) rotate(-90.47)" xlink:href="#radial-gradient-2"/><radialGradient id="radial-gradient-23" cx="-5435.93" cy="-199.97" r="40.21" gradientTransform="translate(178.54 -5299.54) rotate(-90.47)" xlink:href="#radial-gradient-2"/><radialGradient id="radial-gradient-24" cx="-6027.77" cy="-4490.54" r="51.01" gradientTransform="translate(-3719.61 -6224.46) rotate(-157.19)" xlink:href="#radial-gradient-2"/><radialGradient id="radial-gradient-25" cx="-6027.77" cy="-4490.54" r="51.01" gradientTransform="translate(-3719.61 -6224.46) rotate(-157.19)" xlink:href="#radial-gradient-2"/><radialGradient id="radial-gradient-26" cx="-331.02" cy="237.68" r="28.88" gradientTransform="translate(411.15 -259.9) rotate(-6.74)" xlink:href="#radial-gradient-2"/><radialGradient id="radial-gradient-27" cx="-331.02" cy="237.68" r="28.88" gradientTransform="translate(411.15 -259.9) rotate(-6.74)" xlink:href="#radial-gradient-2"/><radialGradient id="radial-gradient-28" cx="-1947.92" cy="-6699.79" r="28.88" gradientTransform="translate(-6189.23 -2537.05) rotate(129.24)" xlink:href="#radial-gradient-2"/><radialGradient id="radial-gradient-29" cx="-1947.92" cy="-6699.79" r="28.88" gradientTransform="translate(-6189.23 -2537.05) rotate(129.24)" xlink:href="#radial-gradient-2"/><radialGradient id="radial-gradient-30" cx="-6585.73" cy="-2650.54" r="28.88" gradientTransform="translate(2687.35 -6381.21) rotate(-90)" xlink:href="#radial-gradient-2"/><radialGradient id="radial-gradient-31" cx="-6585.73" cy="-2650.54" r="28.88" gradientTransform="translate(-2100.95 -6555.31) rotate(-129.52)" xlink:href="#radial-gradient-2"/><radialGradient id="radial-gradient-32" cx="-4009.93" cy="-6489.26" r="28.88" gradientTransform="translate(-6080.81 -4112.19) rotate(156.45)" xlink:href="#radial-gradient-2"/><radialGradient id="radial-gradient-33" cx="-4009.93" cy="-6489.26" r="28.88" gradientTransform="translate(-6080.81 -4112.19) rotate(156.45)" xlink:href="#radial-gradient-2"/><radialGradient id="radial-gradient-34" cx="1235.86" cy="-1888.88" r="22.16" gradientTransform="translate(-1854.21 969.46) rotate(32.43)" xlink:href="#radial-gradient-2"/><radialGradient id="radial-gradient-35" cx="1235.86" cy="-1888.88" r="22.16" gradientTransform="translate(-1854.21 969.46) rotate(32.43)" xlink:href="#radial-gradient-2"/><radialGradient id="radial-gradient-36" cx="268.95" cy="-5645.58" r="22.16" gradientTransform="translate(-5378.39 -431.65) rotate(92.91)" xlink:href="#radial-gradient-2"/><radialGradient id="radial-gradient-37" cx="268.95" cy="-5645.58" r="22.16" gradientTransform="translate(-5378.39 -431.65) rotate(92.91)" xlink:href="#radial-gradient-2"/><radialGradient id="radial-gradient-38" cx="-6152.13" cy="-3601.7" r="15.1" gradientTransform="matrix(-0.82, -0.58, 0.58, -0.82, -2871.21, -6287.49)" xlink:href="#radial-gradient-2"/><radialGradient id="radial-gradient-39" cx="-6152.13" cy="-3601.7" r="15.1" gradientTransform="matrix(-0.82, -0.58, 0.58, -0.82, -2871.21, -6287.49)" xlink:href="#radial-gradient-2"/><radialGradient id="radial-gradient-40" cx="-4092.11" cy="-699.47" r="15.1" gradientTransform="matrix(0.35, -0.94, 1.63, 0.6, 2629.64, -3305.73)" xlink:href="#radial-gradient-2"/><radialGradient id="radial-gradient-41" cx="-4092.11" cy="-699.47" r="15.1" gradientTransform="matrix(0.35, -0.94, 1.63, 0.6, 2629.64, -3305.73)" xlink:href="#radial-gradient-2"/><radialGradient id="radial-gradient-42" cx="-497.39" cy="799.03" r="15.1" gradientTransform="translate(377.17 -859) rotate(-15.01)" xlink:href="#radial-gradient-2"/><radialGradient id="radial-gradient-43" cx="-497.39" cy="799.03" r="15.1" gradientTransform="translate(377.17 -859) rotate(-15.01)" xlink:href="#radial-gradient-2"/><radialGradient id="radial-gradient-44" cx="1385.36" cy="-3538.35" r="12.02" gradientTransform="matrix(0.34, 0.94, -1.54, 0.56, -5716.23, 766.4)" xlink:href="#radial-gradient-2"/><radialGradient id="radial-gradient-45" cx="1385.36" cy="-3538.35" r="12.02" gradientTransform="matrix(0.34, 0.94, -1.54, 0.56, -5716.23, 766.4)" xlink:href="#radial-gradient-2"/><radialGradient id="radial-gradient-46" cx="-4797" cy="395.93" r="28.88" gradientTransform="translate(851.9 -4633.13) rotate(-75.23)" xlink:href="#radial-gradient-2"/><radialGradient id="radial-gradient-47" cx="-4797" cy="395.93" r="28.88" gradientTransform="translate(851.9 -4633.13) rotate(-75.23)" xlink:href="#radial-gradient-2"/><radialGradient id="radial-gradient-48" cx="-4176.99" cy="1495.88" r="66.92" gradientTransform="matrix(0.4, -0.92, 0.76, 0.33, 709.52, -4179.69)" xlink:href="#radial-gradient-2"/><radialGradient id="radial-gradient-49" cx="-4176.99" cy="1495.88" r="66.92" gradientTransform="matrix(0.4, -0.92, 0.76, 0.33, 709.52, -4179.69)" xlink:href="#radial-gradient-2"/><radialGradient id="radial-gradient-50" cx="951.42" cy="-1186.33" r="74.64" gradientTransform="matrix(0.89, 0.45, -0.37, 0.74, -1173.25, 616.05)" xlink:href="#radial-gradient-2"/><radialGradient id="radial-gradient-51" cx="964.36" cy="-1165.64" r="45.12" gradientTransform="matrix(0.89, 0.45, -0.37, 0.74, -1173.25, 616.05)" xlink:href="#radial-gradient-2"/><radialGradient id="radial-gradient-52" cx="1174.06" cy="-2746.86" r="36.74" gradientTransform="matrix(0.69, 0.72, -0.6, 0.57, -2387.27, 892.86)" xlink:href="#radial-gradient-2"/><radialGradient id="radial-gradient-53" cx="1164.99" cy="-2985.55" r="53.47" gradientTransform="matrix(0.69, 0.72, -0.6, 0.57, -2387.27, 892.86)" xlink:href="#radial-gradient-2"/><radialGradient id="radial-gradient-54" cx="1175.88" cy="-2967.68" r="35.01" gradientTransform="matrix(0.69, 0.72, -0.6, 0.57, -2387.27, 892.86)" xlink:href="#radial-gradient-2"/><radialGradient id="radial-gradient-55" cx="63.44" cy="535.14" r="66.92" gradientTransform="matrix(1, 0.03, -0.03, 0.83, 87.93, -258.95)" xlink:href="#radial-gradient-2"/><radialGradient id="radial-gradient-56" cx="63.44" cy="535.15" r="66.92" gradientTransform="matrix(1, 0.03, -0.03, 0.83, 87.93, -258.95)" xlink:href="#radial-gradient-2"/><radialGradient id="radial-gradient-57" cx="39.51" cy="535.41" r="66.92" gradientTransform="matrix(1, 0.03, -0.03, 0.83, 87.93, -258.95)" xlink:href="#radial-gradient-2"/><radialGradient id="radial-gradient-58" cx="-5244.95" cy="-150.81" r="404.6" gradientTransform="translate(598.67 -5140.59) rotate(-84)" xlink:href="#radial-gradient-2"/></defs><g class="cls-1"><g id="Layer_2" data-name="Layer 2"><circle class="cls-2" cx="129.86" cy="129.86" r="129.85" transform="translate(-25.31 31.63) rotate(-12.66)"/><circle class="cls-3" cx="129.86" cy="129.86" r="116.26" transform="translate(-53.79 129.86) rotate(-45)"/><path class="cls-4" d="M49.15,171.63C39,166.77,31.7,154.34,28.48,144.68c-6.83-20.44-1.54-42.73,7-61.79C62.23,23.3,136,17.43,155.27,34.34s7,42.56-25.16,56.51-30.17,59.71-49,73.9c-7.19,5.41-15.49,9.73-24.85,8.88A20.51,20.51,0,0,1,49.15,171.63Z"/><g class="cls-5"><path class="cls-6" d="M41,127.43A233.85,233.85,0,0,1,20.9,111.67a110,110,0,0,0,61.31,117A110.05,110.05,0,0,1,41,127.43Z"/><path class="cls-7" d="M122.12,19.63A109.94,109.94,0,0,0,22.42,104a221.31,221.31,0,0,0,19.85,16,109.95,109.95,0,0,1,93.4-87A115.88,115.88,0,0,0,122.12,19.63Z"/><path class="cls-8" d="M170.78,34.12a114.14,114.14,0,0,0-7.88-9.46,110.65,110.65,0,0,0-33.53-5.25,130,130,0,0,1,12.19,13A110.88,110.88,0,0,1,170.78,34.12Z"/><path class="cls-9" d="M178,35.77a109.5,109.5,0,0,1,19.15,7,109.2,109.2,0,0,0-24.74-14.56Q175.36,31.87,178,35.77Z"/></g><path class="cls-10" d="M143.18,16.66A93.1,93.1,0,1,1,17.9,150.41l-.34-.48A114.2,114.2,0,1,0,143.18,16.66Z"/><path class="cls-11" d="M206.72,51.34l.3.39c37.52,50.36,28.32,120.71-20.56,157.13-45.25,33.7-108.61,26.52-147.55-14.68C76.51,244.19,146.3,255.34,195,219S253.12,112.27,215.6,61.9A118.54,118.54,0,0,0,206.72,51.34Z"/><path class="cls-12" d="M98.62,31.71c4.28,5.75-2.06,17.73-14.16,26.74S59.07,70.12,54.79,64.37s2.05-17.73,14.15-26.74S94.33,26,98.62,31.71Z"/><path class="cls-13" d="M59.93,67.2c6.13,1,15.65-2.13,24.53-8.75,9.84-7.33,15.87-16.62,15.48-22.93-6.14-1-15.65,2.14-24.53,8.76C65.56,51.61,59.53,60.9,59.93,67.2Z"/><path class="cls-14" d="M232.32,112.78c-6.47,3.08-17-5.47-23.46-19.1s-6.49-27.18,0-30.26,17,5.47,23.47,19.1S238.8,109.7,232.32,112.78Z"/><path class="cls-15" d="M205.06,67.91c-2.23,5.81-1,15.77,3.8,25.77,5.27,11.09,13.2,18.81,19.47,19.65,2.22-5.81.95-15.76-3.8-25.76C219.25,76.48,211.32,68.75,205.06,67.91Z"/><path class="cls-16" d="M162.21,206.81c-4.63-5.47.95-17.81,12.47-27.56S199.3,166,203.93,171.5s-1,17.82-12.47,27.57S166.85,212.29,162.21,206.81Z"/><path class="cls-17" d="M198.62,169c-6.18-.67-15.48,3.1-23.94,10.26-9.37,7.93-14.81,17.57-14,23.84,6.18.67,15.48-3.1,23.94-10.26C194,184.9,199.41,175.26,198.62,169Z"/><path class="cls-18" d="M88.36,177c-.77-15.19,13.25-28.24,31.33-29.16s33.35,10.64,34.13,25.82-13.25,28.23-31.33,29.16S89.14,192.14,88.36,177Z"/><path class="cls-19" d="M119.69,147.8c-16.31.83-29.31,11.54-31.13,24.77,3.18,13,17.19,22.25,33.47,21.42s29.31-11.54,31.13-24.77C150,156.27,136,147,119.69,147.8Z"/><path class="cls-20" d="M121,73.85c3.86,9-1.69,20-12.4,24.6s-22.51,1-26.36-8,1.69-20,12.4-24.6S117.15,64.86,121,73.85Z"/><path class="cls-21" d="M108.6,98.45c9.66-4.14,15.12-13.51,13.27-21.9-4.82-7.11-15.35-9.6-25-5.46S81.76,84.59,83.61,93C88.43,100.1,99,102.59,108.6,98.45Z"/><path class="cls-22" d="M178.26,150.64c-11.91-3-18.66-16.93-15.08-31.11s16.13-23.22,28-20.22,18.65,16.93,15.07,31.11S190.16,153.64,178.26,150.64Z"/><path class="cls-23" d="M163.18,119.53c-3.23,12.79,1.95,25.37,11.74,29.92,10.75.61,21.26-8,24.48-20.76s-2-25.37-11.74-29.92C176.91,98.16,166.4,106.76,163.18,119.53Z"/><path class="cls-24" d="M42.63,104c5.65,0,10.31,9.56,10.41,21.46S48.63,147,43,147.08s-10.31-9.56-10.41-21.45S37,104.05,42.63,104Z"/><path class="cls-25" d="M47.18,145.14c3.52-3.42,5.93-10.95,5.86-19.68-.08-9.68-3.18-17.84-7.38-20.52-3.52,3.41-5.92,10.94-5.85,19.67C39.89,134.29,43,142.45,47.18,145.14Z"/><path class="cls-26" d="M65.92,212.11c2.78-6.61,16.31-7.22,30.22-1.37s22.94,16,20.16,22.57-16.32,7.22-30.23,1.37S63.14,218.72,65.92,212.11Z"/><path class="cls-27" d="M116.13,227.43c-2.21-5.81-9.78-12.39-20-16.69C84.83,206,73.76,205.5,68.53,209c2.21,5.82,9.78,12.4,20,16.7C99.84,230.5,110.9,231,116.13,227.43Z"/><path class="cls-28" d="M136.14,26.25c.47,4-6,8.11-14.5,9.11s-15.75-1.45-16.23-5.48,6-8.11,14.5-9.12S135.66,22.21,136.14,26.25Z"/><path class="cls-29" d="M107.13,32.72c2.71,2.25,8.28,3.38,14.51,2.64,6.9-.81,12.48-3.67,14.07-6.87-2.72-2.25-8.28-3.38-14.51-2.64C114.3,26.67,108.72,29.52,107.13,32.72Z"/><path class="cls-30" d="M205.63,202.43c-3.14-2.56-1.31-10,4.1-16.63s12.33-9.9,15.47-7.33,1.32,10-4.09,16.63S208.78,205,205.63,202.43Z"/><path class="cls-31" d="M222,177.62c-3.51.27-8.3,3.33-12.26,8.18-4.4,5.38-6.43,11.32-5.35,14.72,3.51-.27,8.3-3.32,12.27-8.18C221,187,223.08,181,222,177.62Z"/><ellipse class="cls-32" cx="50.9" cy="195.86" rx="7.35" ry="15.47" transform="translate(-113.01 77.17) rotate(-39.52)"/><path class="cls-33" d="M62.2,204.81c.42-3.5-1.64-8.79-5.63-13.62-4.42-5.36-9.84-8.51-13.4-8.11-.42,3.49,1.65,8.78,5.64,13.62C53.23,202.06,58.65,205.21,62.2,204.81Z"/><path class="cls-34" d="M159.59,231.25c-1.62-3.72,3.41-9.5,11.25-12.92s15.49-3.16,17.11.56-3.41,9.51-11.24,12.92S161.21,235,159.59,231.25Z"/><path class="cls-35" d="M185.48,216.67c-3.24-1.37-8.9-.84-14.64,1.66-6.37,2.78-10.89,7.12-11.49,10.65,3.25,1.37,8.9.84,14.65-1.67C180.37,224.54,184.89,220.19,185.48,216.67Z"/><path class="cls-36" d="M211.71,56.92c-1.67,2.63-7.52,1.91-13.05-1.6s-8.67-8.5-7-11.13,7.51-1.91,13,1.6S213.38,54.29,211.71,56.92Z"/><path class="cls-37" d="M191.31,46.72c.52,2.65,3.29,6,7.35,8.6,4.5,2.86,9.21,3.86,11.7,2.73-.52-2.65-3.29-6-7.35-8.6C198.51,46.59,193.81,45.58,191.31,46.72Z"/><path class="cls-38" d="M234.39,141.27c-3.11-.16-5.36-5.6-5-12.15s3.12-11.72,6.23-11.57,5.37,5.6,5,12.15S237.5,141.42,234.39,141.27Z"/><path class="cls-39" d="M233.22,118.49c-2.05,1.76-3.62,5.83-3.86,10.63-.27,5.33,1.17,9.92,3.39,11.53,2.05-1.76,3.62-5.83,3.86-10.63C236.88,124.69,235.44,120.1,233.22,118.49Z"/><path class="cls-40" d="M66.64,191.52c1.22-1.73,5.18-1.05,8.82,1.53s5.62,6.08,4.39,7.81-5.18,1-8.83-1.53S65.41,193.25,66.64,191.52Z"/><path class="cls-41" d="M80.18,199.15c-.27-1.82-2-4.21-4.72-6.1-3-2.1-6.13-2.94-7.87-2.25.27,1.82,2,4.21,4.71,6.1C75.27,199,78.44,199.84,80.18,199.15Z"/><path class="cls-42" d="M84.58,101.25c3.46,1.29,5,5.72,3.45,9.91s-5.62,6.55-9.08,5.27-5-5.72-3.45-9.91S81.12,100,84.58,101.25Z"/><path class="cls-43" d="M81.78,116.71A8.33,8.33,0,0,0,88,111.16c1.26-3.41.47-7-1.73-8.88a8.32,8.32,0,0,0-6.24,5.55C78.8,111.23,79.58,114.81,81.78,116.71Z"/><path class="cls-44" d="M117.9,45.48c.55,2.05-2.5,4.65-6.82,5.81s-8.26.43-8.81-1.62,2.5-4.65,6.82-5.81S117.35,43.43,117.9,45.48Z"/><path class="cls-45" d="M103.37,51c1.58,1,4.54,1.12,7.71.27,3.51-.94,6.19-2.84,6.77-4.61-1.58-1-4.54-1.13-7.71-.28C106.63,47.34,104,49.24,103.37,51Z"/><path class="cls-46" d="M198.79,94.35c-2.6.94-5.7-1-6.92-4.33s-.09-6.82,2.51-7.77,5.69,1,6.91,4.33S201.39,93.4,198.79,94.35Z"/><path class="cls-47" d="M192.63,83.49a6.77,6.77,0,0,0-.76,6.53c1,2.71,3.23,4.5,5.43,4.56a6.72,6.72,0,0,0,.75-6.52C197.06,85.35,194.83,83.56,192.63,83.49Z"/><path class="cls-48" d="M31.41,86.16c3.93,1,5.34,8.57,3.16,16.83s-7.12,14.12-11,13.08-5.34-8.57-3.16-16.83S27.49,85.12,31.41,86.16Z"/><path class="cls-49" d="M26.8,115.52c3.09-1.7,6.18-6.47,7.77-12.53,1.78-6.72,1.17-13-1.23-15.61-3.08,1.7-6.17,6.46-7.77,12.53C23.8,106.63,24.4,112.86,26.8,115.52Z"/><path class="cls-50" d="M217.51,155.23c1.65.73,2,3.69.68,6.61s-3.66,4.71-5.32,4-2-3.69-.68-6.61S215.85,154.51,217.51,155.23Z"/><path class="cls-51" d="M216.53,144.57c1,.44,1.19,2.24.42,4s-2.23,2.87-3.24,2.43-1.19-2.24-.42-4S215.52,144.13,216.53,144.57Z"/><path class="cls-52" d="M105.12,208.48c-.9,1.8-4.22,2-7.4.38s-5-4.35-4.14-6.16,4.22-2,7.41-.38S106,206.67,105.12,208.48Z"/><path class="cls-53" d="M114.37,210.61c-.55,1.09-2.55,1.19-4.48.23s-3-2.63-2.5-3.72,2.55-1.2,4.48-.23S114.91,209.51,114.37,210.61Z"/><path class="cls-54" d="M62.06,191.76c-.72.69-2.29.21-3.5-1.06s-1.6-2.86-.88-3.54,2.28-.21,3.49,1.06S62.78,191.08,62.06,191.76Z"/><path class="cls-55" d="M193.08,57.66c-1,1-3.32.31-5.08-1.54S185.67,52,186.72,51s3.32-.31,5.08,1.54S194.13,56.67,193.08,57.66Z"/><path class="cls-56" d="M197,65.74c-.68.65-2.17.2-3.32-1s-1.53-2.72-.85-3.38,2.18-.19,3.33,1S197.71,65.09,197,65.74Z"/><path class="cls-57" d="M144.1,231.87c-.06,1.81-2.7,3.19-5.89,3.09s-5.73-1.65-5.67-3.46,2.69-3.19,5.88-3.09S144.16,230.06,144.1,231.87Z"/><path class="cls-58" d="M153.63,227c0,1.1-1.64,1.94-3.58,1.88s-3.48-1-3.45-2.11,1.64-1.94,3.58-1.88S153.67,225.91,153.63,227Z"/><path class="cls-59" d="M129.71,226.46c0,1.1-1.64,1.94-3.58,1.88s-3.49-1-3.45-2.11,1.63-1.94,3.57-1.88S129.74,225.36,129.71,226.46Z"/><path class="cls-60" d="M40.89,85.25c-1.5-1-1.3-4,.47-6.63s4.41-4,5.92-3,1.3,4-.46,6.63S42.4,86.24,40.89,85.25Zm2.74,8.83c1.07-1.62,1.2-3.42.28-4s-2.53.21-3.6,1.83-1.2,3.43-.28,4S42.56,95.7,43.63,94.08ZM56.66,74c1.07-1.62,1.2-3.42.28-4s-2.53.21-3.6,1.83-1.2,3.42-.28,4S55.59,75.63,56.66,74Zm75.06-31.07c-.63-1.7,1.3-4,4.3-5.07s5.93-.61,6.55,1.08-1.3,4-4.29,5.07S132.34,44.64,131.72,42.94Zm19.36.29c1.82-.67,3-2,2.61-3.09s-2.16-1.32-4-.66-3,2.05-2.61,3.09S149.25,43.9,151.08,43.23Z"/></g></g></svg>