<svg xmlns="http://www.w3.org/2000/svg" xmlns:xlink="http://www.w3.org/1999/xlink" viewBox="0 0 700 500"><defs><style>.cls-1{isolation:isolate;}.cls-2{fill:#ed1c24;}.cls-3{fill:#f1e10a;}.cls-3,.cls-4{opacity:0.6;}.cls-4{fill:#f3e235;}.cls-5{fill:#eac076;}.cls-14,.cls-21,.cls-23,.cls-5,.cls-6{mix-blend-mode:screen;}.cls-6{fill:#e7f6fd;}.cls-7{fill:#626467;}.cls-8{fill:url(#linear-gradient);}.cls-9{fill:#3a3c3f;}.cls-10{fill:#b3b5b8;opacity:0.9;}.cls-10,.cls-13,.cls-26{mix-blend-mode:multiply;}.cls-11{fill:url(#linear-gradient-2);}.cls-12,.cls-13{fill:#008ed0;}.cls-14,.cls-17{fill:#fff;}.cls-15{fill:#083879;}.cls-16{fill:#c2c4c6;}.cls-18{fill:url(#linear-gradient-3);}.cls-19{fill:#ff0026;}.cls-20{fill:#ecb020;}.cls-21{fill:#c9e9eb;opacity:0.7;}.cls-22{fill:url(#radial-gradient);}.cls-24{fill:url(#radial-gradient-2);}.cls-25{fill:url(#radial-gradient-3);}.cls-26{fill:#dedfe0;}.cls-27{fill:#fff2bb;opacity:0.5;}</style><linearGradient id="linear-gradient" x1="628.85" y1="-112.78" x2="636.97" y2="-44.96" gradientTransform="translate(111.84 -317.52) rotate(68.52)" gradientUnits="userSpaceOnUse"><stop offset="0.46" stop-color="#e5e0df"/><stop offset="1" stop-color="#8ca99c"/></linearGradient><linearGradient id="linear-gradient-2" x1="588.8" y1="-112.78" x2="596.93" y2="-44.97" xlink:href="#linear-gradient"/><linearGradient id="linear-gradient-3" x1="524.66" y1="-302.58" x2="696.28" y2="-302.58" xlink:href="#linear-gradient"/><radialGradient id="radial-gradient" cx="602" cy="-217.76" r="29.67" gradientTransform="translate(111.84 -317.52) rotate(68.52)" gradientUnits="userSpaceOnUse"><stop offset="0.15" stop-color="#21687e"/><stop offset="0.49" stop-color="#023f5f"/><stop offset="0.98"/></radialGradient><radialGradient id="radial-gradient-2" cx="593.44" cy="-217.75" r="28.13" gradientTransform="translate(111.84 -317.52) rotate(68.52)" gradientUnits="userSpaceOnUse"><stop offset="0.29" stop-color="#fff"/><stop offset="0.69" stop-color="#6c6c6c"/><stop offset="1"/></radialGradient><radialGradient id="radial-gradient-3" cx="593.43" cy="-217.76" r="28.15" xlink:href="#radial-gradient-2"/></defs><g class="cls-1"><g id="Layer_2" data-name="Layer 2"><path class="cls-2" d="M72.9,358c2.35-.66,4.63-1.53,7-2.29,4.31-1.39,8.9-2.24,13.25-3.45,7.36-2,44.12-13.15,55.16-16.65,14.24-4.52,28.65-8.41,42.94-12.64,6.18-1.84,34.49-9.46,34.11-9.24-9.33,5.58-20.19,8.05-30.14,12.43,1.38-.3,2.76-.6,4.15-.88,29.5-7.59,58.16-19.47,87.53-27.89.5-.14-13.11,6.31-19.75,9.21,5.71-1.5,11.51-3.1,17.08-5s16.95-4.82,16.5-4.66c-10.39,3.72-20.81,7.45-31,11.7q13.71-3.48,27.43-7.31c17.1-4.77,34.3-8.77,51.39-13.54,13.92-3.87,28.49-8.25,41.11-15.41s21.19-17.12,23.58-27.93c6.31-28.63-21.2-55.24-58.12-48.25C343,198.47,318.45,207.33,307.28,213c-9.47,4.85-31.48,18.32-40.59,23.63q-5.4,3.14-10.78,6.32c-11.29,7.45-22.9,14.73-33.35,22.88,12.52-6.12,37.54-19.38,37.15-19.09a140.17,140.17,0,0,1-15.33,9.64c-6,3.42-11.68,7.13-17.45,10.77-5.39,3.39-10.75,6.84-16.3,10.05-5,2.88-10,5.72-14.79,8.87,14-5.53,50.67-21.61,50.15-21.33q-4.19,2.21-8.46,4.29c-9.82,4.95-19.68,9.87-29.39,15-12.23,6.48-24.13,13.44-36.28,20.07-18.2,9.91-36.6,19.61-54.62,29.78,18.77-8.23,57.17-24.43,56.63-24.16-22.3,11.12-44,23.18-66.95,33.29C95.63,348,84.13,352.81,72.9,358Z"/><path class="cls-3" d="M403,219.49c2,4.56,5.14,9.06,4.82,14.42-.31,5.19-1.1,10.34-4.1,15.62a56.08,56.08,0,0,1-15.26,16.59,105.89,105.89,0,0,1-10.27,6.61c-2.81,1.56-6,2.68-8.69,4.31-.16.11.12.13.22.08,3.23-1.67,6.93-2.74,10.25-4.37a79.84,79.84,0,0,0,10.27-6.25A58.81,58.81,0,0,0,406,249.87c7.11-11.11,3.64-22.27-2.58-30.52C403.34,219.26,403,219.36,403,219.49Z"/><path class="cls-3" d="M372.61,198.67c-3.05-.07-6.17,0-9.22.15a118.3,118.3,0,0,0-37.25,8c-.24.1-.08.21.11.13a128.68,128.68,0,0,1,36.05-6.58,86.26,86.26,0,0,1,16.89.66c2.82.46,5.55,1,8.26,1.6A49.51,49.51,0,0,0,372.61,198.67Z"/><path class="cls-3" d="M340.91,298.75c4.77-1,9.56-1.79,14.32-2.91s9.35-2.61,13.92-4.11A131.51,131.51,0,0,0,395.2,279.6c8.24-5,15.39-10.72,20.25-17.68,4.62-6.62,8-13.8,8.78-20.61,0-.17-.54-.06-.58.09-3,13.49-16,27.53-31.17,36.91a144.15,144.15,0,0,1-24.38,12.1c-9,3.4-18,5.51-27.22,8C340.4,298.51,340.42,298.84,340.91,298.75Z"/><path class="cls-3" d="M402.52,201a48.5,48.5,0,0,1,7.91,8.69,37,37,0,0,1,5.23,8.2,38.74,38.74,0,0,1,1.46,3.63,22.09,22.09,0,0,1,2,7.2,32.19,32.19,0,0,1-.08,5c1.33-6.05,1.8-11.84,0-17.33-2-5.94-6.44-10.95-11.41-15.27-5.2-4.52-12.81-7.29-20.58-9.18-1.86-.45-3.76-.84-5.7-1.15A50.37,50.37,0,0,1,402.52,201Z"/><path class="cls-3" d="M305.25,207.52c2.17-1.2,4.53-2,6.81-3,2.58-1.13,5.1-2.31,7.75-3.31,5.15-2,10.33-3.64,15.57-5.3a210.07,210.07,0,0,1,30.56-7.4c.36,0,1-.49.36-.49a78.67,78.67,0,0,0-15.1,1.11,141.29,141.29,0,0,0-16.37,4.56c-5.68,1.85-11,4-16.5,6.37A74.41,74.41,0,0,0,311,204c-2,1.18-4.26,2.08-6.22,3.37C304.42,207.59,305,207.63,305.25,207.52Z"/><path class="cls-3" d="M294.58,304.07c5.07-1.48,10.54-2.07,15.67-3.1q9.17-1.82,18.32-3.74c12.12-2.56,24.39-5.32,36.22-9.72.82-.3.45-.73-.24-.6-5.95,1.19-11.85,3-17.76,4.52q-9.17,2.31-18.32,4.37c-6.1,1.36-12.19,2.7-18.29,4.15-5.15,1.23-10.65,2.13-15.7,3.85C294.12,303.93,294.27,304.16,294.58,304.07Z"/><path class="cls-3" d="M253.09,242.1c17.82-10.35,36.29-19.8,53.65-30.73.8-.49-.43-.62-.88-.45-9.56,3.54-18.2,9.25-26.81,14.28-9,5.31-18.05,10.74-26.38,16.75C252.37,242.18,252.89,242.21,253.09,242.1Z"/><path class="cls-3" d="M161.25,302.79c7.56-4.53,15.26-8.9,22.8-13.45s14.4-9.47,21.44-14.35c4.22-2.91,8.39-5.88,12.51-8.87q-10.45,6-20.63,12.25c-4.8,3.38-9.6,6.75-14.56,10-7.33,4.78-14.73,9.48-22,14.29C160.42,302.85,161,302.92,161.25,302.79Z"/><path class="cls-3" d="M71,349.86c15.8-7.36,31.62-14.75,46.75-23.17,7.41-4.12,14.91-8.07,22.23-12.29,6.86-4,14-8.32,19.79-13.23.61-.52-.54-.44-.92-.19-28.43,17.36-58.29,33.24-88.13,48.75C70.39,349.89,70.78,350,71,349.86Z"/><path class="cls-3" d="M127.4,345.26c-5.56,1.9-11.16,3.6-16.72,5.54-3.44,1.22-6.89,2.38-10.35,3.52-6.28,2.35-12.54,4.81-18.78,7.29,1.58-.35,3.15-.71,4.72-1.12,7.67-2,15.3-4.25,22.88-6.72,7.29-2.37,14.7-4.54,21.93-7.14,5.31-1.91,10.61-3.93,15.9-6C140.42,341.85,133.9,343.41,127.4,345.26Z"/><path class="cls-3" d="M142.05,346.27c4.13-1.42,8.33-2,12.5-3,4.77-1.15,9.52-2.31,14.27-3.58,9.79-2.63,19.59-5.19,29.38-7.85s19.33-5.44,29-8.34,19-6.56,28.51-10c.4-.14.24-.4-.12-.3-9.64,2.82-19.33,5-28.95,7.94-9.87,2.95-19.74,5.83-29.65,8.57-9.61,2.68-19.23,5.39-28.79,8.33q-7,2.16-14,4.3c-4.11,1.24-8.3,2-12.33,3.67C141.44,346.19,141.72,346.37,142.05,346.27Z"/><path class="cls-3" d="M212,329.8a56.17,56.17,0,0,1,6.84-1.63c2.24-.48,4.47-.89,6.7-1.3,4.95-.87,9.88-1.9,14.82-3,10.41-2.25,20.8-4.69,31.2-7.1,20.13-4.67,40.55-9.19,60.52-15.12.68-.2.36-.59-.18-.47-20.55,4.37-41,9.33-61.54,14.1-10.39,2.41-20.79,4.87-31.19,7.25l-15.62,3.57a65.47,65.47,0,0,0-11.81,3.47C211.35,329.75,211.72,329.89,212,329.8Z"/><path class="cls-3" d="M29.35,370.68c3.91-1.89,7.27-4.42,10.92-6.64,4.17-2.53,8.33-5.05,12.57-7.48,8.76-5,17.46-10.1,26.25-15.08s17.48-9.72,26.33-14.45,18.08-8.72,27.21-13c.38-.17.46.12.13.29-8.79,4.78-17.18,10-26,14.72q-13.57,7.24-27,14.74c-8.67,4.87-17.36,9.7-26.19,14.33l-12.91,6.79c-3.78,2-7.29,4.38-11.28,6.08C29,371.16,29,370.83,29.35,370.68Z"/><path class="cls-3" d="M154.6,300a49.44,49.44,0,0,0,5.9-3.73c1.9-1.23,3.74-2.54,5.56-3.84,4-2.88,8.19-5.67,12.37-8.42,8.81-5.81,17.75-11.49,26.67-17.17,17.27-11,34.64-22.34,52.76-32.4.62-.35.7.16.24.46-17.35,11.51-35.07,22.56-52.68,33.8-8.93,5.69-17.88,11.35-26.78,17.07q-5.25,3.38-13.38,8.58c-3.26,2.07-7,4.55-10.67,6C154.22,300.47,154.38,300.13,154.6,300Z"/><path class="cls-3" d="M406,187.52a85.13,85.13,0,0,0-28.34-6.8c-11.69-.62-24.66,1.34-36.85,4.71C327.81,189,314.55,196.61,303,203c-12.57,6.95-24.5,14.81-37.29,21.46-.23.12.18.34.38.24,10.13-4.89,19.54-10.93,29.18-16.49A235.32,235.32,0,0,1,334,190.66c25.6-9.06,50.25-9.56,71.6-2.85C405.91,187.9,406.27,187.65,406,187.52Z"/><path class="cls-3" d="M413,274l.09-.09c11.52-11.16,20.11-25.47,20.63-38a49.44,49.44,0,0,0-2.17-16.95A34.25,34.25,0,0,0,421,203.65c-.14-.12-.8-.07-.58.16,8.11,8.69,13.2,22,10.43,34.54-3,13.54-10.13,26.14-22.81,37.55-12.42,11.17-28.32,18.08-44.38,24.72-16.78,6.93-34.24,11.47-51.59,16.08-.33.08.07.38.3.32,19.25-4.78,38.26-10.21,56.89-17.62C385.1,293.11,401.38,285.15,413,274Z"/><path class="cls-4" d="M330.75,282.61c-2.44,1.14-4.88,2.27-7.35,3.35-5.67,2.5-12.33,4.29-17.94,7.08,4.1-.73,8.19-1.19,12.27-1.63,22-6.09,44-11.31,64.79-21.65,10.49-5.22,20.6-12.14,25.83-20.73,5.09-8.35,5.09-15.9,3.19-23.59-3.59-14.59-18.75-24.24-38-26.05-9.52-.89-22.62,1-32.68,3.89a147.92,147.92,0,0,0-17.55,6.2A92.26,92.26,0,0,0,306.2,218c-.9.6.67,1.14,1.26,1,5.56-1.19,11-3.15,16.58-4.22,4.73-.91,9.57-1.73,14.3-2.17-3.23.6-6.45,1.06-9.68,2-5.42,1.53-10.7,3.32-16,5.3-10.06,3.76-21.15,8.19-29.91,14.11-1,.69.76,1.19,1.37,1.11,4.47-.65,9.77-3.15,14.24-4.44a152,152,0,0,1,15.59-3.8,163.3,163.3,0,0,0-17.05,5.72c-7.72,3.18-15.38,6.92-22.78,10.68-7.62,3.87-14.92,8.16-22.4,12.24-4.22,2.3-10.67,5-13.4,8.57-.51.68.84,1,1.43.9,4.42-.52,10.3-3.51,14.61-5a251,251,0,0,1,25.43-7c.75-.17,1.5-.32,2.25-.48-1.06.5-2.13,1-3.2,1.49-10.57,5-20.84,11.08-31,16.67-11.8,6.49-23.44,13.21-34.95,20.06-5.61,3.34-11.22,6.7-16.72,10.17-3,1.93-7.35,4-9.48,6.6-.62.76,1,1.07,1.61,1a33.88,33.88,0,0,0,8.93-2.58c4.49-1.78,9.27-3,13.88-4.34,10.47-3.05,20.92-5.7,31.27-9.31,4-1.42,8-2.91,12-4.41-3.17,1.49-6.33,3-9.52,4.47-4.4,2-10.67,3.92-14.21,7-.37.31-.17.65.17.8,2.59,1.08,7.52-1.19,10.39-2.15,5.3-1.76,10.67-3.23,16.08-4.59-9.13,3.74-18.35,7.61-27.27,11.69,4.07-.84,8.14-1.55,12.22-2.27,5.48-1.75,11-3.68,16.33-5.2,4.9-1.37,9.78-2.71,14.66-4l-11.63,4.69c-4.58,1.86-9.85,3.53-14.25,6,10-2.23,20.06-4.78,30.09-7.05,7.8-2,15.58-3.74,23.44-5.61a273.15,273.15,0,0,0,28.25-8.51C329.69,283,330.22,282.78,330.75,282.61Z"/><path class="cls-5" d="M381.82,264.17c12-5.54,19.61-13.86,23.48-23.45a19,19,0,0,0,1.41-7.26,8.68,8.68,0,0,0,.48,1.25c.06.13.61.18.55-.05-.65-2.63-.05-4.85-1.22-7.33A70.39,70.39,0,0,0,401,218a26.44,26.44,0,0,0-4.76-5.39,28.12,28.12,0,0,0-5.58-4.26c-9.94-3.26-21-5.16-32.31-3.83a93,93,0,0,0-12.65,3.81,51.69,51.69,0,0,1,23.18,3.06,79.33,79.33,0,0,0-18.8,0l-1.67.2c-9.33,1.74-18.58,5.92-27,11a156.73,156.73,0,0,1,18.85-2.87c7.46-.59,17.49-1,24.39.75-2,.09-3.93,0-6,.15q-5.5.48-11.08,1.34c-8.9,1.37-17.51,4.58-25.94,8.16-.4.19-.8.35-1.2.52a258.47,258.47,0,0,0-36.14,22.8,1.57,1.57,0,0,0,.69,0c5.59-2,10.71-4.23,16.49-5.63,4.93-1.18,10.76-2,15.56-3.64,1.12-.39,3.15-.58,3.78-.86-2.76,1.21-5.93,1.91-8.78,2.87A163.82,163.82,0,0,0,295,253.22a253.22,253.22,0,0,0-29.68,16.59c-2.37,1.52-14.92,8-14.94,10.67a.78.78,0,0,0,.7.72c3.45.74,9.64-1.24,13.35-2,9.81-2,19.58-3.82,29.39-5.66,6.06-1.13,12.1-2.49,18.12-4l-1,.44c-3.81,1.6-7.52,3.61-11.2,5.46-3.95,2-8.22,3.59-11.93,5.89-.4.23-.41.46-.25.67,2.77,0,5.59-.15,8.43-.43,3.88-.87,7.89-2.12,11.4-2.94,9.12-2.16,18.23-4.1,27.31-6.68a207.25,207.25,0,0,0,21-7.32c-5.27,3.56-10.57,7.06-15.75,10.69,2.52-.14,5-.22,7.54-.32,3.29-.6,6.59-1.22,9.88-1.9A162.91,162.91,0,0,0,381.82,264.17Z"/><path class="cls-6" d="M400,246c3.39-6.46,4.32-13.5,2.29-19.29-.46-1.06-.94-2.08-1.42-3s-.95-1.71-1.46-2.53a32.57,32.57,0,0,0-8.21-8.32,32.92,32.92,0,0,0-3.61-2.11,39.46,39.46,0,0,0-7.7-2.7c8,2.9,14.34,8.36,16.88,14.48a27.34,27.34,0,0,1,.36,21,31.18,31.18,0,0,1-7.47,12.24c-.16.15.31.31.47.17a82.25,82.25,0,0,0,9.58-9.47C399.81,246.29,399.92,246.12,400,246Z"/><path class="cls-7" d="M439.52,238.55l-4.26-10.84s-18.86-4.23-41.17,5.18a51.25,51.25,0,0,0,11.78,29.93C428.61,254.51,439.52,238.55,439.52,238.55Z"/><path class="cls-8" d="M431.15,247.63a56.9,56.9,0,0,0,8.37-9.08l-4.26-10.84a58.36,58.36,0,0,0-12.58-.92A62.41,62.41,0,0,0,431.15,247.63Z"/><path class="cls-9" d="M398.45,231.21c-.62.21-1.25.44-1.87.69a51.5,51.5,0,0,0,3.58,14.55,73.16,73.16,0,0,0,8.39,15.33l1.79-.75C400.42,247.09,398.73,235.24,398.45,231.21Z"/><path class="cls-9" d="M404.38,229.38c-.63.16-1.25.33-1.88.53a52,52,0,0,0,3.55,14.22,72.78,72.78,0,0,0,8.19,15.05c.58-.28,1.14-.58,1.7-.88C406.63,245.06,404.75,233.77,404.38,229.38Z"/><path class="cls-9" d="M424.8,252.76l1.53-1.14c-6.83-10.39-9.11-19.38-9.88-24.45-.63.06-1.27.14-1.93.22a54.59,54.59,0,0,0,3.31,12.1A71.23,71.23,0,0,0,424.8,252.76Z"/><path class="cls-9" d="M410.37,228c-.63.11-1.26.23-1.9.37a52.88,52.88,0,0,0,3.47,13.4,72.38,72.38,0,0,0,7.71,14.37l1.62-1C413.05,243.17,410.91,232.87,410.37,228Z"/><path class="cls-9" d="M429.7,248.9c.5-.42,1-.85,1.45-1.27a62.41,62.41,0,0,1-8.47-20.84l-2,.06a56,56,0,0,0,3,10.33A70,70,0,0,0,429.7,248.9Z"/><path class="cls-10" d="M439.52,238.55l-4.26-10.84s-18.86-4.23-41.17,5.18c0,0,0,.51.05,1.41,5.1-2.35,11-3.13,16.39-4.27,3.58-.76,12.21-2.33,13.83,2.81,1.78,5.67-21.58,13.53-26.85,15.79l.06.17a44.71,44.71,0,0,0,8.3,14C428.61,254.51,439.52,238.55,439.52,238.55Z"/><path class="cls-10" d="M439.52,238.55,437.34,233c-9.7,10.42-22.73,18.1-35.79,23.94a36.32,36.32,0,0,0,4.32,5.89C428.61,254.51,439.52,238.55,439.52,238.55Z"/><path class="cls-7" d="M424.86,201.29l-4.26-10.83s-18.86-4.24-41.17,5.17a44.57,44.57,0,0,0,3.49,15.92,44.45,44.45,0,0,0,8.29,14C414,217.25,424.86,201.29,424.86,201.29Z"/><path class="cls-11" d="M416.49,210.37a56.9,56.9,0,0,0,8.37-9.08l-4.26-10.83a58.58,58.58,0,0,0-12.59-1A62.82,62.82,0,0,0,416.49,210.37Z"/><path class="cls-9" d="M383.79,193.94c-.62.22-1.24.46-1.87.7a51.5,51.5,0,0,0,3.58,14.55,73.38,73.38,0,0,0,8.39,15.33l1.79-.75C385.75,209.83,384.07,198,383.79,193.94Z"/><path class="cls-9" d="M389.72,192.11l-1.89.53a52.25,52.25,0,0,0,3.57,14.23,72.27,72.27,0,0,0,8.18,15.06c.58-.29,1.14-.59,1.7-.89C392,207.8,390.09,196.52,389.72,192.11Z"/><path class="cls-9" d="M410.14,215.5c.53-.38,1-.77,1.54-1.14-6.84-10.39-9.12-19.38-9.89-24.45l-1.93.22a54.79,54.79,0,0,0,3.31,12.11A71.49,71.49,0,0,0,410.14,215.5Z"/><path class="cls-9" d="M395.71,190.77c-.63.12-1.26.24-1.9.38a53.14,53.14,0,0,0,3.47,13.41A72.06,72.06,0,0,0,405,218.92c.55-.33,1.09-.68,1.62-1C398.39,205.9,396.26,195.61,395.71,190.77Z"/><path class="cls-9" d="M415,211.64c.5-.43,1-.85,1.45-1.27A62.82,62.82,0,0,1,408,189.51l-2,.08a56.21,56.21,0,0,0,3,10.33A69.64,69.64,0,0,0,415,211.64Z"/><path class="cls-10" d="M424.86,201.29l-4.26-10.83s-18.86-4.24-41.17,5.17c0,0,0,.51.05,1.42,5.1-2.37,11-3.13,16.39-4.28,3.59-.75,12.22-2.32,13.83,2.8,1.79,5.69-21.58,13.53-26.85,15.8l.07.18a44.45,44.45,0,0,0,8.29,14C414,217.25,424.86,201.29,424.86,201.29Z"/><path class="cls-10" d="M424.86,201.29l-2.18-5.55c-9.7,10.42-22.72,18.1-35.79,23.93a36.32,36.32,0,0,0,4.32,5.89C414,217.25,424.86,201.29,424.86,201.29Z"/><path class="cls-12" d="M465.61,146.05s-12-14.92-30.67-9-63.49,54-55.26,53.1,47.93-14.48,47.93-14.48Z"/><path class="cls-13" d="M457.55,144.24a.72.72,0,0,1-.36,1.26c-16.65.85-32.33,9.69-46.21,18.29a147.38,147.38,0,0,0-32,26.28,1.1,1.1,0,0,0,.69.1c8.23-.91,47.93-14.48,47.93-14.48l38-29.64s-12-14.92-30.67-9a24.86,24.86,0,0,0-3.15,1.28C440.71,136.55,450.16,138.17,457.55,144.24Z"/><path class="cls-14" d="M404.69,164.68c4.95-4,10-8.06,14.55-12.5,3.61-3.5,6.47-7.64,9.71-11.47l-.07,0C415.17,149.48,396.39,168,387,179.49,392.67,174.31,398.73,169.54,404.69,164.68Z"/><path class="cls-15" d="M502.59,240s1.38,19.08-16.33,27.47-83.28,3.72-76.63-1.21,44.95-22.06,44.95-22.06Z"/><path class="cls-13" d="M409.32,267.4c.51-.1,1-.21,1.54-.34,4.32-1,8.61-2.18,12.88-3.38,7.55-2.14,15.11-4.16,22.78-5.82,15.23-3.29,31.27-6.77,46.91-6.33a.69.69,0,0,1,.59.79c-1.57,7.29-5.8,12.46-11.21,16.47a24.31,24.31,0,0,0,3.45-1.29C504,259.11,502.59,240,502.59,240l-48,4.2s-38.31,17.12-44.95,22.06C409.12,266.66,409,267,409.32,267.4Z"/><path class="cls-16" d="M563.09,220.83c23.59-10.23,32.39-16,34.28-17.4,20-11.17,60.74-68.6,62.86-73a9.22,9.22,0,0,0-5-12.58c-4.55-1.78-73.54-16-95.76-10.6-2.31.28-12.71,2-36.95,10.61C494.84,127.69,427.69,161.57,410,185c0,0,1.42,13.24,9.71,32.75,7.23,19.92,15.21,30.58,15.21,30.58C463.86,253.5,536.09,232.54,563.09,220.83Z"/><path class="cls-15" d="M487.79,198.13a12.25,12.25,0,0,0,.15-3.72L485.81,189a16.17,16.17,0,0,0-1.89-2.49c-2.7-1.8-9.75-4-25.88,3.06-17.73,7.76-67.2,37.87-64.13,38.53-1.8,2.57,55.17-8.44,73.18-15.51C482,206.75,486.47,201.31,487.79,198.13Z"/><path class="cls-12" d="M481.91,193a5.72,5.72,0,0,0,.37-2l-1.07-2.72a5.76,5.76,0,0,0-1.13-1.19c-1.72-.76-6.43-1.41-18.07,3.53-12.8,5.43-49.13,25.08-47.06,25.2-1.43,1.51,38.67-8.54,51.61-13.62C477.24,198,480.76,194.76,481.91,193Z"/><path class="cls-17" d="M449,199.68c9.39-4.06,18.66-9.1,28.47-12.21-2.85.15-7.28,1.12-14.09,4-6.22,2.64-18,8.62-28.19,14.1C439.78,203.61,444.4,201.66,449,199.68Z"/><path class="cls-18" d="M660.5,123.06a8.66,8.66,0,0,0-5.22-5.21c-4.44-1.74-69.94-15.29-93.9-11a182.84,182.84,0,0,0,12.24,50.37A182.33,182.33,0,0,0,599,202.44c20.46-13.18,59.17-67.73,61.24-72A8.68,8.68,0,0,0,660.5,123.06Z"/><path class="cls-19" d="M660.5,123.06a8.66,8.66,0,0,0-5.22-5.21c-4.44-1.74-69.94-15.29-93.9-11a182.84,182.84,0,0,0,12.24,50.37A182.33,182.33,0,0,0,599,202.44c20.46-13.18,59.17-67.73,61.24-72A8.68,8.68,0,0,0,660.5,123.06Z"/><path class="cls-17" d="M558.61,115.09a2.27,2.27,0,1,1,1.29-3A2.26,2.26,0,0,1,558.61,115.09Z"/><path class="cls-17" d="M569.58,161.34a2.27,2.27,0,1,1,1.28-2.94A2.27,2.27,0,0,1,569.58,161.34Z"/><path class="cls-17" d="M593.75,202.41a2.27,2.27,0,1,1,1.29-2.94A2.27,2.27,0,0,1,593.75,202.41Z"/><path class="cls-17" d="M579.56,182.71a2.27,2.27,0,1,1,1.28-3A2.29,2.29,0,0,1,579.56,182.71Z"/><path class="cls-17" d="M562.33,138.91a2.27,2.27,0,1,1,1.28-2.94A2.27,2.27,0,0,1,562.33,138.91Z"/><path class="cls-20" d="M539,198a23.24,23.24,0,1,1,13.11-30.13A23.24,23.24,0,0,1,539,198Z"/><path class="cls-21" d="M537.05,195a19.67,19.67,0,1,1,11.09-25.5A19.66,19.66,0,0,1,537.05,195Z"/><path class="cls-22" d="M536.87,192.89a17.68,17.68,0,1,1,10-22.92A17.67,17.67,0,0,1,536.87,192.89Z"/><g class="cls-23"><path class="cls-24" d="M523.42,165.89c-.19-1-.37-1.93-.53-2.9a15.71,15.71,0,0,0-7.75,10.3,15.71,15.71,0,0,1,8.2-7.37Z"/><path class="cls-25" d="M545.31,171a15.85,15.85,0,0,0-19.42-9.33c.26,1.12.51,2.24.73,3.36a15.83,15.83,0,0,1,18,19.14A15.81,15.81,0,0,0,545.31,171Z"/></g><path class="cls-14" d="M482.07,266.8s-34,8.05-65.4,1.51C416.67,268.31,451.83,270.51,482.07,266.8Z"/><path class="cls-21" d="M562.78,133.26c-.26-1-.52-2-.74-3-.68-3.29-1-6.66-1.66-10a190.46,190.46,0,0,0-35.8,10.79C486.8,146.49,452.8,169.16,418,190.17c.56,2.45,1.34,5.45,2.38,8.88,33.31-16.86,65.81-35.36,100.06-50.27A349,349,0,0,1,562.78,133.26Z"/><path class="cls-26" d="M563.09,220.83c23.59-10.23,32.39-16,34.28-17.4,20-11.17,60.74-68.6,62.86-73a8.68,8.68,0,0,0,.27-7.37l-.1-.28a314.24,314.24,0,0,1-24.88,21.52c-60.31,46.91-133.51,74.38-207,93.52a88.61,88.61,0,0,0,6.38,10.55C463.86,253.5,536.09,232.54,563.09,220.83Z"/><path class="cls-27" d="M567.16,127.5c.32,1.41.69,2.82,1.11,4.21,5.11-1.37,10.26-2.61,15.49-3.67,17.26-3.54,34.71-5.93,52.14-8.41-17-1.88-34.22-3.23-51.36-2.35a175.48,175.48,0,0,0-18.48,2A78.77,78.77,0,0,0,567.16,127.5Z"/></g></g></svg>