<svg width="800" height="600" xmlns="http://www.w3.org/2000/svg">
 <g id="Layer_1">
  <title>Layer 1</title>
  <path transform="rotate(91 192.408 428.121)" stroke="#000" id="svg_34" d="m186.36502,335.292l11.39028,52.26002l-4.69668,6.1675l14.34254,44.77538l-4.69457,7.47766l17.73038,74.97873l-30.07389,-57.45883l5.73618,-7.97943l-18.68571,-36.80293l6.69572,-11.37329l-19.72942,-38.60788l21.98517,-33.43693z" stroke-width="0" fill="#f5bc00"/>
  <path transform="rotate(91 207.408 402.122)" stroke="#000" id="svg_33" d="m201.36474,309.29248l11.39028,52.26002l-4.69668,6.1675l14.34254,44.77538l-4.69457,7.47766l17.73037,74.97873l-30.07388,-57.45883l5.73617,-7.97943l-18.68571,-36.80293l6.69572,-11.37329l-19.72941,-38.60788l21.98516,-33.43693z" stroke-width="0" fill="#f5bc00"/>
  <path transform="rotate(91 146.909 381.123)" id="svg_31" d="m136.77475,290.12447l19.09957,51.22904l-7.87553,6.04583l24.05001,43.89206l-7.872,7.33014l29.73083,73.49956l-50.4288,-56.3253l9.61859,-7.82201l-31.33276,-36.07688l11.22757,-11.14892l-33.08287,-37.84623l36.86539,-32.77729z" stroke-width="0" stroke="#000" fill="#f5bc00"/>
  <path transform="rotate(-56 227.62 286.723)" id="svg_13" d="m209.6972,361.18192c-21.60923,-8.08516 -37.09801,-33.77558 -33.57803,-55.69417c2.21959,-13.82133 49.04739,-97.72646 53.13693,-95.20978c1.33477,0.82141 13.2126,20.38321 26.39516,43.47069c21.11708,36.9837 23.96829,43.88001 23.96829,57.97303c0,28.56596 -22.95992,51.96472 -50.52806,51.49384c-8.04477,-0.13743 -16.77221,-1.05255 -19.3943,-2.0336l0,-0.00001zm21.65,-14.36763c0.71527,-3.69828 -0.95557,-5.50191 -5.0969,-5.50191c-9.43851,0 -22.53126,-11.90306 -25.45638,-23.14324c-3.12031,-11.99022 -11.39363,-13.41621 -12.61565,-2.17443c-2.35438,21.65889 39.20249,51.32755 43.16892,30.81958l0.00001,0z" stroke-width="0" stroke="#000" fill="#017b8d"/>
  <path transform="rotate(-177 299.619 422.722)" id="svg_15" d="m281.69698,497.18177c-21.60923,-8.08515 -37.098,-33.77558 -33.57803,-55.69417c2.21959,-13.82133 49.04739,-97.72646 53.13694,-95.20978c1.33477,0.82141 13.2126,20.38322 26.39516,43.47069c21.11709,36.9837 23.96829,43.88002 23.96829,57.97303c0,28.56596 -22.95992,51.96472 -50.52806,51.49384c-8.04478,-0.13743 -16.77221,-1.05255 -19.3943,-2.0336l0,-0.00001zm21.65001,-14.36762c0.71527,-3.69828 -0.95557,-5.50192 -5.0969,-5.50192c-9.43851,0 -22.53126,-11.90306 -25.45638,-23.14323c-3.12031,-11.99022 -11.39363,-13.41621 -12.61565,-2.17443c-2.35438,21.65888 39.2025,51.32755 43.16892,30.81958l0.00001,0z" stroke-width="0" stroke="#000" fill="#017b8d"/>
  <rect transform="rotate(-27 188.55 391.634)" stroke="#000" id="svg_16" height="94" width="42.56485" y="344.63421" x="167.26711" stroke-width="0" fill="#d33e43"/>
  <rect transform="rotate(-27 333 317.5)" id="svg_1" height="102" width="340" y="266.5" x="163" stroke-width="0" stroke="#000" fill="#a1a1a1"/>
  <ellipse transform="rotate(-27 329.459 267.752)" stroke="#000" ry="43.80204" rx="188.84932" id="svg_5" cy="267.75179" cx="329.45925" stroke-width="0" fill="#a1a1a1"/>
  <ellipse transform="rotate(-27 371.459 350.752)" stroke="#000" ry="43.80204" rx="188.84932" id="svg_6" cy="350.75179" cx="371.45925" stroke-width="0" fill="#a1a1a1"/>
  <path transform="rotate(-120 494.806 234.299)" stroke="#000" id="svg_7" d="m494.80589,190.89175c32.58768,-98.83374 160.2673,0 0,127.07195c-160.2673,-127.07195 -32.58768,-225.90569 0,-127.07195z" stroke-width="0" fill="#d33e43"/>
  <path transform="rotate(153 435.192 266.151)" stroke="#000" id="svg_8" d="m388.19248,189.36728l70.49996,0l23.50003,76.78326l-23.50003,76.7836l-70.49996,0l23.50002,-76.7836l-23.50002,-76.78326z" stroke-width="0" fill="#a1a1a1"/>
  <ellipse transform="rotate(50 425.5 198.5)" stroke="#000" ry="21" rx="14.5" id="svg_10" cy="198.5" cx="425.5" stroke-width="0" fill="#a1a1a1"/>
  <ellipse transform="rotate(64 482.5 315.5)" stroke="#000" ry="21" rx="14.5" id="svg_11" cy="315.5" cx="482.5" stroke-width="0" fill="#a1a1a1"/>
  <path transform="rotate(-31 482.095 316.188)" stroke="#000" id="svg_12" d="m455.76973,329.57117l0,-26.76734l52.65048,26.76734l-52.65048,0z" stroke-width="0" fill="#a1a1a1"/>
  <ellipse ry="47" rx="47.49913" id="svg_24" cy="293.00014" cx="374.50047" stroke-width="0" stroke="#000" fill="#727272"/>
  <ellipse ry="40" rx="40" id="svg_26" cy="293.00014" cx="374.50047" stroke-width="0" stroke="#000" fill="#017b8d"/>
  <text transform="rotate(-27 258.41 348.542) matrix(1.61073 0 0 1.33776 -128.254 -125.141)" stroke="#000" font-style="normal" font-weight="normal" xml:space="preserve" text-anchor="start" font-family="'Calistoga'" font-size="39" id="svg_27" y="367.92921" x="205.51912" stroke-width="0" fill="#000000">VOL</text>
 </g>

</svg>