<svg xmlns="http://www.w3.org/2000/svg" xmlns:xlink="http://www.w3.org/1999/xlink" viewBox="0 0 500 700"><defs><style>.cls-1{isolation:isolate;}.cls-2{fill:url(#radial-gradient);}.cls-3,.cls-4,.cls-5{mix-blend-mode:overlay;}.cls-3{fill:url(#radial-gradient-2);}.cls-4{fill:url(#radial-gradient-3);}.cls-5{fill:url(#radial-gradient-4);}.cls-6{opacity:0.6;}.cls-10,.cls-102,.cls-103,.cls-104,.cls-11,.cls-114,.cls-119,.cls-12,.cls-120,.cls-121,.cls-122,.cls-123,.cls-124,.cls-133,.cls-134,.cls-143,.cls-144,.cls-146,.cls-160,.cls-167,.cls-168,.cls-170,.cls-171,.cls-172,.cls-180,.cls-182,.cls-186,.cls-187,.cls-192,.cls-193,.cls-20,.cls-205,.cls-208,.cls-209,.cls-21,.cls-210,.cls-22,.cls-220,.cls-23,.cls-35,.cls-36,.cls-37,.cls-39,.cls-48,.cls-49,.cls-59,.cls-63,.cls-64,.cls-66,.cls-67,.cls-68,.cls-7,.cls-76,.cls-77,.cls-8,.cls-81,.cls-82,.cls-87,.cls-88,.cls-9,.cls-99{opacity:0.32;}.cls-10,.cls-101,.cls-102,.cls-103,.cls-104,.cls-105,.cls-106,.cls-107,.cls-108,.cls-109,.cls-11,.cls-110,.cls-111,.cls-112,.cls-113,.cls-114,.cls-116,.cls-117,.cls-118,.cls-119,.cls-12,.cls-120,.cls-121,.cls-122,.cls-123,.cls-124,.cls-125,.cls-126,.cls-127,.cls-128,.cls-129,.cls-13,.cls-130,.cls-131,.cls-132,.cls-133,.cls-134,.cls-135,.cls-136,.cls-137,.cls-138,.cls-139,.cls-14,.cls-140,.cls-141,.cls-142,.cls-143,.cls-144,.cls-145,.cls-146,.cls-147,.cls-148,.cls-149,.cls-15,.cls-150,.cls-151,.cls-152,.cls-153,.cls-154,.cls-155,.cls-156,.cls-157,.cls-158,.cls-159,.cls-16,.cls-160,.cls-161,.cls-162,.cls-163,.cls-164,.cls-165,.cls-166,.cls-167,.cls-168,.cls-169,.cls-17,.cls-170,.cls-171,.cls-172,.cls-173,.cls-174,.cls-175,.cls-176,.cls-177,.cls-178,.cls-179,.cls-18,.cls-180,.cls-181,.cls-182,.cls-183,.cls-184,.cls-185,.cls-186,.cls-187,.cls-188,.cls-189,.cls-19,.cls-190,.cls-191,.cls-192,.cls-193,.cls-195,.cls-196,.cls-197,.cls-198,.cls-199,.cls-20,.cls-200,.cls-201,.cls-203,.cls-204,.cls-205,.cls-207,.cls-208,.cls-209,.cls-21,.cls-210,.cls-211,.cls-212,.cls-213,.cls-214,.cls-215,.cls-216,.cls-217,.cls-218,.cls-219,.cls-22,.cls-220,.cls-222,.cls-223,.cls-23,.cls-24,.cls-25,.cls-26,.cls-27,.cls-28,.cls-29,.cls-30,.cls-31,.cls-32,.cls-33,.cls-34,.cls-35,.cls-36,.cls-37,.cls-38,.cls-39,.cls-40,.cls-41,.cls-42,.cls-43,.cls-44,.cls-45,.cls-46,.cls-47,.cls-48,.cls-49,.cls-50,.cls-51,.cls-52,.cls-53,.cls-54,.cls-55,.cls-56,.cls-57,.cls-58,.cls-59,.cls-60,.cls-61,.cls-62,.cls-63,.cls-64,.cls-65,.cls-66,.cls-67,.cls-68,.cls-69,.cls-7,.cls-70,.cls-71,.cls-72,.cls-73,.cls-74,.cls-75,.cls-76,.cls-77,.cls-78,.cls-79,.cls-8,.cls-80,.cls-81,.cls-82,.cls-83,.cls-84,.cls-85,.cls-86,.cls-87,.cls-88,.cls-9,.cls-90,.cls-91,.cls-92,.cls-93,.cls-94,.cls-95,.cls-97,.cls-98,.cls-99{mix-blend-mode:screen;}.cls-7{fill:url(#radial-gradient-5);}.cls-8{fill:url(#radial-gradient-6);}.cls-9{fill:url(#radial-gradient-7);}.cls-10{fill:url(#radial-gradient-8);}.cls-11{fill:url(#radial-gradient-9);}.cls-12{fill:url(#radial-gradient-10);}.cls-105,.cls-106,.cls-107,.cls-109,.cls-110,.cls-111,.cls-112,.cls-116,.cls-117,.cls-125,.cls-126,.cls-127,.cls-128,.cls-129,.cls-13,.cls-130,.cls-136,.cls-137,.cls-138,.cls-139,.cls-14,.cls-142,.cls-147,.cls-148,.cls-149,.cls-15,.cls-150,.cls-152,.cls-153,.cls-155,.cls-157,.cls-16,.cls-162,.cls-163,.cls-165,.cls-17,.cls-173,.cls-174,.cls-175,.cls-176,.cls-177,.cls-178,.cls-183,.cls-184,.cls-189,.cls-190,.cls-195,.cls-196,.cls-200,.cls-203,.cls-211,.cls-212,.cls-213,.cls-215,.cls-216,.cls-217,.cls-218,.cls-222,.cls-223,.cls-26,.cls-27,.cls-28,.cls-29,.cls-30,.cls-31,.cls-34,.cls-41,.cls-42,.cls-43,.cls-44,.cls-45,.cls-46,.cls-50,.cls-52,.cls-54,.cls-56,.cls-61,.cls-69,.cls-70,.cls-71,.cls-72,.cls-73,.cls-74,.cls-78,.cls-79,.cls-84,.cls-85,.cls-90,.cls-91,.cls-97{opacity:0.5;}.cls-13{fill:url(#radial-gradient-11);}.cls-14{fill:url(#radial-gradient-12);}.cls-15{fill:url(#radial-gradient-13);}.cls-16{fill:url(#radial-gradient-14);}.cls-17{fill:url(#radial-gradient-15);}.cls-18{fill:url(#radial-gradient-16);}.cls-19{fill:url(#radial-gradient-17);}.cls-20{fill:url(#radial-gradient-18);}.cls-21{fill:url(#radial-gradient-19);}.cls-22{fill:url(#radial-gradient-20);}.cls-23{fill:url(#radial-gradient-21);}.cls-24{fill:url(#radial-gradient-22);}.cls-25{fill:url(#radial-gradient-23);}.cls-26{fill:url(#radial-gradient-24);}.cls-27{fill:url(#radial-gradient-25);}.cls-28{fill:url(#radial-gradient-26);}.cls-29{fill:url(#radial-gradient-27);}.cls-30{fill:url(#radial-gradient-28);}.cls-31{fill:url(#radial-gradient-29);}.cls-32{fill:url(#radial-gradient-30);}.cls-33{fill:url(#radial-gradient-31);}.cls-34{fill:url(#radial-gradient-32);}.cls-35{fill:url(#radial-gradient-33);}.cls-36{fill:url(#radial-gradient-34);}.cls-37{fill:url(#radial-gradient-35);}.cls-38{fill:url(#radial-gradient-36);}.cls-39{fill:url(#radial-gradient-37);}.cls-40{fill:url(#radial-gradient-38);}.cls-41{fill:url(#radial-gradient-39);}.cls-42{fill:url(#radial-gradient-40);}.cls-43{fill:url(#radial-gradient-41);}.cls-44{fill:url(#radial-gradient-42);}.cls-45{fill:url(#radial-gradient-43);}.cls-46{fill:url(#radial-gradient-44);}.cls-47{fill:url(#radial-gradient-45);}.cls-48{fill:url(#radial-gradient-46);}.cls-49{fill:url(#radial-gradient-47);}.cls-50{fill:url(#radial-gradient-48);}.cls-51{fill:url(#radial-gradient-49);}.cls-52{fill:url(#radial-gradient-50);}.cls-53{fill:url(#radial-gradient-51);}.cls-54{fill:url(#radial-gradient-52);}.cls-55{fill:url(#radial-gradient-53);}.cls-56{fill:url(#radial-gradient-54);}.cls-57{fill:url(#radial-gradient-55);}.cls-58{fill:url(#radial-gradient-56);}.cls-59{fill:url(#radial-gradient-57);}.cls-60{fill:url(#radial-gradient-58);}.cls-61{fill:url(#radial-gradient-59);}.cls-62{fill:url(#radial-gradient-60);}.cls-63{fill:url(#radial-gradient-61);}.cls-64{fill:url(#radial-gradient-62);}.cls-65{fill:url(#radial-gradient-63);}.cls-66{fill:url(#radial-gradient-64);}.cls-67{fill:url(#radial-gradient-65);}.cls-68{fill:url(#radial-gradient-66);}.cls-69{fill:url(#radial-gradient-67);}.cls-70{fill:url(#radial-gradient-68);}.cls-71{fill:url(#radial-gradient-69);}.cls-72{fill:url(#radial-gradient-70);}.cls-73{fill:url(#radial-gradient-71);}.cls-74{fill:url(#radial-gradient-72);}.cls-75{fill:url(#radial-gradient-73);}.cls-76{fill:url(#radial-gradient-74);}.cls-77{fill:url(#radial-gradient-75);}.cls-78{fill:url(#radial-gradient-76);}.cls-79{fill:url(#radial-gradient-77);}.cls-80{fill:url(#radial-gradient-78);}.cls-81{fill:url(#radial-gradient-79);}.cls-82{fill:url(#radial-gradient-80);}.cls-83{fill:url(#radial-gradient-81);}.cls-84{fill:url(#radial-gradient-82);}.cls-85{fill:url(#radial-gradient-83);}.cls-86{fill:url(#radial-gradient-84);}.cls-87{fill:url(#radial-gradient-85);}.cls-88{fill:url(#radial-gradient-86);}.cls-89{fill:url(#radial-gradient-87);}.cls-90{fill:url(#radial-gradient-88);}.cls-91{fill:url(#radial-gradient-89);}.cls-92{fill:url(#radial-gradient-90);}.cls-93{fill:url(#radial-gradient-91);}.cls-94{fill:url(#radial-gradient-92);}.cls-95{fill:url(#radial-gradient-93);}.cls-96{fill:url(#radial-gradient-94);}.cls-97{fill:url(#radial-gradient-95);}.cls-98{fill:url(#radial-gradient-96);}.cls-99{fill:url(#radial-gradient-97);}.cls-100{fill:url(#radial-gradient-98);}.cls-101{fill:url(#radial-gradient-99);}.cls-102{fill:url(#radial-gradient-100);}.cls-103{fill:url(#radial-gradient-101);}.cls-104{fill:url(#radial-gradient-102);}.cls-105{fill:url(#radial-gradient-103);}.cls-106{fill:url(#radial-gradient-104);}.cls-107{fill:url(#radial-gradient-105);}.cls-108{fill:url(#radial-gradient-106);}.cls-109{fill:url(#radial-gradient-107);}.cls-110{fill:url(#radial-gradient-108);}.cls-111{fill:url(#radial-gradient-109);}.cls-112{fill:url(#radial-gradient-110);}.cls-113{fill:url(#radial-gradient-111);}.cls-114{fill:url(#radial-gradient-112);}.cls-115{fill:url(#radial-gradient-113);}.cls-116{fill:url(#radial-gradient-114);}.cls-117{fill:url(#radial-gradient-115);}.cls-118{fill:url(#radial-gradient-116);}.cls-119{fill:url(#radial-gradient-117);}.cls-120{fill:url(#radial-gradient-118);}.cls-121{fill:url(#radial-gradient-119);}.cls-122{fill:url(#radial-gradient-120);}.cls-123{fill:url(#radial-gradient-121);}.cls-124{fill:url(#radial-gradient-122);}.cls-125{fill:url(#radial-gradient-123);}.cls-126{fill:url(#radial-gradient-124);}.cls-127{fill:url(#radial-gradient-125);}.cls-128{fill:url(#radial-gradient-126);}.cls-129{fill:url(#radial-gradient-127);}.cls-130{fill:url(#radial-gradient-128);}.cls-131{fill:url(#radial-gradient-129);}.cls-132{fill:url(#radial-gradient-130);}.cls-133{fill:url(#radial-gradient-131);}.cls-134{fill:url(#radial-gradient-132);}.cls-135{fill:url(#radial-gradient-133);}.cls-136{fill:url(#radial-gradient-134);}.cls-137{fill:url(#radial-gradient-135);}.cls-138{fill:url(#radial-gradient-136);}.cls-139{fill:url(#radial-gradient-137);}.cls-140{fill:url(#radial-gradient-138);}.cls-141{fill:url(#radial-gradient-139);}.cls-142{fill:url(#radial-gradient-140);}.cls-143{fill:url(#radial-gradient-141);}.cls-144{fill:url(#radial-gradient-142);}.cls-145{fill:url(#radial-gradient-143);}.cls-146{fill:url(#radial-gradient-144);}.cls-147{fill:url(#radial-gradient-145);}.cls-148{fill:url(#radial-gradient-146);}.cls-149{fill:url(#radial-gradient-147);}.cls-150{fill:url(#radial-gradient-148);}.cls-151{fill:url(#radial-gradient-149);}.cls-152{fill:url(#radial-gradient-150);}.cls-153{fill:url(#radial-gradient-151);}.cls-154{fill:url(#radial-gradient-152);}.cls-155{fill:url(#radial-gradient-153);}.cls-156{fill:url(#radial-gradient-154);}.cls-157{fill:url(#radial-gradient-155);}.cls-158{fill:url(#radial-gradient-156);}.cls-159{fill:url(#radial-gradient-157);}.cls-160{fill:url(#radial-gradient-158);}.cls-161{fill:url(#radial-gradient-159);}.cls-162{fill:url(#radial-gradient-160);}.cls-163{fill:url(#radial-gradient-161);}.cls-164{fill:url(#radial-gradient-162);}.cls-165{fill:url(#radial-gradient-163);}.cls-166{fill:url(#radial-gradient-164);}.cls-167{fill:url(#radial-gradient-165);}.cls-168{fill:url(#radial-gradient-166);}.cls-169{fill:url(#radial-gradient-167);}.cls-170{fill:url(#radial-gradient-168);}.cls-171{fill:url(#radial-gradient-169);}.cls-172{fill:url(#radial-gradient-170);}.cls-173{fill:url(#radial-gradient-171);}.cls-174{fill:url(#radial-gradient-172);}.cls-175{fill:url(#radial-gradient-173);}.cls-176{fill:url(#radial-gradient-174);}.cls-177{fill:url(#radial-gradient-175);}.cls-178{fill:url(#radial-gradient-176);}.cls-179{fill:url(#radial-gradient-177);}.cls-180{fill:url(#radial-gradient-178);}.cls-181{fill:url(#radial-gradient-179);}.cls-182{fill:url(#radial-gradient-180);}.cls-183{fill:url(#radial-gradient-181);}.cls-184{fill:url(#radial-gradient-182);}.cls-185{fill:url(#radial-gradient-183);}.cls-186{fill:url(#radial-gradient-184);}.cls-187{fill:url(#radial-gradient-185);}.cls-188{fill:url(#radial-gradient-186);}.cls-189{fill:url(#radial-gradient-187);}.cls-190{fill:url(#radial-gradient-188);}.cls-191{fill:url(#radial-gradient-189);}.cls-192{fill:url(#radial-gradient-190);}.cls-193{fill:url(#radial-gradient-191);}.cls-194{fill:url(#radial-gradient-192);}.cls-195{fill:url(#radial-gradient-193);}.cls-196{fill:url(#radial-gradient-194);}.cls-197{fill:url(#radial-gradient-195);}.cls-198{fill:url(#radial-gradient-196);}.cls-199{fill:url(#radial-gradient-197);}.cls-200{fill:url(#radial-gradient-198);}.cls-201{fill:url(#radial-gradient-199);}.cls-202{fill:url(#radial-gradient-200);}.cls-203{fill:url(#radial-gradient-201);}.cls-204{fill:url(#radial-gradient-202);}.cls-205{fill:url(#radial-gradient-203);}.cls-206{fill:url(#radial-gradient-204);}.cls-207{fill:url(#radial-gradient-205);}.cls-208{fill:url(#radial-gradient-206);}.cls-209{fill:url(#radial-gradient-207);}.cls-210{fill:url(#radial-gradient-208);}.cls-211{fill:url(#radial-gradient-209);}.cls-212{fill:url(#radial-gradient-210);}.cls-213{fill:url(#radial-gradient-211);}.cls-214{fill:url(#radial-gradient-212);}.cls-215{fill:url(#radial-gradient-213);}.cls-216{fill:url(#radial-gradient-214);}.cls-217{fill:url(#radial-gradient-215);}.cls-218{fill:url(#radial-gradient-216);}.cls-219{fill:url(#radial-gradient-217);}.cls-220{fill:url(#radial-gradient-218);}.cls-221{fill:url(#radial-gradient-219);}.cls-222{fill:url(#radial-gradient-220);}.cls-223{fill:url(#radial-gradient-221);}</style><radialGradient id="radial-gradient" cx="478.49" cy="90.18" r="311.71" gradientTransform="translate(-234.34 223.74) scale(1.01 1.4)" gradientUnits="userSpaceOnUse"><stop offset="0.06" stop-color="#350057"/><stop offset="0.96" stop-color="#150028"/></radialGradient><radialGradient id="radial-gradient-2" cx="334.22" cy="-1779.95" r="145.38" gradientTransform="translate(758.74 -1172.4) rotate(180)" gradientUnits="userSpaceOnUse"><stop offset="0.08" stop-color="#ff23c9"/><stop offset="1" stop-color="#e014bd"/></radialGradient><radialGradient id="radial-gradient-3" cx="508.74" cy="-1368.69" r="269.99" xlink:href="#radial-gradient-2"/><radialGradient id="radial-gradient-4" cx="697.9" cy="-1730.01" r="148.52" xlink:href="#radial-gradient-2"/><radialGradient id="radial-gradient-5" cx="410.61" cy="627.67" r="2.89" gradientUnits="userSpaceOnUse"><stop offset="0.06" stop-color="#ff7f9a"/><stop offset="0.53" stop-color="#ff3b9c"/><stop offset="0.99" stop-color="#d10059"/></radialGradient><radialGradient id="radial-gradient-6" cx="402.58" cy="695.42" r="2.89" xlink:href="#radial-gradient-5"/><radialGradient id="radial-gradient-7" cx="315.25" cy="638.05" r="2.89" xlink:href="#radial-gradient-5"/><radialGradient id="radial-gradient-8" cx="308.49" cy="668.45" r="4.82" xlink:href="#radial-gradient-5"/><radialGradient id="radial-gradient-9" cx="304.96" cy="611.29" r="4.82" xlink:href="#radial-gradient-5"/><radialGradient id="radial-gradient-10" cx="428.27" cy="674.23" r="4.82" xlink:href="#radial-gradient-5"/><radialGradient id="radial-gradient-11" cx="2762.46" cy="-4690.75" r="126" gradientTransform="translate(3126.33 -4097.85) rotate(180)" gradientUnits="userSpaceOnUse"><stop offset="0.06" stop-color="#000e57"/><stop offset="0.89" stop-color="#0279af"/></radialGradient><radialGradient id="radial-gradient-12" cx="2762.46" cy="-4690.75" r="126" xlink:href="#radial-gradient-11"/><radialGradient id="radial-gradient-13" cx="2762.46" cy="-4690.75" r="126" xlink:href="#radial-gradient-11"/><radialGradient id="radial-gradient-14" cx="2762.46" cy="-4690.75" r="126" xlink:href="#radial-gradient-11"/><radialGradient id="radial-gradient-15" cx="2762.46" cy="-4690.75" r="126" xlink:href="#radial-gradient-11"/><radialGradient id="radial-gradient-16" cx="2709.31" cy="-4753.82" r="9.89" xlink:href="#radial-gradient-11"/><radialGradient id="radial-gradient-17" cx="2807.36" cy="-4790.42" r="10.14" xlink:href="#radial-gradient-11"/><radialGradient id="radial-gradient-18" cx="406.65" cy="363.75" r="2.89" xlink:href="#radial-gradient-5"/><radialGradient id="radial-gradient-19" cx="398.63" cy="431.5" r="2.89" xlink:href="#radial-gradient-5"/><radialGradient id="radial-gradient-20" cx="311.3" cy="374.13" r="2.89" xlink:href="#radial-gradient-5"/><radialGradient id="radial-gradient-21" cx="304.54" cy="404.53" r="4.82" xlink:href="#radial-gradient-5"/><radialGradient id="radial-gradient-22" cx="301.01" cy="347.37" r="4.82" xlink:href="#radial-gradient-5"/><radialGradient id="radial-gradient-23" cx="424.32" cy="410.31" r="4.82" xlink:href="#radial-gradient-5"/><radialGradient id="radial-gradient-24" cx="2766.41" cy="-4426.83" r="126" xlink:href="#radial-gradient-11"/><radialGradient id="radial-gradient-25" cx="2766.41" cy="-4426.83" r="126" xlink:href="#radial-gradient-11"/><radialGradient id="radial-gradient-26" cx="2766.41" cy="-4426.83" r="126" xlink:href="#radial-gradient-11"/><radialGradient id="radial-gradient-27" cx="2766.41" cy="-4426.83" r="126" xlink:href="#radial-gradient-11"/><radialGradient id="radial-gradient-28" cx="2766.41" cy="-4426.83" r="126" xlink:href="#radial-gradient-11"/><radialGradient id="radial-gradient-29" cx="2766.41" cy="-4426.83" r="126" xlink:href="#radial-gradient-11"/><radialGradient id="radial-gradient-30" cx="2713.26" cy="-4489.89" r="9.89" xlink:href="#radial-gradient-11"/><radialGradient id="radial-gradient-31" cx="2811.31" cy="-4526.49" r="10.14" xlink:href="#radial-gradient-11"/><radialGradient id="radial-gradient-32" cx="3097.41" cy="-4434.65" r="126" xlink:href="#radial-gradient-11"/><radialGradient id="radial-gradient-33" cx="85.64" cy="418.65" r="2.76" xlink:href="#radial-gradient-5"/><radialGradient id="radial-gradient-34" cx="113.13" cy="356.2" r="2.76" xlink:href="#radial-gradient-5"/><radialGradient id="radial-gradient-35" cx="179.87" cy="436.6" r="2.76" xlink:href="#radial-gradient-5"/><radialGradient id="radial-gradient-36" cx="195.22" cy="409.51" r="4.6" xlink:href="#radial-gradient-5"/><radialGradient id="radial-gradient-37" cx="181.88" cy="465.2" r="4.6" xlink:href="#radial-gradient-5"/><radialGradient id="radial-gradient-38" cx="82.37" cy="368.96" r="4.6" xlink:href="#radial-gradient-5"/><radialGradient id="radial-gradient-39" cx="1200.98" cy="1066.95" r="126" gradientTransform="translate(-716.35 -905.93) rotate(17)" xlink:href="#radial-gradient-11"/><radialGradient id="radial-gradient-40" cx="1200.98" cy="1066.95" r="126" gradientTransform="translate(-716.35 -905.93) rotate(17)" xlink:href="#radial-gradient-11"/><radialGradient id="radial-gradient-41" cx="1200.98" cy="1066.95" r="126" gradientTransform="translate(-716.35 -905.93) rotate(17)" xlink:href="#radial-gradient-11"/><radialGradient id="radial-gradient-42" cx="1200.98" cy="1066.95" r="126" gradientTransform="translate(-716.35 -905.93) rotate(17)" xlink:href="#radial-gradient-11"/><radialGradient id="radial-gradient-43" cx="1200.98" cy="1066.95" r="126" gradientTransform="translate(-716.35 -905.93) rotate(17)" xlink:href="#radial-gradient-11"/><radialGradient id="radial-gradient-44" cx="1200.98" cy="1066.95" r="126" gradientTransform="translate(-716.35 -905.93) rotate(17)" xlink:href="#radial-gradient-11"/><radialGradient id="radial-gradient-45" cx="3040.08" cy="-4489.66" r="9.97" xlink:href="#radial-gradient-11"/><radialGradient id="radial-gradient-46" cx="218.99" cy="361.26" r="2.63" xlink:href="#radial-gradient-5"/><radialGradient id="radial-gradient-47" cx="268.67" cy="364.65" r="4.38" xlink:href="#radial-gradient-5"/><radialGradient id="radial-gradient-48" cx="4773.63" cy="-1775.79" r="126" gradientTransform="translate(546.74 -4689.79) rotate(114.67)" xlink:href="#radial-gradient-11"/><radialGradient id="radial-gradient-49" cx="-1207.02" cy="-2816.26" r="9.97" gradientTransform="matrix(0.13, -0.99, 0.99, 0.13, 3197.71, -455.14)" xlink:href="#radial-gradient-11"/><radialGradient id="radial-gradient-50" cx="2082.28" cy="-4676.3" r="158.97" gradientTransform="translate(3657.27 -3411.79) rotate(-160.18)" xlink:href="#radial-gradient-11"/><radialGradient id="radial-gradient-51" cx="526.84" cy="764.66" r="12.58" gradientTransform="translate(-337.68 -413.53) rotate(2.82)" xlink:href="#radial-gradient-11"/><radialGradient id="radial-gradient-52" cx="-901.04" cy="-84.47" r="158.97" gradientTransform="matrix(0.92, -0.39, 0.39, 0.92, 1360.4, 345.8)" xlink:href="#radial-gradient-11"/><radialGradient id="radial-gradient-53" cx="4722.72" cy="-2753.78" r="12.58" gradientTransform="matrix(-0.76, 0.65, -0.65, -0.76, 2236.86, -4571.74)" xlink:href="#radial-gradient-11"/><radialGradient id="radial-gradient-54" cx="3999.19" cy="-3465.39" r="158.96" gradientTransform="matrix(-0.81, 0.58, -0.58, -0.81, 1485.12, -4792.28)" xlink:href="#radial-gradient-11"/><radialGradient id="radial-gradient-55" cx="-952.38" cy="-954.11" r="12.58" gradientTransform="translate(1685.41 199.11) rotate(-52.58)" xlink:href="#radial-gradient-11"/><radialGradient id="radial-gradient-56" cx="2932.1" cy="-4480.07" r="9.81" xlink:href="#radial-gradient-11"/><radialGradient id="radial-gradient-57" cx="3068.54" cy="1281.16" r="2.76" gradientTransform="matrix(0.5, 0.87, -0.87, 0.5, -364.8, -2623.02)" xlink:href="#radial-gradient-5"/><radialGradient id="radial-gradient-58" cx="3037.78" cy="1293.91" r="4.6" gradientTransform="matrix(0.5, 0.87, -0.87, 0.5, -364.8, -2623.02)" xlink:href="#radial-gradient-5"/><radialGradient id="radial-gradient-59" cx="4297.5" cy="1088.1" r="126" gradientTransform="translate(65.78 -3694.84) rotate(77.19)" xlink:href="#radial-gradient-11"/><radialGradient id="radial-gradient-60" cx="84.9" cy="-5415.04" r="9.97" gradientTransform="matrix(-0.5, -0.87, 0.87, -0.5, 4745.48, -1947.35)" xlink:href="#radial-gradient-11"/><radialGradient id="radial-gradient-61" cx="84.49" cy="622.71" r="2.76" xlink:href="#radial-gradient-5"/><radialGradient id="radial-gradient-62" cx="111.98" cy="560.26" r="2.76" xlink:href="#radial-gradient-5"/><radialGradient id="radial-gradient-63" cx="357.83" cy="667.82" r="2.76" xlink:href="#radial-gradient-5"/><radialGradient id="radial-gradient-64" cx="373.18" cy="640.72" r="4.6" xlink:href="#radial-gradient-5"/><radialGradient id="radial-gradient-65" cx="180.73" cy="669.26" r="4.6" xlink:href="#radial-gradient-5"/><radialGradient id="radial-gradient-66" cx="81.21" cy="573.02" r="4.6" xlink:href="#radial-gradient-5"/><radialGradient id="radial-gradient-67" cx="1259.55" cy="1262.42" r="126" gradientTransform="translate(-716.35 -905.93) rotate(17)" xlink:href="#radial-gradient-11"/><radialGradient id="radial-gradient-68" cx="1158.42" cy="1233.54" r="126" gradientTransform="translate(-716.35 -905.93) rotate(17)" xlink:href="#radial-gradient-11"/><radialGradient id="radial-gradient-69" cx="1259.54" cy="1262.42" r="126" gradientTransform="translate(-716.35 -905.93) rotate(17)" xlink:href="#radial-gradient-11"/><radialGradient id="radial-gradient-70" cx="1438.78" cy="1236.02" r="126" gradientTransform="translate(-716.35 -905.93) rotate(17)" xlink:href="#radial-gradient-11"/><radialGradient id="radial-gradient-71" cx="1259.55" cy="1262.42" r="126" gradientTransform="translate(-716.35 -905.93) rotate(17)" xlink:href="#radial-gradient-11"/><radialGradient id="radial-gradient-72" cx="1259.55" cy="1262.43" r="126" gradientTransform="translate(-716.35 -905.93) rotate(17)" xlink:href="#radial-gradient-11"/><radialGradient id="radial-gradient-73" cx="2974.12" cy="-4610.14" r="9.97" xlink:href="#radial-gradient-11"/><radialGradient id="radial-gradient-74" cx="241.43" cy="646.48" r="2.87" xlink:href="#radial-gradient-5"/><radialGradient id="radial-gradient-75" cx="253.6" cy="694.76" r="4.78" xlink:href="#radial-gradient-5"/><radialGradient id="radial-gradient-76" cx="2961.62" cy="-4245.76" r="126.01" gradientTransform="translate(3629.9 -3269.57) rotate(-173.38)" xlink:href="#radial-gradient-11"/><radialGradient id="radial-gradient-77" cx="2961.62" cy="-4245.76" r="126" gradientTransform="translate(3629.9 -3269.57) rotate(-173.38)" xlink:href="#radial-gradient-11"/><radialGradient id="radial-gradient-78" cx="2881" cy="-4772.46" r="9.85" xlink:href="#radial-gradient-11"/><radialGradient id="radial-gradient-79" cx="54.62" cy="457.34" r="2.87" xlink:href="#radial-gradient-5"/><radialGradient id="radial-gradient-80" cx="79.18" cy="536.55" r="2.87" xlink:href="#radial-gradient-5"/><radialGradient id="radial-gradient-81" cx="83.17" cy="506.9" r="4.78" xlink:href="#radial-gradient-5"/><radialGradient id="radial-gradient-82" cx="3127.43" cy="-4087.5" r="126.01" gradientTransform="translate(3629.9 -3269.57) rotate(-173.38)" xlink:href="#radial-gradient-11"/><radialGradient id="radial-gradient-83" cx="3152.58" cy="-4078.78" r="126.01" gradientTransform="translate(3629.9 -3269.57) rotate(-173.38)" xlink:href="#radial-gradient-11"/><radialGradient id="radial-gradient-84" cx="3067.8" cy="-4583.32" r="9.85" xlink:href="#radial-gradient-11"/><radialGradient id="radial-gradient-85" cx="264.01" cy="410.34" r="2.87" xlink:href="#radial-gradient-5"/><radialGradient id="radial-gradient-86" cx="306.66" cy="509.8" r="2.87" xlink:href="#radial-gradient-5"/><radialGradient id="radial-gradient-87" cx="2791.71" cy="-4589.55" r="4.78" gradientTransform="translate(3126.33 -4097.85) rotate(180)" gradientUnits="userSpaceOnUse"><stop offset="0.06" stop-color="#1ab0da"/><stop offset="1" stop-color="#461980"/></radialGradient><radialGradient id="radial-gradient-88" cx="2975.02" cy="-4006.2" r="126.01" gradientTransform="translate(3629.9 -3269.57) rotate(-173.38)" xlink:href="#radial-gradient-11"/><radialGradient id="radial-gradient-89" cx="2904.54" cy="-4034.71" r="126.01" gradientTransform="translate(3629.9 -3269.57) rotate(-173.38)" xlink:href="#radial-gradient-11"/><radialGradient id="radial-gradient-90" cx="2799.98" cy="-4569.4" r="9.85" xlink:href="#radial-gradient-11"/><radialGradient id="radial-gradient-91" cx="2997.54" cy="-4638.49" r="9.81" xlink:href="#radial-gradient-11"/><radialGradient id="radial-gradient-92" cx="3115.46" cy="-4693.95" r="9.97" xlink:href="#radial-gradient-11"/><radialGradient id="radial-gradient-93" cx="81.45" cy="695.66" r="2.87" xlink:href="#radial-gradient-5"/><radialGradient id="radial-gradient-94" cx="3016.92" cy="-4775.41" r="4.78" xlink:href="#radial-gradient-87"/><radialGradient id="radial-gradient-95" cx="3106.85" cy="-4245.29" r="126" gradientTransform="translate(3629.9 -3269.57) rotate(-173.38)" xlink:href="#radial-gradient-11"/><radialGradient id="radial-gradient-96" cx="2995.26" cy="-4797.6" r="9.81" xlink:href="#radial-gradient-11"/><radialGradient id="radial-gradient-97" cx="386.22" cy="535.11" r="2.76" xlink:href="#radial-gradient-5"/><radialGradient id="radial-gradient-98" cx="2724.76" cy="-4605.86" r="4.6" xlink:href="#radial-gradient-87"/><radialGradient id="radial-gradient-99" cx="365.54" cy="593.76" r="4.6" xlink:href="#radial-gradient-5"/><radialGradient id="radial-gradient-100" cx="480.27" cy="633.93" r="2.89" xlink:href="#radial-gradient-5"/><radialGradient id="radial-gradient-101" cx="473.52" cy="664.33" r="4.82" xlink:href="#radial-gradient-5"/><radialGradient id="radial-gradient-102" cx="469.99" cy="607.18" r="4.82" xlink:href="#radial-gradient-5"/><radialGradient id="radial-gradient-103" cx="2597.43" cy="-4686.63" r="126" xlink:href="#radial-gradient-11"/><radialGradient id="radial-gradient-104" cx="2597.43" cy="-4686.64" r="126" xlink:href="#radial-gradient-11"/><radialGradient id="radial-gradient-105" cx="2597.43" cy="-4686.63" r="126" xlink:href="#radial-gradient-11"/><radialGradient id="radial-gradient-106" cx="2642.33" cy="-4786.3" r="10.14" xlink:href="#radial-gradient-11"/><radialGradient id="radial-gradient-107" cx="1427.12" cy="1100.82" r="126" gradientTransform="translate(-716.35 -905.93) rotate(17)" xlink:href="#radial-gradient-11"/><radialGradient id="radial-gradient-108" cx="1414.21" cy="1136.19" r="126" gradientTransform="translate(-716.35 -905.93) rotate(17)" xlink:href="#radial-gradient-11"/><radialGradient id="radial-gradient-109" cx="1427.12" cy="1100.82" r="126" gradientTransform="translate(-716.35 -905.93) rotate(17)" xlink:href="#radial-gradient-11"/><radialGradient id="radial-gradient-110" cx="1427.12" cy="1100.81" r="126" gradientTransform="translate(-716.35 -905.93) rotate(17)" xlink:href="#radial-gradient-11"/><radialGradient id="radial-gradient-111" cx="2725.75" cy="-4578.58" r="9.81" xlink:href="#radial-gradient-11"/><radialGradient id="radial-gradient-112" cx="478.72" cy="427.77" r="3.6" xlink:href="#radial-gradient-5"/><radialGradient id="radial-gradient-113" cx="2627.59" cy="-4490.27" r="6.01" xlink:href="#radial-gradient-87"/><radialGradient id="radial-gradient-114" cx="1469.38" cy="984.86" r="164.35" gradientTransform="translate(-716.35 -905.93) rotate(17)" xlink:href="#radial-gradient-11"/><radialGradient id="radial-gradient-115" cx="1469.38" cy="984.86" r="164.35" gradientTransform="translate(-716.35 -905.93) rotate(17)" xlink:href="#radial-gradient-11"/><radialGradient id="radial-gradient-116" cx="2628.88" cy="-4454.68" r="12.79" xlink:href="#radial-gradient-11"/><radialGradient id="radial-gradient-117" cx="410.61" cy="250.02" r="2.89" xlink:href="#radial-gradient-5"/><radialGradient id="radial-gradient-118" cx="402.58" cy="317.77" r="2.89" xlink:href="#radial-gradient-5"/><radialGradient id="radial-gradient-119" cx="315.25" cy="260.4" r="2.89" xlink:href="#radial-gradient-5"/><radialGradient id="radial-gradient-120" cx="308.49" cy="290.8" r="4.82" xlink:href="#radial-gradient-5"/><radialGradient id="radial-gradient-121" cx="304.96" cy="233.64" r="4.82" xlink:href="#radial-gradient-5"/><radialGradient id="radial-gradient-122" cx="428.27" cy="296.58" r="4.82" xlink:href="#radial-gradient-5"/><radialGradient id="radial-gradient-123" cx="2762.46" cy="-4313.1" r="126" xlink:href="#radial-gradient-11"/><radialGradient id="radial-gradient-124" cx="2762.46" cy="-4313.1" r="126" xlink:href="#radial-gradient-11"/><radialGradient id="radial-gradient-125" cx="2762.46" cy="-4313.1" r="126" xlink:href="#radial-gradient-11"/><radialGradient id="radial-gradient-126" cx="2762.46" cy="-4313.1" r="126" xlink:href="#radial-gradient-11"/><radialGradient id="radial-gradient-127" cx="2762.46" cy="-4313.1" r="126" xlink:href="#radial-gradient-11"/><radialGradient id="radial-gradient-128" cx="2762.46" cy="-4313.1" r="126" xlink:href="#radial-gradient-11"/><radialGradient id="radial-gradient-129" cx="2709.31" cy="-4376.17" r="9.89" xlink:href="#radial-gradient-11"/><radialGradient id="radial-gradient-130" cx="2807.36" cy="-4412.77" r="10.14" xlink:href="#radial-gradient-11"/><radialGradient id="radial-gradient-131" cx="398.63" cy="53.85" r="2.89" xlink:href="#radial-gradient-5"/><radialGradient id="radial-gradient-132" cx="304.54" cy="26.88" r="4.82" xlink:href="#radial-gradient-5"/><radialGradient id="radial-gradient-133" cx="424.32" cy="32.66" r="4.82" xlink:href="#radial-gradient-5"/><radialGradient id="radial-gradient-134" cx="2766.41" cy="-4049.18" r="126" xlink:href="#radial-gradient-11"/><radialGradient id="radial-gradient-135" cx="2766.41" cy="-4049.18" r="126" xlink:href="#radial-gradient-11"/><radialGradient id="radial-gradient-136" cx="2766.41" cy="-4049.18" r="126" xlink:href="#radial-gradient-11"/><radialGradient id="radial-gradient-137" cx="2766.41" cy="-4049.18" r="126" xlink:href="#radial-gradient-11"/><radialGradient id="radial-gradient-138" cx="2713.26" cy="-4112.24" r="9.89" xlink:href="#radial-gradient-11"/><radialGradient id="radial-gradient-139" cx="2811.31" cy="-4148.84" r="10.14" xlink:href="#radial-gradient-11"/><radialGradient id="radial-gradient-140" cx="3097.41" cy="-4057" r="126" xlink:href="#radial-gradient-11"/><radialGradient id="radial-gradient-141" cx="85.64" cy="41" r="2.76" xlink:href="#radial-gradient-5"/><radialGradient id="radial-gradient-142" cx="179.87" cy="58.95" r="2.76" xlink:href="#radial-gradient-5"/><radialGradient id="radial-gradient-143" cx="195.22" cy="31.86" r="4.6" xlink:href="#radial-gradient-5"/><radialGradient id="radial-gradient-144" cx="181.88" cy="87.55" r="4.6" xlink:href="#radial-gradient-5"/><radialGradient id="radial-gradient-145" cx="1090.56" cy="705.81" r="126" gradientTransform="translate(-716.35 -905.93) rotate(17)" xlink:href="#radial-gradient-11"/><radialGradient id="radial-gradient-146" cx="1090.56" cy="705.81" r="126" gradientTransform="translate(-716.35 -905.93) rotate(17)" xlink:href="#radial-gradient-11"/><radialGradient id="radial-gradient-147" cx="1090.56" cy="705.81" r="126" gradientTransform="translate(-716.35 -905.93) rotate(17)" xlink:href="#radial-gradient-11"/><radialGradient id="radial-gradient-148" cx="1090.56" cy="705.81" r="126" gradientTransform="translate(-716.35 -905.93) rotate(17)" xlink:href="#radial-gradient-11"/><radialGradient id="radial-gradient-149" cx="3040.08" cy="-4112.01" r="9.97" xlink:href="#radial-gradient-11"/><radialGradient id="radial-gradient-150" cx="4430.45" cy="-1618.15" r="126" gradientTransform="translate(546.74 -4689.79) rotate(114.67)" xlink:href="#radial-gradient-11"/><radialGradient id="radial-gradient-151" cx="2210.36" cy="-4321.01" r="158.97" gradientTransform="translate(3657.27 -3411.79) rotate(-160.18)" xlink:href="#radial-gradient-11"/><radialGradient id="radial-gradient-152" cx="508.26" cy="387.47" r="12.58" gradientTransform="translate(-337.68 -413.53) rotate(2.82)" xlink:href="#radial-gradient-11"/><radialGradient id="radial-gradient-153" cx="-752.34" cy="-431.63" r="158.97" gradientTransform="matrix(0.92, -0.39, 0.39, 0.92, 1360.4, 345.8)" xlink:href="#radial-gradient-11"/><radialGradient id="radial-gradient-154" cx="4479.01" cy="-2465.28" r="12.58" gradientTransform="matrix(-0.76, 0.65, -0.65, -0.76, 2236.86, -4571.74)" xlink:href="#radial-gradient-11"/><radialGradient id="radial-gradient-155" cx="3779.45" cy="-3158.26" r="158.96" gradientTransform="matrix(-0.81, 0.58, -0.58, -0.81, 1485.12, -4792.28)" xlink:href="#radial-gradient-11"/><radialGradient id="radial-gradient-156" cx="-652.43" cy="-1183.59" r="12.58" gradientTransform="translate(1685.41 199.11) rotate(-52.58)" xlink:href="#radial-gradient-11"/><radialGradient id="radial-gradient-157" cx="2932.1" cy="-4102.42" r="9.81" xlink:href="#radial-gradient-11"/><radialGradient id="radial-gradient-158" cx="2740.86" cy="1093.43" r="2.76" gradientTransform="matrix(0.5, 0.87, -0.87, 0.5, -364.8, -2623.02)" xlink:href="#radial-gradient-5"/><radialGradient id="radial-gradient-159" cx="2710.09" cy="1106.18" r="4.6" gradientTransform="matrix(0.5, 0.87, -0.87, 0.5, -364.8, -2623.02)" xlink:href="#radial-gradient-5"/><radialGradient id="radial-gradient-160" cx="3929.24" cy="1004.37" r="126" gradientTransform="translate(65.78 -3694.84) rotate(77.19)" xlink:href="#radial-gradient-11"/><radialGradient id="radial-gradient-161" cx="3929.24" cy="1004.37" r="126" gradientTransform="translate(65.78 -3694.84) rotate(77.19)" xlink:href="#radial-gradient-11"/><radialGradient id="radial-gradient-162" cx="412.59" cy="-5227.31" r="9.97" gradientTransform="matrix(-0.5, -0.87, 0.87, -0.5, 4745.48, -1947.35)" xlink:href="#radial-gradient-11"/><radialGradient id="radial-gradient-163" cx="-640.25" cy="-4479.69" r="158.95" gradientTransform="matrix(-0.17, -0.98, 0.98, -0.17, 4414.91, -1146.27)" xlink:href="#radial-gradient-11"/><radialGradient id="radial-gradient-164" cx="3187.89" cy="1371.89" r="12.58" gradientTransform="translate(-173.77 -3121.84) rotate(63.01)" xlink:href="#radial-gradient-11"/><radialGradient id="radial-gradient-165" cx="84.49" cy="245.06" r="2.76" xlink:href="#radial-gradient-5"/><radialGradient id="radial-gradient-166" cx="111.98" cy="182.61" r="2.76" xlink:href="#radial-gradient-5"/><radialGradient id="radial-gradient-167" cx="357.83" cy="290.17" r="2.76" xlink:href="#radial-gradient-5"/><radialGradient id="radial-gradient-168" cx="373.18" cy="263.07" r="4.6" xlink:href="#radial-gradient-5"/><radialGradient id="radial-gradient-169" cx="180.73" cy="291.61" r="4.6" xlink:href="#radial-gradient-5"/><radialGradient id="radial-gradient-170" cx="81.21" cy="195.37" r="4.6" xlink:href="#radial-gradient-5"/><radialGradient id="radial-gradient-171" cx="1149.12" cy="901.28" r="126" gradientTransform="translate(-716.35 -905.93) rotate(17)" xlink:href="#radial-gradient-11"/><radialGradient id="radial-gradient-172" cx="1048" cy="872.39" r="126" gradientTransform="translate(-716.35 -905.93) rotate(17)" xlink:href="#radial-gradient-11"/><radialGradient id="radial-gradient-173" cx="1149.12" cy="901.28" r="126" gradientTransform="translate(-716.35 -905.93) rotate(17)" xlink:href="#radial-gradient-11"/><radialGradient id="radial-gradient-174" cx="1328.35" cy="874.88" r="126" gradientTransform="translate(-716.35 -905.93) rotate(17)" xlink:href="#radial-gradient-11"/><radialGradient id="radial-gradient-175" cx="1149.12" cy="901.28" r="126" gradientTransform="translate(-716.35 -905.93) rotate(17)" xlink:href="#radial-gradient-11"/><radialGradient id="radial-gradient-176" cx="1149.12" cy="901.28" r="126" gradientTransform="translate(-716.35 -905.93) rotate(17)" xlink:href="#radial-gradient-11"/><radialGradient id="radial-gradient-177" cx="2974.12" cy="-4232.49" r="9.97" xlink:href="#radial-gradient-11"/><radialGradient id="radial-gradient-178" cx="241.43" cy="268.83" r="2.87" xlink:href="#radial-gradient-5"/><radialGradient id="radial-gradient-179" cx="225.64" cy="335.2" r="2.87" xlink:href="#radial-gradient-5"/><radialGradient id="radial-gradient-180" cx="253.6" cy="317.11" r="4.78" xlink:href="#radial-gradient-5"/><radialGradient id="radial-gradient-181" cx="3005.13" cy="-3870.61" r="126.01" gradientTransform="translate(3629.9 -3269.57) rotate(-173.38)" xlink:href="#radial-gradient-11"/><radialGradient id="radial-gradient-182" cx="3005.13" cy="-3870.61" r="126" gradientTransform="translate(3629.9 -3269.57) rotate(-173.38)" xlink:href="#radial-gradient-11"/><radialGradient id="radial-gradient-183" cx="2881" cy="-4394.81" r="9.85" xlink:href="#radial-gradient-11"/><radialGradient id="radial-gradient-184" cx="54.62" cy="79.69" r="2.87" xlink:href="#radial-gradient-5"/><radialGradient id="radial-gradient-185" cx="79.18" cy="158.9" r="2.87" xlink:href="#radial-gradient-5"/><radialGradient id="radial-gradient-186" cx="83.17" cy="129.25" r="4.78" xlink:href="#radial-gradient-5"/><radialGradient id="radial-gradient-187" cx="3170.94" cy="-3712.34" r="126.01" gradientTransform="translate(3629.9 -3269.57) rotate(-173.38)" xlink:href="#radial-gradient-11"/><radialGradient id="radial-gradient-188" cx="3196.09" cy="-3703.63" r="126.01" gradientTransform="translate(3629.9 -3269.57) rotate(-173.38)" xlink:href="#radial-gradient-11"/><radialGradient id="radial-gradient-189" cx="3067.8" cy="-4205.67" r="9.85" xlink:href="#radial-gradient-11"/><radialGradient id="radial-gradient-190" cx="264.01" cy="32.69" r="2.87" xlink:href="#radial-gradient-5"/><radialGradient id="radial-gradient-191" cx="306.66" cy="132.15" r="2.87" xlink:href="#radial-gradient-5"/><radialGradient id="radial-gradient-192" cx="2791.71" cy="-4211.9" r="4.78" xlink:href="#radial-gradient-87"/><radialGradient id="radial-gradient-193" cx="3018.53" cy="-3631.05" r="126.01" gradientTransform="translate(3629.9 -3269.57) rotate(-173.38)" xlink:href="#radial-gradient-11"/><radialGradient id="radial-gradient-194" cx="2948.05" cy="-3659.56" r="126.01" gradientTransform="translate(3629.9 -3269.57) rotate(-173.38)" xlink:href="#radial-gradient-11"/><radialGradient id="radial-gradient-195" cx="2799.98" cy="-4191.75" r="9.85" xlink:href="#radial-gradient-11"/><radialGradient id="radial-gradient-196" cx="2997.54" cy="-4260.84" r="9.81" xlink:href="#radial-gradient-11"/><radialGradient id="radial-gradient-197" cx="3115.46" cy="-4316.3" r="9.97" xlink:href="#radial-gradient-11"/><radialGradient id="radial-gradient-198" cx="1123" cy="1027.92" r="126" gradientTransform="translate(-716.35 -905.93) rotate(17)" xlink:href="#radial-gradient-11"/><radialGradient id="radial-gradient-199" cx="81.45" cy="318.01" r="2.87" xlink:href="#radial-gradient-5"/><radialGradient id="radial-gradient-200" cx="3016.92" cy="-4397.76" r="4.78" xlink:href="#radial-gradient-87"/><radialGradient id="radial-gradient-201" cx="3150.36" cy="-3870.14" r="126" gradientTransform="translate(3629.9 -3269.57) rotate(-173.38)" xlink:href="#radial-gradient-11"/><radialGradient id="radial-gradient-202" cx="2995.26" cy="-4419.95" r="9.81" xlink:href="#radial-gradient-11"/><radialGradient id="radial-gradient-203" cx="386.22" cy="157.46" r="2.76" xlink:href="#radial-gradient-5"/><radialGradient id="radial-gradient-204" cx="2724.76" cy="-4228.21" r="4.6" xlink:href="#radial-gradient-87"/><radialGradient id="radial-gradient-205" cx="365.54" cy="216.11" r="4.6" xlink:href="#radial-gradient-5"/><radialGradient id="radial-gradient-206" cx="480.27" cy="256.28" r="2.89" xlink:href="#radial-gradient-5"/><radialGradient id="radial-gradient-207" cx="473.52" cy="286.68" r="4.82" xlink:href="#radial-gradient-5"/><radialGradient id="radial-gradient-208" cx="469.99" cy="229.53" r="4.82" xlink:href="#radial-gradient-5"/><radialGradient id="radial-gradient-209" cx="2597.43" cy="-4308.98" r="126" xlink:href="#radial-gradient-11"/><radialGradient id="radial-gradient-210" cx="2597.43" cy="-4308.99" r="126" xlink:href="#radial-gradient-11"/><radialGradient id="radial-gradient-211" cx="2597.43" cy="-4308.98" r="126" xlink:href="#radial-gradient-11"/><radialGradient id="radial-gradient-212" cx="2642.33" cy="-4408.65" r="10.14" xlink:href="#radial-gradient-11"/><radialGradient id="radial-gradient-213" cx="1316.7" cy="739.67" r="126" gradientTransform="translate(-716.35 -905.93) rotate(17)" xlink:href="#radial-gradient-11"/><radialGradient id="radial-gradient-214" cx="1303.78" cy="775.04" r="126" gradientTransform="translate(-716.35 -905.93) rotate(17)" xlink:href="#radial-gradient-11"/><radialGradient id="radial-gradient-215" cx="1316.7" cy="739.67" r="126" gradientTransform="translate(-716.35 -905.93) rotate(17)" xlink:href="#radial-gradient-11"/><radialGradient id="radial-gradient-216" cx="1316.7" cy="739.67" r="126" gradientTransform="translate(-716.35 -905.93) rotate(17)" xlink:href="#radial-gradient-11"/><radialGradient id="radial-gradient-217" cx="2725.75" cy="-4200.93" r="9.81" xlink:href="#radial-gradient-11"/><radialGradient id="radial-gradient-218" cx="478.72" cy="50.12" r="3.6" xlink:href="#radial-gradient-5"/><radialGradient id="radial-gradient-219" cx="2627.59" cy="-4112.62" r="6.01" xlink:href="#radial-gradient-87"/><radialGradient id="radial-gradient-220" cx="1358.96" cy="623.71" r="164.35" gradientTransform="translate(-716.35 -905.93) rotate(17)" xlink:href="#radial-gradient-11"/><radialGradient id="radial-gradient-221" cx="1358.96" cy="623.71" r="164.35" gradientTransform="translate(-716.35 -905.93) rotate(17)" xlink:href="#radial-gradient-11"/></defs><g class="cls-1"><g id="Layer_2" data-name="Layer 2"><rect class="cls-2" x="-3.05" width="506.11" height="700"/><path class="cls-3" d="M312,719.9s0-30.49,31.78-34.38,56.42,14.27,83.66-7.13S424.85,561,454,546.73,552,551.27,555.21,585s41.51-62.91,41.51-62.91-92.1-50.59-151.12-13S415.77,598,406,623.91s-35,38.91-82.37,34.37-71.34,52.54-71.34,52.54ZM529.17,513.36c54.36,19.29,9.21,28.06,9.21,28.06s-28.06-13.15-50.86-12.71-51.29,22.36-54.36,11S474.81,494.07,529.17,513.36ZM349,671.63c13.15-10.09,43.82-6.2,56.32-19.76a27.14,27.14,0,0,0,3.94-5.94c4.47-8.5,6.49-18.07,9.78-27,1.39-3.79,4.7-13.8,9.67-7.75a20.56,20.56,0,0,1,3.6,8c2.06,8.26,1.58,19.07.8,25.39-1.39,11.24-5.74,23.34-15.28,30.18C397.65,689.16,335.84,681.71,349,671.63Zm-17.62-6c7.59,0,13.75,1.82,13.75,4.06s-6.16,4-13.75,4-13.74-1.81-13.74-4S323.78,665.65,331.37,665.65Z"/><path class="cls-4" d="M13.93,252.57c-30,34.72-87.1,56.58-118.18,66.47l.15,17.56S33.25,294.76,66.57,214.79,111,113.44,174.63,93.91s116.14,23.25,155.53,84.62S522,264.07,576.57,216.65s14.14-93.91,14.14-93.91-101,65.08-169.66,44.63S355.4,72.52,255.42,57.65c-2.7-.41-5.39-.77-8.07-1.11,13.33,5.59,21.08,13.51,21.46,19.81.91,15-20,5.85-20,5.85S178.11,63.83,136.38,93.89s-68,81.84-80.72,61.8,48.07-78.5,108.84-98.54c1.26-.42,2.5-.79,3.75-1.17C106.71,63.94,56,93.11,25.17,146c-44.44,76.25-130.28,75.32-130.28,75.32l.39,44.34C-41.69,253.75,53.74,206.56,13.93,252.57Zm437.19-56c54.42-2.5,146.94-35.07,92.52,25.06,0,0-114.29,32.57-172.34-25.06S396.7,199.12,451.12,196.61ZM335.31,117.3c4.6-2.89,15.19,4,23.66,15.47s11.58,23,7,25.94-15.2-4-23.66-15.48S330.7,120.18,335.31,117.3ZM-28.7,215c36.28-22.55,65.31-25.06,45.35-3.35s-47.16,21.72-47.16,21.72S-65,237.53-28.7,215Z"/><path class="cls-5" d="M152.92,456.26c68.16,1.86-171,228.91-171,228.91l15.3,6.12C38.7,649,131.74,557.13,142.13,573.87c10.3,16.58-73.75,94.6-113.43,130l4.58,1.83S249.89,539.51,203.2,441.48-83.43,502.17-83.43,502.17l-4.67,127S84.77,454.39,152.92,456.26ZM115.3,573.87C90.7,587.28,147.35,506,163,518S115.3,573.87,115.3,573.87Zm33.22-150c1.22-4.5,9-6.31,17.32-4s14.11,7.75,12.89,12.26-9,6.31-17.32,4S147.29,428.38,148.52,423.88Zm-60.05,8.37c84.22-18.63,74.53,15.65,12.67,27.58s-114.79,80.5-114.79,80.5L-29.3,497.84S4.24,450.88,88.47,432.25Z"/><g class="cls-6"><path class="cls-7" d="M410.61,630.56a3.81,3.81,0,0,0-2.89-2.89,9.38,9.38,0,0,0,1.86-1,9.86,9.86,0,0,0,1-1.87,9.68,9.68,0,0,0,1,1.87,9.38,9.38,0,0,0,1.86,1,9.94,9.94,0,0,0-1.86,1A9.68,9.68,0,0,0,410.61,630.56Z"/><path class="cls-8" d="M402.58,698.31a3.81,3.81,0,0,0-2.89-2.89,9.68,9.68,0,0,0,1.87-1,9.94,9.94,0,0,0,1-1.86,9.38,9.38,0,0,0,1,1.86,9.68,9.68,0,0,0,1.87,1,9.86,9.86,0,0,0-1.87,1A9.38,9.38,0,0,0,402.58,698.31Z"/><path class="cls-9" d="M315.25,640.94a3.81,3.81,0,0,0-2.89-2.89,9.68,9.68,0,0,0,1.87-1,9.94,9.94,0,0,0,1-1.86,9.38,9.38,0,0,0,1,1.86,9.68,9.68,0,0,0,1.87,1,9.86,9.86,0,0,0-1.87,1A9.38,9.38,0,0,0,315.25,640.94Z"/><path class="cls-10" d="M308.49,673.27a16.22,16.22,0,0,0-1.7-3.12,16.8,16.8,0,0,0-3.11-1.7,16.21,16.21,0,0,0,3.11-1.7,16.21,16.21,0,0,0,1.7-3.11,16.39,16.39,0,0,0,1.71,3.11,15.92,15.92,0,0,0,3.11,1.7,16.49,16.49,0,0,0-3.11,1.7A16.4,16.4,0,0,0,308.49,673.27Z"/><path class="cls-11" d="M305,616.11a15.92,15.92,0,0,0-1.7-3.11,16.39,16.39,0,0,0-3.11-1.71,16.21,16.21,0,0,0,3.11-1.7,16.21,16.21,0,0,0,1.7-3.11,16.8,16.8,0,0,0,1.7,3.11,16.22,16.22,0,0,0,3.12,1.7,16.4,16.4,0,0,0-3.12,1.71A16.49,16.49,0,0,0,305,616.11Z"/><path class="cls-12" d="M428.27,679.05a6.32,6.32,0,0,0-4.82-4.82,15.92,15.92,0,0,0,3.11-1.7,16.39,16.39,0,0,0,1.71-3.11,6.3,6.3,0,0,0,4.81,4.81,16.8,16.8,0,0,0-3.11,1.7A16.22,16.22,0,0,0,428.27,679.05Z"/><path class="cls-13" d="M319.67,619.67a1.61,1.61,0,1,0,1.61,1.61A1.61,1.61,0,0,0,319.67,619.67Z"/><path class="cls-14" d="M301.56,677.14a5.9,5.9,0,0,1-.56,1,5.29,5.29,0,0,1-1,.56,5.47,5.47,0,0,1,1,.57,5.9,5.9,0,0,1,.56,1,2.12,2.12,0,0,1,1.61-1.61,5.29,5.29,0,0,1-1-.56A5.47,5.47,0,0,1,301.56,677.14Z"/><path class="cls-15" d="M323.64,655.23a5.29,5.29,0,0,1-.56,1,5.9,5.9,0,0,1-1,.56,5.47,5.47,0,0,1,1,.57,5.29,5.29,0,0,1,.56,1,2.12,2.12,0,0,1,1.61-1.61,5.9,5.9,0,0,1-1-.56A5.47,5.47,0,0,1,323.64,655.23Z"/><path class="cls-16" d="M423.75,606.18a5.28,5.28,0,0,1-.56,1,5.47,5.47,0,0,1-1,.57,5.47,5.47,0,0,1,1,.57,5.28,5.28,0,0,1,.56,1,2.12,2.12,0,0,1,1.61-1.6,2.12,2.12,0,0,1-1.61-1.6Z"/><path class="cls-17" d="M405.15,678.73a5.47,5.47,0,0,1-.57,1,5.9,5.9,0,0,1-1,.56,2.12,2.12,0,0,1,1.61,1.61,5.9,5.9,0,0,1,.56-1,5.47,5.47,0,0,1,1-.57,2.06,2.06,0,0,1-1.6-1.6Z"/><path class="cls-18" d="M414.69,654.9a.54.54,0,1,1,.54.53A.54.54,0,0,1,414.69,654.9Zm-4.29,9.83a1.08,1.08,0,1,0-1.07-1.07A1.07,1.07,0,0,0,410.4,664.73Zm-2.14-12.87a2.15,2.15,0,1,0-2.15-2.14A2.14,2.14,0,0,0,408.26,651.86Zm18.59-2.5a1.08,1.08,0,1,0-1.08-1.07A1.07,1.07,0,0,0,426.85,649.36Z"/><path class="cls-19" d="M320.78,693.31a.53.53,0,1,1-1.06.09.53.53,0,1,1,1.06-.09Zm3.44-10.16a1.07,1.07,0,1,0,1.16,1A1.07,1.07,0,0,0,324.22,683.15Zm3.23,12.64a2.14,2.14,0,1,0,2.32,2A2.14,2.14,0,0,0,327.45,695.79Zm-18.31,4.07a1.07,1.07,0,1,0,1.16,1A1.07,1.07,0,0,0,309.14,699.86Z"/><path class="cls-20" d="M406.65,366.64a3.78,3.78,0,0,0-2.88-2.89,9.94,9.94,0,0,0,1.86-1,9.68,9.68,0,0,0,1-1.87,3.81,3.81,0,0,0,2.89,2.89,9.38,9.38,0,0,0-1.86,1A9.56,9.56,0,0,0,406.65,366.64Z"/><path class="cls-21" d="M398.63,434.39a3.77,3.77,0,0,0-2.89-2.89,9.68,9.68,0,0,0,1.87-1,10.27,10.27,0,0,0,1-1.87,9.68,9.68,0,0,0,1,1.87,9.39,9.39,0,0,0,1.87,1,10,10,0,0,0-1.87,1A9.68,9.68,0,0,0,398.63,434.39Z"/><path class="cls-22" d="M311.3,377a10.27,10.27,0,0,0-1-1.87,9.68,9.68,0,0,0-1.87-1,3.77,3.77,0,0,0,2.89-2.89,9.68,9.68,0,0,0,1,1.87,10,10,0,0,0,1.87,1,9.39,9.39,0,0,0-1.87,1A9.68,9.68,0,0,0,311.3,377Z"/><path class="cls-23" d="M304.54,409.34a16.21,16.21,0,0,0-1.7-3.11,16.21,16.21,0,0,0-3.11-1.7,16.39,16.39,0,0,0,3.11-1.71,15.92,15.92,0,0,0,1.7-3.11,16.09,16.09,0,0,0,1.71,3.11,16.09,16.09,0,0,0,3.11,1.71,15.92,15.92,0,0,0-3.11,1.7A16.39,16.39,0,0,0,304.54,409.34Z"/><path class="cls-24" d="M301,352.19a16.22,16.22,0,0,0-1.7-3.12,16.8,16.8,0,0,0-3.11-1.7,16.8,16.8,0,0,0,3.11-1.7,16.22,16.22,0,0,0,1.7-3.12,16.81,16.81,0,0,0,1.7,3.12,16.81,16.81,0,0,0,3.12,1.7,16.81,16.81,0,0,0-3.12,1.7A16.81,16.81,0,0,0,301,352.19Z"/><path class="cls-25" d="M424.32,415.12a16.39,16.39,0,0,0-1.71-3.11,15.92,15.92,0,0,0-3.11-1.7,6.36,6.36,0,0,0,4.82-4.82,15.92,15.92,0,0,0,1.7,3.11,16.39,16.39,0,0,0,3.11,1.71,6.3,6.3,0,0,0-4.81,4.81Z"/><path class="cls-26" d="M315.72,355.75a1.61,1.61,0,1,0,1.61,1.61A1.61,1.61,0,0,0,315.72,355.75Z"/><path class="cls-27" d="M341.92,444a5.29,5.29,0,0,1-.56,1,5.47,5.47,0,0,1-1,.57,2.06,2.06,0,0,1,1.6,1.6,5.47,5.47,0,0,1,.57-1,5.29,5.29,0,0,1,1-.56,2.12,2.12,0,0,1-1.61-1.61Z"/><path class="cls-28" d="M297.61,413.22a5.46,5.46,0,0,1-.57,1,5.17,5.17,0,0,1-1,.57,5.17,5.17,0,0,1,1,.57,5.46,5.46,0,0,1,.57,1,2.12,2.12,0,0,1,1.61-1.6,2.12,2.12,0,0,1-1.61-1.6Z"/><path class="cls-29" d="M319.69,391.3a5.9,5.9,0,0,1-.56,1,5.47,5.47,0,0,1-1,.57,5.47,5.47,0,0,1,1,.57,5.56,5.56,0,0,1,.56,1,5.17,5.17,0,0,1,.57-1,5.47,5.47,0,0,1,1-.57,2.12,2.12,0,0,1-1.61-1.61Z"/><path class="cls-30" d="M419.8,342.25a5.9,5.9,0,0,1-.56,1,5.47,5.47,0,0,1-1,.57,5.29,5.29,0,0,1,1,.56,5.9,5.9,0,0,1,.56,1,5.47,5.47,0,0,1,.57-1,5.29,5.29,0,0,1,1-.56,2.12,2.12,0,0,1-1.61-1.61Z"/><path class="cls-31" d="M401.2,414.8a2.12,2.12,0,0,1-1.61,1.61,5.47,5.47,0,0,1,1,.57,5.17,5.17,0,0,1,.57,1,5,5,0,0,1,.56-1,5.47,5.47,0,0,1,1-.57,5.47,5.47,0,0,1-1-.57A5.29,5.29,0,0,1,401.2,414.8Z"/><path class="cls-32" d="M410.74,391a.54.54,0,1,1,.54.54A.54.54,0,0,1,410.74,391Zm-4.29,9.83a1.07,1.07,0,1,0-1.07-1.07A1.07,1.07,0,0,0,406.45,400.8Zm-2.14-12.86a2.15,2.15,0,1,0-2.15-2.15A2.14,2.14,0,0,0,404.31,387.94Zm18.58-2.51a1.07,1.07,0,1,0-1.07-1.07A1.07,1.07,0,0,0,422.89,385.43Z"/><path class="cls-33" d="M316.83,429.38a.53.53,0,0,1-.49.58.53.53,0,1,1-.09-1.06A.52.52,0,0,1,316.83,429.38Zm3.44-10.15a1.07,1.07,0,0,0,.18,2.13,1.07,1.07,0,1,0-.18-2.13Zm3.23,12.64a2.14,2.14,0,1,0,2.32,1.95A2.13,2.13,0,0,0,323.5,431.87Zm-18.31,4.07a1.06,1.06,0,0,0-1,1.15,1.07,1.07,0,1,0,1-1.15Z"/><path class="cls-34" d="M10.92,451.86a5.29,5.29,0,0,1-.56,1,5.47,5.47,0,0,1-1,.57,5.29,5.29,0,0,1,1,.56,5.29,5.29,0,0,1,.56,1,5.47,5.47,0,0,1,.57-1,5.29,5.29,0,0,1,1-.56,5.47,5.47,0,0,1-1-.57A5.47,5.47,0,0,1,10.92,451.86Z"/><path class="cls-35" d="M86.49,415.89a9.75,9.75,0,0,0,.43,2.08,9.79,9.79,0,0,0,1.48,1.52,9.75,9.75,0,0,0-2.08.43,9.74,9.74,0,0,0-1.52,1.49,9.75,9.75,0,0,0-.43-2.08,9.92,9.92,0,0,0-1.49-1.53,9.75,9.75,0,0,0,2.08-.43A10,10,0,0,0,86.49,415.89Z"/><path class="cls-36" d="M114,353.44a9.8,9.8,0,0,0,.44,2.08,10,10,0,0,0,1.48,1.53,9.75,9.75,0,0,0-2.08.43,9.74,9.74,0,0,0-1.52,1.49,10.49,10.49,0,0,0-.43-2.09,9.74,9.74,0,0,0-1.49-1.52,9.75,9.75,0,0,0,2.08-.43A9.74,9.74,0,0,0,114,353.44Z"/><path class="cls-37" d="M180.71,433.84a9.75,9.75,0,0,0,.43,2.08,9.92,9.92,0,0,0,1.49,1.53,9.75,9.75,0,0,0-2.08.43,10,10,0,0,0-1.53,1.48,3.79,3.79,0,0,0-1.91-3.6,9.75,9.75,0,0,0,2.08-.43A9.74,9.74,0,0,0,180.71,433.84Z"/><path class="cls-38" d="M196.62,404.9a16.91,16.91,0,0,0,.72,3.48,16.68,16.68,0,0,0,2.48,2.54,16.55,16.55,0,0,0-3.47.71,16.21,16.21,0,0,0-2.54,2.48,16.08,16.08,0,0,0-.72-3.47,16.21,16.21,0,0,0-2.48-2.54,16.26,16.26,0,0,0,3.48-.72A16.5,16.5,0,0,0,196.62,404.9Z"/><path class="cls-39" d="M183.29,460.59a16.14,16.14,0,0,0,.72,3.48,16.22,16.22,0,0,0,2.48,2.54,16.61,16.61,0,0,0-3.48.71,16.68,16.68,0,0,0-2.54,2.48,16.55,16.55,0,0,0-.71-3.47,16.68,16.68,0,0,0-2.48-2.54,16.08,16.08,0,0,0,3.47-.72A16.22,16.22,0,0,0,183.29,460.59Z"/><path class="cls-40" d="M83.78,364.35a16.61,16.61,0,0,0,.71,3.48A16.68,16.68,0,0,0,87,370.37a16.55,16.55,0,0,0-3.47.71A16.21,16.21,0,0,0,81,373.56a16.08,16.08,0,0,0-.72-3.47,16.22,16.22,0,0,0-2.48-2.54,16.26,16.26,0,0,0,3.48-.72A16.22,16.22,0,0,0,83.78,364.35Z"/><path class="cls-41" d="M170.26,452.89a1.61,1.61,0,1,0-1.07-2A1.62,1.62,0,0,0,170.26,452.89Z"/><path class="cls-42" d="M171,360.79a5.6,5.6,0,0,1,.85-.83,5.38,5.38,0,0,1,1.16-.24,2.08,2.08,0,0,1-1.07-2,5.16,5.16,0,0,1-.85.83,5.32,5.32,0,0,1-1.15.24,5.47,5.47,0,0,1,.82.84A5.38,5.38,0,0,1,171,360.79Z"/><path class="cls-43" d="M204.38,403.23a5.6,5.6,0,0,1,.85-.83,5.38,5.38,0,0,1,1.16-.24,5.16,5.16,0,0,1-.83-.85,5.32,5.32,0,0,1-.24-1.15,5.47,5.47,0,0,1-.84.82,5.38,5.38,0,0,1-1.16.24,5.6,5.6,0,0,1,.83.85A5.88,5.88,0,0,1,204.38,403.23Z"/><path class="cls-44" d="M176.86,417.72a5.66,5.66,0,0,1,.85-.82,5.32,5.32,0,0,1,1.15-.24,5.66,5.66,0,0,1-.82-.85,5.38,5.38,0,0,1-.24-1.16,5.16,5.16,0,0,1-.85.83,5.32,5.32,0,0,1-1.15.24,5.2,5.2,0,0,1,.82.85A5.32,5.32,0,0,1,176.86,417.72Z"/><path class="cls-45" d="M66.78,435.36a5.6,5.6,0,0,1,.85-.83,6.08,6.08,0,0,1,1.16-.24,5.43,5.43,0,0,1-.83-.84,5.38,5.38,0,0,1-.24-1.16,5.43,5.43,0,0,1-.84.83,5.38,5.38,0,0,1-1.16.24,5,5,0,0,1,.82.84A5.38,5.38,0,0,1,66.78,435.36Z"/><path class="cls-46" d="M105.79,371.42a5.6,5.6,0,0,1,.85-.83,5.32,5.32,0,0,1,1.15-.24,5.47,5.47,0,0,1-.82-.84,5.38,5.38,0,0,1-.24-1.16,5.16,5.16,0,0,1-.85.83,6,6,0,0,1-1.15.24,5.47,5.47,0,0,1,.82.84A5.38,5.38,0,0,1,105.79,371.42Z"/><path class="cls-47" d="M89.7,391.42a.54.54,0,0,1-.67.35.53.53,0,0,1-.36-.67.54.54,0,0,1,1,.32Zm7-8.15a1.07,1.07,0,0,0-.63,2.05,1.07,1.07,0,0,0,.63-2.05ZM95,396.2a2.14,2.14,0,1,0,1.42,2.68A2.15,2.15,0,0,0,95,396.2Zm-18.51-3a1.09,1.09,0,0,0-1.34.71,1.08,1.08,0,1,0,1.34-.71Z"/><path class="cls-48" d="M221.61,362.47a9.47,9.47,0,0,0-2.12.15,9.56,9.56,0,0,0-1.71,1.27,3.8,3.8,0,0,0-1.42-3.83,9.47,9.47,0,0,0,2.12-.15,9.56,9.56,0,0,0,1.71-1.27,3.8,3.8,0,0,0,1.42,3.83Z"/><path class="cls-49" d="M273,366.66a16.28,16.28,0,0,0-3.54.25,15.94,15.94,0,0,0-2.84,2.11,16.28,16.28,0,0,0-.25-3.54,16.38,16.38,0,0,0-2.12-2.84,16.25,16.25,0,0,0,3.54-.25,16.55,16.55,0,0,0,2.85-2.12,16.25,16.25,0,0,0,.25,3.54A16.1,16.1,0,0,0,273,366.66Z"/><path class="cls-50" d="M263.1,387.53a2.09,2.09,0,0,1,.79,2.13,5.26,5.26,0,0,1,.95-.7,5.12,5.12,0,0,1,1.18-.09,6,6,0,0,1-.71-.94,5.59,5.59,0,0,1-.08-1.18,5.26,5.26,0,0,1-1,.7A5.56,5.56,0,0,1,263.1,387.53Z"/><path class="cls-51" d="M245.43,368.91a.53.53,0,1,1,.45-1,.53.53,0,1,1-.45,1Zm7.15,8a1.07,1.07,0,1,0-1.43.53A1.08,1.08,0,0,0,252.58,376.91ZM240,373.49a2.15,2.15,0,1,0-2.85,1.06A2.14,2.14,0,0,0,240,373.49Zm5.48-17.93a1.07,1.07,0,1,0-1.42.52A1.06,1.06,0,0,0,245.47,355.56Z"/><path class="cls-52" d="M125,400.61a7.14,7.14,0,0,1-1.11,1,6.85,6.85,0,0,1-1.48.23,6.86,6.86,0,0,1,1,1.12,6.7,6.7,0,0,1,.23,1.47,6.86,6.86,0,0,1,1.12-1,6.7,6.7,0,0,1,1.47-.23,7.14,7.14,0,0,1-1-1.11A6.85,6.85,0,0,1,125,400.61Z"/><path class="cls-53" d="M146.54,376.41a.68.68,0,0,1,1.27.46.68.68,0,0,1-.87.41A.67.67,0,0,1,146.54,376.41Zm-9.3,9.83a1.35,1.35,0,1,0-.81-1.73A1.35,1.35,0,0,0,137.24,386.24Zm3-16.18a2.71,2.71,0,1,0-1.63-3.47A2.71,2.71,0,0,0,140.2,370.06Zm23.13,5a1.36,1.36,0,1,0-.81-1.73A1.35,1.35,0,0,0,163.33,375Z"/><path class="cls-54" d="M408.42,543.88a7.49,7.49,0,0,1,.14-1.49,7.09,7.09,0,0,1,.93-1.17,2.64,2.64,0,0,1-2.66-1.06,7.4,7.4,0,0,1-.14,1.48,6.68,6.68,0,0,1-.93,1.17,7,7,0,0,1,1.49.15A6.65,6.65,0,0,1,408.42,543.88Z"/><path class="cls-55" d="M409.19,576.25a.67.67,0,0,1-.36.89.68.68,0,0,1-.89-.35.69.69,0,0,1,.36-.89A.68.68,0,0,1,409.19,576.25Zm.09-13.53a1.36,1.36,0,1,0,1.78.71A1.37,1.37,0,0,0,409.28,562.72Zm8.88,13.86a2.71,2.71,0,1,0,3.55,1.42A2.7,2.7,0,0,0,418.16,576.58Zm-20.31,12.14a1.35,1.35,0,1,0,1.77.71A1.34,1.34,0,0,0,397.85,588.72Z"/><path class="cls-56" d="M354.44,411a7,7,0,0,1,.18,1.48,6.82,6.82,0,0,1-.65,1.35,6.9,6.9,0,0,1,1.48-.18,6.67,6.67,0,0,1,1.34.65,7,7,0,0,1-.18-1.49,7.62,7.62,0,0,1,.65-1.34,6.9,6.9,0,0,1-1.48.18A6.67,6.67,0,0,1,354.44,411Z"/><path class="cls-57" d="M346.74,379.54a.68.68,0,0,1,.16-1,.67.67,0,1,1,.78,1.1A.67.67,0,0,1,346.74,379.54Zm2.81,13.23a1.35,1.35,0,1,0-1.88-.31A1.36,1.36,0,0,0,349.55,392.77Zm-11.64-11.63a2.71,2.71,0,1,0-3.78-.63A2.7,2.7,0,0,0,337.91,381.14Zm17.23-16.21a1.35,1.35,0,1,0-1.89-.31A1.36,1.36,0,0,0,355.14,364.93Z"/><path class="cls-58" d="M190.73,382.14a.54.54,0,1,1,.41.64A.54.54,0,0,1,190.73,382.14Zm-6.26,8.71a1.07,1.07,0,0,0,1.28-.82,1.09,1.09,0,0,0-.83-1.28,1.07,1.07,0,0,0-1.27.83A1.06,1.06,0,0,0,184.47,390.85Zm.61-13a2.14,2.14,0,1,0-1.65-2.55A2.15,2.15,0,0,0,185.08,377.82Zm18.7,1.46a1.06,1.06,0,0,0,1.27-.82,1.07,1.07,0,0,0-.82-1.28A1.09,1.09,0,0,0,203,378,1.07,1.07,0,0,0,203.78,379.28Z"/><path class="cls-59" d="M51.73,675.77a10.08,10.08,0,0,0-1.6,1.41,10,10,0,0,0-.58,2.05,9.69,9.69,0,0,0-1.41-1.59,9.55,9.55,0,0,0-2-.59,9.66,9.66,0,0,0,1.6-1.41,10,10,0,0,0,.58-2,9.69,9.69,0,0,0,1.41,1.59A9.38,9.38,0,0,0,51.73,675.77Z"/><path class="cls-60" d="M27.25,655a15.77,15.77,0,0,0-2.66,2.35,16.47,16.47,0,0,0-1,3.41,16.25,16.25,0,0,0-2.35-2.66,16.52,16.52,0,0,0-3.42-1,16.25,16.25,0,0,0,2.66-2.35,15.85,15.85,0,0,0,1-3.41A16.68,16.68,0,0,0,23.83,654,16.52,16.52,0,0,0,27.25,655Z"/><path class="cls-61" d="M32.06,677.61a5.9,5.9,0,0,1,1.14.32,5.49,5.49,0,0,1,.78.89,5.9,5.9,0,0,1,.32-1.14,5.49,5.49,0,0,1,.89-.78,5.9,5.9,0,0,1-1.14-.32,5.49,5.49,0,0,1-.78-.89,5.9,5.9,0,0,1-.32,1.14A5.49,5.49,0,0,1,32.06,677.61Z"/><path class="cls-62" d="M6.71,673.58a.53.53,0,1,1,.4-.64A.52.52,0,0,1,6.71,673.58Zm10.53,2a1.07,1.07,0,1,0-.8,1.28A1.07,1.07,0,0,0,17.24,675.59ZM5.17,680.53a2.14,2.14,0,1,0-1.62,2.57A2.14,2.14,0,0,0,5.17,680.53ZM-1.39,663a1.07,1.07,0,0,0-1.28-.81,1.08,1.08,0,0,0-.81,1.29,1.08,1.08,0,0,0,1.28.81A1.08,1.08,0,0,0-1.39,663Z"/><path class="cls-63" d="M85.33,619.94a9.81,9.81,0,0,0,.43,2.09,9.74,9.74,0,0,0,1.49,1.52,9.75,9.75,0,0,0-2.08.43,9.92,9.92,0,0,0-1.53,1.49,9.81,9.81,0,0,0-.43-2.09,9.79,9.79,0,0,0-1.48-1.52,9.75,9.75,0,0,0,2.08-.43A9.74,9.74,0,0,0,85.33,619.94Z"/><path class="cls-64" d="M112.82,557.5a9.75,9.75,0,0,0,.43,2.08,9.92,9.92,0,0,0,1.49,1.53,9.63,9.63,0,0,0-2.08.43,10,10,0,0,0-1.53,1.48,9.75,9.75,0,0,0-.43-2.08,9.74,9.74,0,0,0-1.49-1.52,10.49,10.49,0,0,0,2.09-.43A9.74,9.74,0,0,0,112.82,557.5Z"/><path class="cls-65" d="M358.68,665.06a3.77,3.77,0,0,0,1.92,3.6,3.77,3.77,0,0,0-3.61,1.92,9.75,9.75,0,0,0-.43-2.08,9.92,9.92,0,0,0-1.49-1.53,3.79,3.79,0,0,0,3.61-1.91Z"/><path class="cls-66" d="M374.59,636.12a16.08,16.08,0,0,0,.72,3.47,15.77,15.77,0,0,0,2.48,2.54,16.14,16.14,0,0,0-3.48.72,16.68,16.68,0,0,0-2.54,2.48,16.73,16.73,0,0,0-.71-3.48,16.5,16.5,0,0,0-2.48-2.53,16.72,16.72,0,0,0,3.47-.72A16.68,16.68,0,0,0,374.59,636.12Z"/><path class="cls-67" d="M182.14,664.65a16.73,16.73,0,0,0,.71,3.48,16.5,16.5,0,0,0,2.48,2.53,16.72,16.72,0,0,0-3.47.72,16.21,16.21,0,0,0-2.54,2.48,16.08,16.08,0,0,0-.72-3.47,15.77,15.77,0,0,0-2.48-2.54,16.26,16.26,0,0,0,3.48-.72A16.68,16.68,0,0,0,182.14,664.65Z"/><path class="cls-68" d="M82.62,568.41a16.26,16.26,0,0,0,.72,3.48,16.5,16.5,0,0,0,2.48,2.53,16.91,16.91,0,0,0-3.48.72,16.5,16.5,0,0,0-2.53,2.48,16.72,16.72,0,0,0-.72-3.47,16.21,16.21,0,0,0-2.48-2.54,16.08,16.08,0,0,0,3.47-.72A16.21,16.21,0,0,0,82.62,568.41Z"/><path class="cls-69" d="M169.11,656.94a1.61,1.61,0,1,0-1.07-2A1.6,1.6,0,0,0,169.11,656.94Z"/><path class="cls-70" d="M81.61,507.65a5.2,5.2,0,0,1,.85-.82,5.38,5.38,0,0,1,1.16-.24,5.6,5.6,0,0,1-.83-.85,5.38,5.38,0,0,1-.24-1.16,5.43,5.43,0,0,1-.84.83,5.38,5.38,0,0,1-1.16.24,5,5,0,0,1,.82.84A5.5,5.5,0,0,1,81.61,507.65Z"/><path class="cls-71" d="M203.23,607.28a5.66,5.66,0,0,1,.85-.82,5.32,5.32,0,0,1,1.15-.24,5.66,5.66,0,0,1-.82-.85,5.38,5.38,0,0,1-.24-1.16,5.6,5.6,0,0,1-.85.83,5.32,5.32,0,0,1-1.15.24,5.2,5.2,0,0,1,.82.85A5.32,5.32,0,0,1,203.23,607.28Z"/><path class="cls-72" d="M354.83,648.94a2.08,2.08,0,0,1,2-1.07A5.43,5.43,0,0,1,356,647a5.88,5.88,0,0,1-.23-1.16,5.6,5.6,0,0,1-.85.83,5.38,5.38,0,0,1-1.16.24,2.08,2.08,0,0,1,1.07,2Z"/><path class="cls-73" d="M65.63,639.42a5.16,5.16,0,0,1,.85-.83,5.32,5.32,0,0,1,1.15-.24,5.47,5.47,0,0,1-.82-.84,5.38,5.38,0,0,1-.24-1.16,5.6,5.6,0,0,1-.85.83,5.82,5.82,0,0,1-1.15.23,5.66,5.66,0,0,1,.82.85A5.38,5.38,0,0,1,65.63,639.42Z"/><path class="cls-74" d="M104.64,575.48a5.43,5.43,0,0,1,.84-.83,5.5,5.5,0,0,1,1.16-.24,5,5,0,0,1-.82-.84,5.5,5.5,0,0,1-.24-1.16,5.66,5.66,0,0,1-.85.82,5.38,5.38,0,0,1-1.16.24,5.6,5.6,0,0,1,.83.85A5.38,5.38,0,0,1,104.64,575.48Z"/><path class="cls-75" d="M155.65,511.9a.53.53,0,1,1-1-.31.53.53,0,1,1,1,.31Zm7-8.15a1.07,1.07,0,0,0-1.34.72,1.09,1.09,0,0,0,.71,1.34,1.08,1.08,0,0,0,.63-2.06Zm-1.71,12.94a2.14,2.14,0,1,0,1.42,2.68A2.15,2.15,0,0,0,160.92,516.69Zm-18.51-3a1.07,1.07,0,0,0-1.34.71,1.08,1.08,0,0,0,.72,1.34,1.07,1.07,0,0,0,1.33-.72A1.05,1.05,0,0,0,142.41,513.65Z"/><path class="cls-76" d="M241.09,649.35a9.93,9.93,0,0,0-.8-2,10.2,10.2,0,0,0-1.73-1.23,9.9,9.9,0,0,0,2-.8,9.65,9.65,0,0,0,1.23-1.73,9.9,9.9,0,0,0,.8,2,9.63,9.63,0,0,0,1.74,1.23,9.93,9.93,0,0,0-2,.8A10.18,10.18,0,0,0,241.09,649.35Z"/><path class="cls-77" d="M253.05,699.55a16.22,16.22,0,0,0-1.33-3.29,16.06,16.06,0,0,0-2.9-2,16,16,0,0,0,3.29-1.34,16.61,16.61,0,0,0,2-2.89,16.45,16.45,0,0,0,1.33,3.29,16.59,16.59,0,0,0,2.9,2.05,16.22,16.22,0,0,0-3.29,1.33A16.06,16.06,0,0,0,253.05,699.55Z"/><path class="cls-78" d="M257,626.64a5.36,5.36,0,0,1-.68,1,5.12,5.12,0,0,1-1.09.45,5.36,5.36,0,0,1,1,.68,5.56,5.56,0,0,1,.44,1.1,5.93,5.93,0,0,1,.69-1,5.53,5.53,0,0,1,1.09-.44,5,5,0,0,1-1-.69A5.12,5.12,0,0,1,257,626.64Z"/><path class="cls-79" d="M230.12,696.56a5.35,5.35,0,0,1-.68,1,5.56,5.56,0,0,1-1.1.44,5.36,5.36,0,0,1,1,.69,5.53,5.53,0,0,1,.44,1.09,2.12,2.12,0,0,1,1.78-1.41,5.72,5.72,0,0,1-1-.68A5.56,5.56,0,0,1,230.12,696.56Z"/><path class="cls-80" d="M242.35,674a.53.53,0,1,1,.47.6A.54.54,0,0,1,242.35,674ZM237,683.26a1.07,1.07,0,0,0,.24-2.13,1.07,1.07,0,1,0-.24,2.13Zm-.65-13a2.14,2.14,0,1,0-1.89-2.37A2.15,2.15,0,0,0,236.31,670.23Zm18.75-.34a1.07,1.07,0,1,0-.94-1.19A1.07,1.07,0,0,0,255.06,669.89Z"/><path class="cls-81" d="M54.29,460.21a9.66,9.66,0,0,0-.8-2A9.63,9.63,0,0,0,51.75,457a9.66,9.66,0,0,0,2-.8A9.63,9.63,0,0,0,55,454.47a9.9,9.9,0,0,0,.8,2,9.63,9.63,0,0,0,1.74,1.23,9.66,9.66,0,0,0-2,.8A9.63,9.63,0,0,0,54.29,460.21Z"/><path class="cls-82" d="M78.84,539.42a9.49,9.49,0,0,0-.79-2,10,10,0,0,0-1.74-1.23,9.9,9.9,0,0,0,2-.8,9.63,9.63,0,0,0,1.23-1.74,9.9,9.9,0,0,0,.8,2,9.63,9.63,0,0,0,1.74,1.23,9.93,9.93,0,0,0-2,.8A10.18,10.18,0,0,0,78.84,539.42Z"/><path class="cls-83" d="M82.61,511.68a16.19,16.19,0,0,0-1.33-3.28,16.06,16.06,0,0,0-2.9-2A16.4,16.4,0,0,0,81.67,505a16.07,16.07,0,0,0,2-2.89,16.45,16.45,0,0,0,1.33,3.29,16.59,16.59,0,0,0,2.9,2,16.45,16.45,0,0,0-3.29,1.33A16.61,16.61,0,0,0,82.61,511.68Z"/><path class="cls-84" d="M110.5,450.33a5,5,0,0,1-.69,1,5.53,5.53,0,0,1-1.09.44,5,5,0,0,1,1,.69,5.12,5.12,0,0,1,.45,1.09,5.36,5.36,0,0,1,.68-1,5.15,5.15,0,0,1,1.1-.45,5.35,5.35,0,0,1-1-.68A5.56,5.56,0,0,1,110.5,450.33Z"/><path class="cls-85" d="M59.68,508.7a5.72,5.72,0,0,1-.68,1,5.56,5.56,0,0,1-1.1.44,5,5,0,0,1,1,.69,5.53,5.53,0,0,1,.44,1.09,5,5,0,0,1,.69-1,5.12,5.12,0,0,1,1.09-.45,5.36,5.36,0,0,1-1-.68A5.15,5.15,0,0,1,59.68,508.7Z"/><path class="cls-86" d="M55.54,484.86a.54.54,0,1,1,.47.59A.54.54,0,0,1,55.54,484.86Zm-5.39,9.27a1.08,1.08,0,1,0-.94-1.19A1.08,1.08,0,0,0,50.15,494.13Zm-.65-13a2.15,2.15,0,1,0-1.88-2.38A2.15,2.15,0,0,0,49.5,481.1Zm18.75-.35a1.07,1.07,0,1,0-.94-1.19A1.07,1.07,0,0,0,68.25,480.75Z"/><path class="cls-87" d="M263.68,413.21a9.93,9.93,0,0,0-.8-2,10.18,10.18,0,0,0-1.74-1.23,9.11,9.11,0,0,0,2-.8,9.65,9.65,0,0,0,1.23-1.73,9.9,9.9,0,0,0,.8,2,9.63,9.63,0,0,0,1.74,1.23,9.9,9.9,0,0,0-2,.8A9.63,9.63,0,0,0,263.68,413.21Z"/><path class="cls-88" d="M306.33,512.67a3.75,3.75,0,0,0-2.54-3.2,9.93,9.93,0,0,0,2-.8,10.18,10.18,0,0,0,1.23-1.74,9.71,9.71,0,0,0,.79,2,10,10,0,0,0,1.74,1.23,9.9,9.9,0,0,0-2,.8A9.63,9.63,0,0,0,306.33,512.67Z"/><path class="cls-89" d="M334.07,496.49a16,16,0,0,0-1.34-3.29,16.61,16.61,0,0,0-2.89-2.05,16.45,16.45,0,0,0,3.29-1.33,16.59,16.59,0,0,0,2.05-2.9,16.22,16.22,0,0,0,1.33,3.29,16.06,16.06,0,0,0,2.9,2.05,16.22,16.22,0,0,0-3.29,1.33A16.06,16.06,0,0,0,334.07,496.49Z"/><path class="cls-90" d="M271.26,387.15a5,5,0,0,1-.69,1,5.53,5.53,0,0,1-1.09.44,5.54,5.54,0,0,1,1,.69,5.12,5.12,0,0,1,.45,1.09,5.36,5.36,0,0,1,.68-1,5.15,5.15,0,0,1,1.1-.45,5.35,5.35,0,0,1-1-.68A5.53,5.53,0,0,1,271.26,387.15Z"/><path class="cls-91" d="M311.14,493.51a2.12,2.12,0,0,1-1.78,1.41,5.36,5.36,0,0,1,1,.68,5.15,5.15,0,0,1,.45,1.1,5.35,5.35,0,0,1,.68-1,5.56,5.56,0,0,1,1.1-.44,5.36,5.36,0,0,1-1-.69A5.53,5.53,0,0,1,311.14,493.51Z"/><path class="cls-92" d="M323.37,470.94a.52.52,0,0,1,.59-.47.53.53,0,0,1,.47.59.53.53,0,1,1-1.06-.12Zm-5.4,9.27A1.07,1.07,0,1,0,317,479,1.08,1.08,0,0,0,318,480.21Zm-.64-13a2.14,2.14,0,1,0-1.89-2.38A2.14,2.14,0,0,0,317.33,467.18Zm18.75-.35a1.07,1.07,0,0,0,1.19-.94,1.07,1.07,0,1,0-2.13-.24A1.06,1.06,0,0,0,336.08,466.83Z"/><path class="cls-93" d="M125.29,540.56a.54.54,0,0,1,1,.23.53.53,0,0,1-.63.41A.54.54,0,0,1,125.29,540.56ZM119,549.27a1.07,1.07,0,1,0-.82-1.27A1.07,1.07,0,0,0,119,549.27Zm.61-13a2.14,2.14,0,1,0-1.64-2.55A2.15,2.15,0,0,0,119.64,536.24Zm18.7,1.46a1.07,1.07,0,1,0-.82-1.27A1.07,1.07,0,0,0,138.34,537.7Z"/><path class="cls-94" d="M14.31,595.71a.53.53,0,1,1-1-.31A.55.55,0,0,1,14,595,.54.54,0,0,1,14.31,595.71Zm7-8.14a1.06,1.06,0,0,0-1.34.71,1.09,1.09,0,0,0,.71,1.34A1.07,1.07,0,0,0,22,588.9,1.05,1.05,0,0,0,21.29,587.57ZM19.58,600.5A2.14,2.14,0,1,0,21,603.18,2.15,2.15,0,0,0,19.58,600.5Zm-18.51-3a1.07,1.07,0,0,0-1.34.71,1.08,1.08,0,0,0,.72,1.34,1.07,1.07,0,0,0,1.33-.71A1.06,1.06,0,0,0,1.07,597.46Z"/><path class="cls-95" d="M81.12,698.53a9.93,9.93,0,0,0-.8-2,10.18,10.18,0,0,0-1.74-1.23,9.49,9.49,0,0,0,2-.79,10,10,0,0,0,1.23-1.74,9.9,9.9,0,0,0,.8,2A9.63,9.63,0,0,0,84.32,696a9.66,9.66,0,0,0-2,.8A9.63,9.63,0,0,0,81.12,698.53Z"/><path class="cls-96" d="M108.85,682.35a16.45,16.45,0,0,0-1.33-3.29,16.61,16.61,0,0,0-2.89-2,16.19,16.19,0,0,0,3.28-1.33,16.06,16.06,0,0,0,2-2.9,16.4,16.4,0,0,0,1.34,3.29,16.07,16.07,0,0,0,2.89,2,16.45,16.45,0,0,0-3.29,1.33A16.59,16.59,0,0,0,108.85,682.35Z"/><path class="cls-97" d="M85.93,679.37a5.54,5.54,0,0,1-.69,1,5.12,5.12,0,0,1-1.09.45,5.36,5.36,0,0,1,1,.68,5.75,5.75,0,0,1,.45,1.1,5.35,5.35,0,0,1,.68-1,5.53,5.53,0,0,1,1.09-.44,5,5,0,0,1-1-.69A5.53,5.53,0,0,1,85.93,679.37Z"/><path class="cls-98" d="M127.57,699.67a.53.53,0,1,1,.41.64A.53.53,0,0,1,127.57,699.67Zm-6.26,8.71a1.07,1.07,0,0,0,.45-2.1,1.07,1.07,0,1,0-.45,2.1Zm.6-13a2.15,2.15,0,1,0-1.64-2.55A2.15,2.15,0,0,0,121.91,695.35Zm18.7,1.46a1.07,1.07,0,1,0-.82-1.27A1.07,1.07,0,0,0,140.61,696.81Z"/><path class="cls-99" d="M387.06,532.35A3.85,3.85,0,0,0,389,536a3.79,3.79,0,0,0-3.6,1.91,9.92,9.92,0,0,0-.44-2.08,9.35,9.35,0,0,0-1.48-1.52,10.43,10.43,0,0,0,2.08-.43A9.74,9.74,0,0,0,387.06,532.35Z"/><path class="cls-100" d="M403,503.41a16.73,16.73,0,0,0,.71,3.48,16.5,16.5,0,0,0,2.48,2.53,16.72,16.72,0,0,0-3.47.72,16.68,16.68,0,0,0-2.54,2.48,16.08,16.08,0,0,0-.72-3.47,15.77,15.77,0,0,0-2.48-2.54,16.26,16.26,0,0,0,3.48-.72A16.68,16.68,0,0,0,403,503.41Z"/><path class="cls-101" d="M367,589.15a16.26,16.26,0,0,0,.72,3.48,16.5,16.5,0,0,0,2.48,2.53,16.91,16.91,0,0,0-3.48.72,16.5,16.5,0,0,0-2.53,2.48,16.72,16.72,0,0,0-.72-3.47,16.21,16.21,0,0,0-2.48-2.54,16.08,16.08,0,0,0,3.47-.72A16.21,16.21,0,0,0,367,589.15Z"/><path class="cls-102" d="M480.27,636.82a9.38,9.38,0,0,0-1-1.86,9.55,9.55,0,0,0-1.86-1,3.79,3.79,0,0,0,2.88-2.88,9.55,9.55,0,0,0,1,1.86,9.38,9.38,0,0,0,1.86,1,3.85,3.85,0,0,0-2.89,2.89Z"/><path class="cls-103" d="M473.52,669.15a6.29,6.29,0,0,0-4.82-4.82,16.22,16.22,0,0,0,3.12-1.7,16.8,16.8,0,0,0,1.7-3.11,16.8,16.8,0,0,0,1.7,3.11,16.22,16.22,0,0,0,3.12,1.7,6.29,6.29,0,0,0-4.82,4.82Z"/><path class="cls-104" d="M470,612a16.49,16.49,0,0,0-1.7-3.11,16.22,16.22,0,0,0-3.12-1.7,6.32,6.32,0,0,0,4.82-4.82,15.92,15.92,0,0,0,1.7,3.11,16.39,16.39,0,0,0,3.11,1.71,16.21,16.21,0,0,0-3.11,1.7A15.92,15.92,0,0,0,470,612Z"/><path class="cls-105" d="M484.7,615.55a1.62,1.62,0,1,0,1.61,1.61A1.61,1.61,0,0,0,484.7,615.55Z"/><path class="cls-106" d="M466.59,673a5.47,5.47,0,0,1-.57,1,5.29,5.29,0,0,1-1,.56,2.12,2.12,0,0,1,1.61,1.61,5.47,5.47,0,0,1,.57-1,5.17,5.17,0,0,1,1-.57,5,5,0,0,1-1-.56A5.47,5.47,0,0,1,466.59,673Z"/><path class="cls-107" d="M488.67,651.11a5.47,5.47,0,0,1-.57,1,5.9,5.9,0,0,1-1,.56,2.12,2.12,0,0,1,1.6,1.61,2.12,2.12,0,0,1,1.6-1.61,5.9,5.9,0,0,1-1-.56A5.47,5.47,0,0,1,488.67,651.11Z"/><path class="cls-108" d="M485.81,689.19a.54.54,0,0,1-.49.58.54.54,0,0,1-.58-.49.55.55,0,0,1,.49-.58A.54.54,0,0,1,485.81,689.19ZM489.25,679a1.07,1.07,0,1,0,1.16,1A1.07,1.07,0,0,0,489.25,679Zm3.23,12.64a2.14,2.14,0,1,0,2.32,2A2.15,2.15,0,0,0,492.48,691.67Zm-18.31,4.07a1.07,1.07,0,1,0,1.16,1A1.07,1.07,0,0,0,474.17,695.74Z"/><path class="cls-109" d="M376.62,551.4a1.61,1.61,0,1,0-1.07-2A1.61,1.61,0,0,0,376.62,551.4Z"/><path class="cls-110" d="M354.69,489.35a2.08,2.08,0,0,1,2-1.07,5.43,5.43,0,0,1-.83-.84,5.5,5.5,0,0,1-.24-1.16,5.47,5.47,0,0,1-.84.82,5.38,5.38,0,0,1-1.16.24,5.6,5.6,0,0,1,.83.85A6.08,6.08,0,0,1,354.69,489.35Z"/><path class="cls-111" d="M410.74,501.73a5.47,5.47,0,0,1,.84-.82,5.38,5.38,0,0,1,1.16-.24,5.6,5.6,0,0,1-.83-.85,5.82,5.82,0,0,1-.23-1.15,5.66,5.66,0,0,1-.85.82,5.38,5.38,0,0,1-1.16.24,5.6,5.6,0,0,1,.83.85A5.32,5.32,0,0,1,410.74,501.73Z"/><path class="cls-112" d="M383.21,516.23a5.2,5.2,0,0,1,.85-.82,5.38,5.38,0,0,1,1.16-.24,5.6,5.6,0,0,1-.83-.85,5.38,5.38,0,0,1-.24-1.16,2.08,2.08,0,0,1-2,1.07,5,5,0,0,1,.82.84A5.5,5.5,0,0,1,383.21,516.23Z"/><path class="cls-113" d="M397.08,480.65a.54.54,0,1,1,.41.64A.54.54,0,0,1,397.08,480.65Zm-6.26,8.71a1.07,1.07,0,1,0-.82-1.27A1.07,1.07,0,0,0,390.82,489.36Zm.61-13a2.14,2.14,0,1,0-1.64-2.55A2.15,2.15,0,0,0,391.43,476.33Zm18.7,1.46a1.07,1.07,0,1,0-.82-1.27A1.07,1.07,0,0,0,410.13,477.79Z"/><path class="cls-114" d="M479.82,424.16a12.47,12.47,0,0,0,.56,2.72,12.71,12.71,0,0,0,1.94,2,12.47,12.47,0,0,0-2.72.56,12.71,12.71,0,0,0-2,1.94,12.47,12.47,0,0,0-.56-2.72,12.71,12.71,0,0,0-1.94-2,12.47,12.47,0,0,0,2.72-.56A12.71,12.71,0,0,0,479.82,424.16Z"/><path class="cls-115" d="M500.57,386.42a20.91,20.91,0,0,0,.94,4.53,21.24,21.24,0,0,0,3.23,3.31,20.91,20.91,0,0,0-4.53.94,21.24,21.24,0,0,0-3.31,3.23,21.54,21.54,0,0,0-.94-4.53,21.24,21.24,0,0,0-3.23-3.31,21.54,21.54,0,0,0,4.53-.94A21.24,21.24,0,0,0,500.57,386.42Z"/><path class="cls-116" d="M466.19,449a2.1,2.1,0,1,0-1.4-2.63A2.1,2.1,0,0,0,466.19,449Z"/><path class="cls-117" d="M474.79,403.14a2.75,2.75,0,0,1,2.62-1.39,7,7,0,0,1-1.08-1.1,7.12,7.12,0,0,1-.31-1.51,7.68,7.68,0,0,1-1.11,1.08,7.12,7.12,0,0,1-1.51.31,7,7,0,0,1,1.08,1.1A7.12,7.12,0,0,1,474.79,403.14Z"/><path class="cls-118" d="M492.88,356.73a.71.71,0,0,1,.84-.54.7.7,0,1,1-.84.54Zm-8.16,11.36a1.4,1.4,0,1,0-1.07-1.66A1.39,1.39,0,0,0,484.72,368.09Zm.79-17a2.8,2.8,0,1,0-2.14-3.32A2.81,2.81,0,0,0,485.51,351.09ZM509.9,353a1.4,1.4,0,1,0-1.07-1.66A1.4,1.4,0,0,0,509.9,353Z"/></g><g class="cls-6"><path class="cls-119" d="M410.61,252.91a3.81,3.81,0,0,0-2.89-2.89,9.38,9.38,0,0,0,1.86-1,9.86,9.86,0,0,0,1-1.87,9.68,9.68,0,0,0,1,1.87,9.38,9.38,0,0,0,1.86,1,9.94,9.94,0,0,0-1.86,1A9.68,9.68,0,0,0,410.61,252.91Z"/><path class="cls-120" d="M402.58,320.66a3.81,3.81,0,0,0-2.89-2.89,9.68,9.68,0,0,0,1.87-1,9.94,9.94,0,0,0,1-1.86,9.38,9.38,0,0,0,1,1.86,9.68,9.68,0,0,0,1.87,1,9.86,9.86,0,0,0-1.87,1A9.38,9.38,0,0,0,402.58,320.66Z"/><path class="cls-121" d="M315.25,263.29a3.77,3.77,0,0,0-2.89-2.89,9.68,9.68,0,0,0,1.87-1,9.94,9.94,0,0,0,1-1.86,9.38,9.38,0,0,0,1,1.86,9.68,9.68,0,0,0,1.87,1,10.27,10.27,0,0,0-1.87,1A9.68,9.68,0,0,0,315.25,263.29Z"/><path class="cls-122" d="M308.49,295.62a16.22,16.22,0,0,0-1.7-3.12,16.8,16.8,0,0,0-3.11-1.7,16.21,16.21,0,0,0,3.11-1.7,16.21,16.21,0,0,0,1.7-3.11,16.39,16.39,0,0,0,1.71,3.11,15.92,15.92,0,0,0,3.11,1.7,16.49,16.49,0,0,0-3.11,1.7A16.4,16.4,0,0,0,308.49,295.62Z"/><path class="cls-123" d="M305,238.46a15.92,15.92,0,0,0-1.7-3.11,16.39,16.39,0,0,0-3.11-1.71,16.21,16.21,0,0,0,3.11-1.7,16.21,16.21,0,0,0,1.7-3.11,16.8,16.8,0,0,0,1.7,3.11,16.22,16.22,0,0,0,3.12,1.7,16.4,16.4,0,0,0-3.12,1.71A16.49,16.49,0,0,0,305,238.46Z"/><path class="cls-124" d="M428.27,301.4a16.4,16.4,0,0,0-1.71-3.12,16.49,16.49,0,0,0-3.11-1.7,15.92,15.92,0,0,0,3.11-1.7,16.39,16.39,0,0,0,1.71-3.11,16.21,16.21,0,0,0,1.7,3.11,16.21,16.21,0,0,0,3.11,1.7,16.8,16.8,0,0,0-3.11,1.7A16.22,16.22,0,0,0,428.27,301.4Z"/><path class="cls-125" d="M319.67,242a1.61,1.61,0,1,0,1.61,1.61A1.61,1.61,0,0,0,319.67,242Z"/><path class="cls-126" d="M345.88,330.32a2.12,2.12,0,0,1-1.61,1.6,2.12,2.12,0,0,1,1.61,1.6,5.28,5.28,0,0,1,.56-1,5.47,5.47,0,0,1,1-.57,5.47,5.47,0,0,1-1-.57A5.28,5.28,0,0,1,345.88,330.32Z"/><path class="cls-127" d="M301.56,299.49a5.9,5.9,0,0,1-.56,1,5.29,5.29,0,0,1-1,.56,5.47,5.47,0,0,1,1,.57,5.9,5.9,0,0,1,.56,1,2.12,2.12,0,0,1,1.61-1.61,5.29,5.29,0,0,1-1-.56A5.47,5.47,0,0,1,301.56,299.49Z"/><path class="cls-128" d="M323.64,277.58a5.29,5.29,0,0,1-.56,1,5.9,5.9,0,0,1-1,.56,5.47,5.47,0,0,1,1,.57,5.29,5.29,0,0,1,.56,1,2.12,2.12,0,0,1,1.61-1.61,5.9,5.9,0,0,1-1-.56A5.47,5.47,0,0,1,323.64,277.58Z"/><path class="cls-129" d="M423.75,228.53a5.28,5.28,0,0,1-.56,1,5.47,5.47,0,0,1-1,.57,5.47,5.47,0,0,1,1,.57,5.28,5.28,0,0,1,.56,1,2.12,2.12,0,0,1,1.61-1.6,2.12,2.12,0,0,1-1.61-1.6Z"/><path class="cls-130" d="M405.15,301.08a5.47,5.47,0,0,1-.57,1,5.9,5.9,0,0,1-1,.56,2.12,2.12,0,0,1,1.61,1.61,5.9,5.9,0,0,1,.56-1,5.47,5.47,0,0,1,1-.57,2.06,2.06,0,0,1-1.6-1.6Z"/><path class="cls-131" d="M414.69,277.25a.54.54,0,1,1,.54.53A.54.54,0,0,1,414.69,277.25Zm-4.29,9.83a1.08,1.08,0,1,0-1.07-1.07A1.07,1.07,0,0,0,410.4,287.08Zm-2.14-12.87a2.15,2.15,0,1,0-2.15-2.14A2.14,2.14,0,0,0,408.26,274.21Zm18.59-2.5a1.08,1.08,0,1,0-1.08-1.07A1.07,1.07,0,0,0,426.85,271.71Z"/><path class="cls-132" d="M320.78,315.66a.53.53,0,1,1-1.06.09.53.53,0,1,1,1.06-.09Zm3.44-10.16a1.07,1.07,0,1,0,1.16,1A1.07,1.07,0,0,0,324.22,305.5Zm3.23,12.64a2.14,2.14,0,1,0,2.32,2A2.14,2.14,0,0,0,327.45,318.14Zm-18.31,4.07a1.07,1.07,0,1,0,1.16,1A1.07,1.07,0,0,0,309.14,322.21Z"/><path class="cls-133" d="M398.63,56.74a10.27,10.27,0,0,0-1-1.87,9.68,9.68,0,0,0-1.87-1,10.27,10.27,0,0,0,1.87-1,10.27,10.27,0,0,0,1-1.87,9.68,9.68,0,0,0,1,1.87,10,10,0,0,0,1.87,1,9.39,9.39,0,0,0-1.87,1A9.68,9.68,0,0,0,398.63,56.74Z"/><path class="cls-134" d="M304.54,31.69a16.21,16.21,0,0,0-1.7-3.11,16.21,16.21,0,0,0-3.11-1.7,16.39,16.39,0,0,0,3.11-1.71,15.92,15.92,0,0,0,1.7-3.11,16.09,16.09,0,0,0,1.71,3.11,16.09,16.09,0,0,0,3.11,1.71,15.92,15.92,0,0,0-3.11,1.7A16.39,16.39,0,0,0,304.54,31.69Z"/><path class="cls-135" d="M424.32,37.47a16.39,16.39,0,0,0-1.71-3.11,15.92,15.92,0,0,0-3.11-1.7A16.09,16.09,0,0,0,422.61,31a16.09,16.09,0,0,0,1.71-3.11A15.92,15.92,0,0,0,426,31a16.39,16.39,0,0,0,3.11,1.71,16.21,16.21,0,0,0-3.11,1.7A16.21,16.21,0,0,0,424.32,37.47Z"/><path class="cls-136" d="M341.92,66.39a5.29,5.29,0,0,1-.56,1,5.47,5.47,0,0,1-1,.57,5.29,5.29,0,0,1,1,.56,5.29,5.29,0,0,1,.56,1,5.47,5.47,0,0,1,.57-1,5.29,5.29,0,0,1,1-.56,5.47,5.47,0,0,1-1-.57A5.47,5.47,0,0,1,341.92,66.39Z"/><path class="cls-137" d="M297.61,35.57a5.46,5.46,0,0,1-.57,1,5.17,5.17,0,0,1-1,.57,5.17,5.17,0,0,1,1,.57,5.46,5.46,0,0,1,.57,1,5.46,5.46,0,0,1,.57-1,5.47,5.47,0,0,1,1-.57,5.47,5.47,0,0,1-1-.57A5.46,5.46,0,0,1,297.61,35.57Z"/><path class="cls-138" d="M319.69,13.65a5.9,5.9,0,0,1-.56,1,5.47,5.47,0,0,1-1,.57,5.47,5.47,0,0,1,1,.57,5.56,5.56,0,0,1,.56,1,5.17,5.17,0,0,1,.57-1,5.47,5.47,0,0,1,1-.57,5.47,5.47,0,0,1-1-.57A5.47,5.47,0,0,1,319.69,13.65Z"/><path class="cls-139" d="M401.2,37.15a5.47,5.47,0,0,1-.57,1,5.47,5.47,0,0,1-1,.57,5.47,5.47,0,0,1,1,.57,5.17,5.17,0,0,1,.57,1,5,5,0,0,1,.56-1,5.47,5.47,0,0,1,1-.57,5.47,5.47,0,0,1-1-.57A5.29,5.29,0,0,1,401.2,37.15Z"/><path class="cls-140" d="M410.74,13.32a.54.54,0,1,1,.54.54A.54.54,0,0,1,410.74,13.32Zm-4.29,9.83a1.07,1.07,0,1,0-1.07-1.07A1.07,1.07,0,0,0,406.45,23.15Zm-2.14-12.86a2.15,2.15,0,1,0-2.15-2.15A2.14,2.14,0,0,0,404.31,10.29Zm18.58-2.51a1.07,1.07,0,1,0-1.07-1.07A1.07,1.07,0,0,0,422.89,7.78Z"/><path class="cls-141" d="M316.83,51.73a.53.53,0,0,1-.49.58.53.53,0,1,1-.09-1.06A.52.52,0,0,1,316.83,51.73Zm3.44-10.15a1.07,1.07,0,0,0,.18,2.13,1.07,1.07,0,1,0-.18-2.13Zm3.23,12.64a2.14,2.14,0,1,0,2.32,2A2.13,2.13,0,0,0,323.5,54.22Zm-18.31,4.07a1.06,1.06,0,0,0-1,1.15,1.07,1.07,0,1,0,1-1.15Z"/><path class="cls-142" d="M10.92,74.21a5.29,5.29,0,0,1-.56,1,5.47,5.47,0,0,1-1,.57,5.29,5.29,0,0,1,1,.56,5.29,5.29,0,0,1,.56,1,5.47,5.47,0,0,1,.57-1,5.29,5.29,0,0,1,1-.56,5.47,5.47,0,0,1-1-.57A5.47,5.47,0,0,1,10.92,74.21Z"/><path class="cls-143" d="M86.49,38.24a9.75,9.75,0,0,0,.43,2.08,9.79,9.79,0,0,0,1.48,1.52,9.75,9.75,0,0,0-2.08.43,9.74,9.74,0,0,0-1.52,1.49,9.75,9.75,0,0,0-.43-2.08,9.92,9.92,0,0,0-1.49-1.53A9.75,9.75,0,0,0,85,39.72,10,10,0,0,0,86.49,38.24Z"/><path class="cls-144" d="M180.71,56.19a9.75,9.75,0,0,0,.43,2.08,9.92,9.92,0,0,0,1.49,1.53,9.75,9.75,0,0,0-2.08.43A10,10,0,0,0,179,61.71a9.75,9.75,0,0,0-.43-2.08,9.79,9.79,0,0,0-1.48-1.52,9.75,9.75,0,0,0,2.08-.43A9.74,9.74,0,0,0,180.71,56.19Z"/><path class="cls-145" d="M196.62,27.25a16.91,16.91,0,0,0,.72,3.48,16.68,16.68,0,0,0,2.48,2.54,16.55,16.55,0,0,0-3.47.71,16.21,16.21,0,0,0-2.54,2.48,16.08,16.08,0,0,0-.72-3.47,16.21,16.21,0,0,0-2.48-2.54,16.26,16.26,0,0,0,3.48-.72A16.5,16.5,0,0,0,196.62,27.25Z"/><path class="cls-146" d="M183.29,82.94a16.14,16.14,0,0,0,.72,3.48A16.22,16.22,0,0,0,186.49,89a16.61,16.61,0,0,0-3.48.71,16.68,16.68,0,0,0-2.54,2.48,16.55,16.55,0,0,0-.71-3.47,16.68,16.68,0,0,0-2.48-2.54,16.08,16.08,0,0,0,3.47-.72A16.22,16.22,0,0,0,183.29,82.94Z"/><path class="cls-147" d="M170.26,75.24a1.61,1.61,0,1,0-1.07-2A1.62,1.62,0,0,0,170.26,75.24Z"/><path class="cls-148" d="M204.38,25.58a5.6,5.6,0,0,1,.85-.83,5.38,5.38,0,0,1,1.16-.24,5.16,5.16,0,0,1-.83-.85,5.32,5.32,0,0,1-.24-1.15,5.47,5.47,0,0,1-.84.82,5.38,5.38,0,0,1-1.16.24,5.6,5.6,0,0,1,.83.85A5.88,5.88,0,0,1,204.38,25.58Z"/><path class="cls-149" d="M176.86,40.07a5.66,5.66,0,0,1,.85-.82,5.32,5.32,0,0,1,1.15-.24,5.66,5.66,0,0,1-.82-.85A5.38,5.38,0,0,1,177.8,37a5.16,5.16,0,0,1-.85.83,5.32,5.32,0,0,1-1.15.24,5.2,5.2,0,0,1,.82.85A5.32,5.32,0,0,1,176.86,40.07Z"/><path class="cls-150" d="M66.78,57.71a5.6,5.6,0,0,1,.85-.83,6.08,6.08,0,0,1,1.16-.24A5.43,5.43,0,0,1,68,55.8a5.38,5.38,0,0,1-.24-1.16,5.43,5.43,0,0,1-.84.83,5.38,5.38,0,0,1-1.16.24,5,5,0,0,1,.82.84A5.38,5.38,0,0,1,66.78,57.71Z"/><path class="cls-151" d="M89.7,13.77a.54.54,0,0,1-.67.35.53.53,0,0,1-.36-.67.54.54,0,0,1,1,.32Zm7-8.15A1.07,1.07,0,1,0,96,7.67a1.07,1.07,0,1,0,.63-2ZM95,18.55a2.14,2.14,0,1,0,1.42,2.68A2.15,2.15,0,0,0,95,18.55Zm-18.51-3a1.09,1.09,0,0,0-1.34.71,1.08,1.08,0,1,0,1.34-.71Z"/><path class="cls-152" d="M263.1,9.88a5.59,5.59,0,0,1,.71.95,5.59,5.59,0,0,1,.08,1.18,5.26,5.26,0,0,1,.95-.7,5.12,5.12,0,0,1,1.18-.09,6,6,0,0,1-.71-.94,5.59,5.59,0,0,1-.08-1.18,5.26,5.26,0,0,1-1,.7A5.56,5.56,0,0,1,263.1,9.88Z"/><path class="cls-153" d="M125,23a7.14,7.14,0,0,1-1.11,1,6.85,6.85,0,0,1-1.48.23,6.86,6.86,0,0,1,1,1.12,6.7,6.7,0,0,1,.23,1.47,6.86,6.86,0,0,1,1.12-1,6.7,6.7,0,0,1,1.47-.23,7.14,7.14,0,0,1-1-1.11A6.85,6.85,0,0,1,125,23Z"/><path class="cls-154" d="M146.54-1.24a.66.66,0,0,1,.86-.4.67.67,0,0,1,.41.86.68.68,0,0,1-.87.41A.67.67,0,0,1,146.54-1.24Zm-9.3,9.83a1.35,1.35,0,1,0-.81-1.73A1.35,1.35,0,0,0,137.24,8.59Zm3-16.18a2.71,2.71,0,0,0,3.46-1.63A2.71,2.71,0,0,0,142-12.69a2.72,2.72,0,0,0-3.47,1.63A2.72,2.72,0,0,0,140.2-7.59Zm23.13,5a1.35,1.35,0,0,0,1.73-.82,1.35,1.35,0,0,0-.81-1.73,1.35,1.35,0,0,0-1.73.82A1.35,1.35,0,0,0,163.33-2.61Z"/><path class="cls-155" d="M408.42,166.23a7.49,7.49,0,0,1,.14-1.49,7.09,7.09,0,0,1,.93-1.17,2.64,2.64,0,0,1-2.66-1.06,7.4,7.4,0,0,1-.14,1.48,6.68,6.68,0,0,1-.93,1.17,7,7,0,0,1,1.49.15A6.65,6.65,0,0,1,408.42,166.23Z"/><path class="cls-156" d="M409.19,198.6a.67.67,0,0,1-.36.89.68.68,0,0,1-.89-.35.69.69,0,0,1,.36-.89A.68.68,0,0,1,409.19,198.6Zm.09-13.53a1.36,1.36,0,1,0,1.78.71A1.37,1.37,0,0,0,409.28,185.07Zm8.88,13.86a2.71,2.71,0,1,0,3.55,1.42A2.7,2.7,0,0,0,418.16,198.93Zm-20.31,12.14a1.35,1.35,0,1,0,1.77.71A1.34,1.34,0,0,0,397.85,211.07Z"/><path class="cls-157" d="M354.44,33.34a7,7,0,0,1,.18,1.48,6.82,6.82,0,0,1-.65,1.35,6.9,6.9,0,0,1,1.48-.18,6.77,6.77,0,0,1,1.34.64,6.9,6.9,0,0,1-.18-1.48,7.62,7.62,0,0,1,.65-1.34,6.9,6.9,0,0,1-1.48.18A6.67,6.67,0,0,1,354.44,33.34Z"/><path class="cls-158" d="M346.74,1.89a.68.68,0,0,1,.16-.95.67.67,0,0,1,.78,1.1A.67.67,0,0,1,346.74,1.89Zm2.81,13.23a1.35,1.35,0,1,0-1.88-.31A1.36,1.36,0,0,0,349.55,15.12ZM337.91,3.49a2.71,2.71,0,1,0-3.78-.63A2.7,2.7,0,0,0,337.91,3.49Zm17.23-16.21a1.36,1.36,0,0,0,.32-1.89,1.35,1.35,0,0,0-1.89-.31,1.36,1.36,0,0,0-.32,1.89A1.37,1.37,0,0,0,355.14-12.72Z"/><path class="cls-159" d="M190.73,4.49a.54.54,0,1,1,.41.64A.54.54,0,0,1,190.73,4.49Zm-6.26,8.71a1.07,1.07,0,0,0,1.28-.82,1.09,1.09,0,0,0-.83-1.28,1.07,1.07,0,0,0-1.27.83A1.06,1.06,0,0,0,184.47,13.2Zm.61-13a2.15,2.15,0,0,0,2.55-1.65A2.14,2.14,0,0,0,186-4a2.14,2.14,0,0,0-2.55,1.64A2.15,2.15,0,0,0,185.08.17Zm18.7,1.46a1.06,1.06,0,0,0,1.27-.82,1.07,1.07,0,0,0-.82-1.28A1.09,1.09,0,0,0,203,.36,1.07,1.07,0,0,0,203.78,1.63Z"/><path class="cls-160" d="M51.73,298.12a10.08,10.08,0,0,0-1.6,1.41,10,10,0,0,0-.58,2.05A9.69,9.69,0,0,0,48.14,300a9.55,9.55,0,0,0-2-.59,9.66,9.66,0,0,0,1.6-1.41,10,10,0,0,0,.58-2,9.69,9.69,0,0,0,1.41,1.59A9.38,9.38,0,0,0,51.73,298.12Z"/><path class="cls-161" d="M27.25,277.35a15.77,15.77,0,0,0-2.66,2.35,16.47,16.47,0,0,0-1,3.41,16.25,16.25,0,0,0-2.35-2.66,16.52,16.52,0,0,0-3.42-1,16.25,16.25,0,0,0,2.66-2.35,15.85,15.85,0,0,0,1-3.41,16.28,16.28,0,0,0,2.35,2.65A16.07,16.07,0,0,0,27.25,277.35Z"/><path class="cls-162" d="M73.71,351.28a5.25,5.25,0,0,1,1.14.32,5.52,5.52,0,0,1,.78.88,5.85,5.85,0,0,1,.32-1.13,5.67,5.67,0,0,1,.89-.79,5.25,5.25,0,0,1-1.14-.32,5.52,5.52,0,0,1-.78-.88,5.85,5.85,0,0,1-.32,1.13A5.67,5.67,0,0,1,73.71,351.28Z"/><path class="cls-163" d="M32.06,300a5.9,5.9,0,0,1,1.14.32,5.49,5.49,0,0,1,.78.89A5.9,5.9,0,0,1,34.3,300a5.49,5.49,0,0,1,.89-.78,5.9,5.9,0,0,1-1.14-.32,5.49,5.49,0,0,1-.78-.89,5.9,5.9,0,0,1-.32,1.14A5.49,5.49,0,0,1,32.06,300Z"/><path class="cls-164" d="M6.71,295.93a.53.53,0,1,1,.4-.64A.52.52,0,0,1,6.71,295.93Zm10.53,2a1.07,1.07,0,1,0-.8,1.28A1.07,1.07,0,0,0,17.24,297.94ZM5.17,302.88a2.14,2.14,0,1,0-1.62,2.57A2.14,2.14,0,0,0,5.17,302.88Zm-6.56-17.57a1.07,1.07,0,0,0-1.28-.81,1.08,1.08,0,0,0-.81,1.29,1.08,1.08,0,0,0,1.28.81A1.08,1.08,0,0,0-1.39,285.31Z"/><path class="cls-165" d="M16.28,331.15a6.62,6.62,0,0,1-1.41-.48,7,7,0,0,1-.93-1.16,6.62,6.62,0,0,1-.48,1.41,6.47,6.47,0,0,1-1.16.93,7,7,0,0,1,1.41.48,6.47,6.47,0,0,1,.93,1.16,7.25,7.25,0,0,1,.48-1.41A7,7,0,0,1,16.28,331.15Z"/><path class="cls-166" d="M48,337.8a.67.67,0,0,1,.78.55.68.68,0,0,1-.54.78.69.69,0,0,1-.79-.55A.67.67,0,0,1,48,337.8Zm-13.15-3.18a1.35,1.35,0,1,0,1.1-1.57A1.36,1.36,0,0,0,34.83,334.62Zm15.52-5.48A2.71,2.71,0,1,0,52.54,326,2.7,2.7,0,0,0,50.35,329.14Zm7.17,22.54a1.35,1.35,0,1,0,1.1-1.56A1.35,1.35,0,0,0,57.52,351.68Z"/><path class="cls-167" d="M85.33,242.29a9.81,9.81,0,0,0,.43,2.09,9.74,9.74,0,0,0,1.49,1.52,9.75,9.75,0,0,0-2.08.43,9.92,9.92,0,0,0-1.53,1.49,9.81,9.81,0,0,0-.43-2.09,9.79,9.79,0,0,0-1.48-1.52,9.75,9.75,0,0,0,2.08-.43A9.74,9.74,0,0,0,85.33,242.29Z"/><path class="cls-168" d="M112.82,179.85a9.75,9.75,0,0,0,.43,2.08,9.74,9.74,0,0,0,1.49,1.52,9.8,9.8,0,0,0-2.08.44,10,10,0,0,0-1.53,1.48,9.75,9.75,0,0,0-.43-2.08,9.74,9.74,0,0,0-1.49-1.52,10.49,10.49,0,0,0,2.09-.43A9.74,9.74,0,0,0,112.82,179.85Z"/><path class="cls-169" d="M358.68,287.41a9.75,9.75,0,0,0,.43,2.08A9.74,9.74,0,0,0,360.6,291a3.77,3.77,0,0,0-3.61,1.92,9.75,9.75,0,0,0-.43-2.08,9.92,9.92,0,0,0-1.49-1.53,3.79,3.79,0,0,0,3.61-1.91Z"/><path class="cls-170" d="M374.59,258.47a16.08,16.08,0,0,0,.72,3.47,15.77,15.77,0,0,0,2.48,2.54,16.14,16.14,0,0,0-3.48.72,16.68,16.68,0,0,0-2.54,2.48,16.73,16.73,0,0,0-.71-3.48,16.5,16.5,0,0,0-2.48-2.53,16.72,16.72,0,0,0,3.47-.72A16.68,16.68,0,0,0,374.59,258.47Z"/><path class="cls-171" d="M182.14,287a16.73,16.73,0,0,0,.71,3.48,16.5,16.5,0,0,0,2.48,2.53,16.72,16.72,0,0,0-3.47.72,16.21,16.21,0,0,0-2.54,2.48,16.08,16.08,0,0,0-.72-3.47,15.77,15.77,0,0,0-2.48-2.54,16.26,16.26,0,0,0,3.48-.72A16.68,16.68,0,0,0,182.14,287Z"/><path class="cls-172" d="M82.62,190.76a16.26,16.26,0,0,0,.72,3.48,16.5,16.5,0,0,0,2.48,2.53,16.91,16.91,0,0,0-3.48.72A16.5,16.5,0,0,0,79.81,200a16.72,16.72,0,0,0-.72-3.47A16.21,16.21,0,0,0,76.61,194a16.08,16.08,0,0,0,3.47-.72A16.21,16.21,0,0,0,82.62,190.76Z"/><path class="cls-173" d="M169.11,279.29a1.61,1.61,0,1,0-1.07-2A1.6,1.6,0,0,0,169.11,279.29Z"/><path class="cls-174" d="M81.61,130a5.2,5.2,0,0,1,.85-.82,5.38,5.38,0,0,1,1.16-.24,5.6,5.6,0,0,1-.83-.85,5.38,5.38,0,0,1-.24-1.16,5.43,5.43,0,0,1-.84.83,5.38,5.38,0,0,1-1.16.24,5,5,0,0,1,.82.84A5.5,5.5,0,0,1,81.61,130Z"/><path class="cls-175" d="M203.23,229.63a5.66,5.66,0,0,1,.85-.82,5.32,5.32,0,0,1,1.15-.24,5.66,5.66,0,0,1-.82-.85,5.38,5.38,0,0,1-.24-1.16,5.6,5.6,0,0,1-.85.83,5.32,5.32,0,0,1-1.15.24,5.2,5.2,0,0,1,.82.85A5.32,5.32,0,0,1,203.23,229.63Z"/><path class="cls-176" d="M354.83,271.29a2.08,2.08,0,0,1,2-1.07,5.43,5.43,0,0,1-.83-.84,5.88,5.88,0,0,1-.23-1.16,5.6,5.6,0,0,1-.85.83,5.38,5.38,0,0,1-1.16.24,2.08,2.08,0,0,1,1.07,2Z"/><path class="cls-177" d="M65.63,261.77a5.16,5.16,0,0,1,.85-.83,5.32,5.32,0,0,1,1.15-.24,5.47,5.47,0,0,1-.82-.84,5.38,5.38,0,0,1-.24-1.16,5.2,5.2,0,0,1-.85.82,5.32,5.32,0,0,1-1.15.24,5.66,5.66,0,0,1,.82.85A5.38,5.38,0,0,1,65.63,261.77Z"/><path class="cls-178" d="M104.64,197.83a5.43,5.43,0,0,1,.84-.83,5.5,5.5,0,0,1,1.16-.24,5,5,0,0,1-.82-.84,5.5,5.5,0,0,1-.24-1.16,5.66,5.66,0,0,1-.85.82,5.38,5.38,0,0,1-1.16.24,5.6,5.6,0,0,1,.83.85A5.38,5.38,0,0,1,104.64,197.83Z"/><path class="cls-179" d="M155.65,134.25a.53.53,0,1,1-1-.31.53.53,0,1,1,1,.31Zm7-8.15a1.07,1.07,0,0,0-1.34.72,1.09,1.09,0,0,0,.71,1.34,1.08,1.08,0,0,0,.63-2.06ZM160.92,139a2.14,2.14,0,1,0,1.42,2.67A2.15,2.15,0,0,0,160.92,139Zm-18.51-3a1.08,1.08,0,0,0-.62,2.06,1.08,1.08,0,0,0,.62-2.06Z"/><path class="cls-180" d="M241.09,271.7a9.93,9.93,0,0,0-.8-2,10.2,10.2,0,0,0-1.73-1.23,9.9,9.9,0,0,0,2-.8,9.65,9.65,0,0,0,1.23-1.73,9.9,9.9,0,0,0,.8,2,9.63,9.63,0,0,0,1.74,1.23,9.93,9.93,0,0,0-2,.8A10.18,10.18,0,0,0,241.09,271.7Z"/><path class="cls-181" d="M225.31,338.07a9.9,9.9,0,0,0-.8-2,9.65,9.65,0,0,0-1.73-1.23,9.9,9.9,0,0,0,2-.8,9.63,9.63,0,0,0,1.23-1.74,9.93,9.93,0,0,0,.8,2,10.2,10.2,0,0,0,1.73,1.23,9.9,9.9,0,0,0-2,.8A9.65,9.65,0,0,0,225.31,338.07Z"/><path class="cls-182" d="M253.05,321.9a16.22,16.22,0,0,0-1.33-3.29,16.06,16.06,0,0,0-2.9-2.05,16,16,0,0,0,3.29-1.34,16.61,16.61,0,0,0,2-2.89,16.45,16.45,0,0,0,1.33,3.29,16.59,16.59,0,0,0,2.9,2.05A16.22,16.22,0,0,0,255.1,319,16.06,16.06,0,0,0,253.05,321.9Z"/><path class="cls-183" d="M257,249a5.36,5.36,0,0,1-.68,1,5.12,5.12,0,0,1-1.09.45,5.36,5.36,0,0,1,1,.68,5.56,5.56,0,0,1,.44,1.1,2.11,2.11,0,0,1,1.78-1.41,5,5,0,0,1-1-.69A5.12,5.12,0,0,1,257,249Z"/><path class="cls-184" d="M230.12,318.91a5.35,5.35,0,0,1-.68,1,5.56,5.56,0,0,1-1.1.44,5.36,5.36,0,0,1,1,.69,5.53,5.53,0,0,1,.44,1.09,2.12,2.12,0,0,1,1.78-1.41,5.72,5.72,0,0,1-1-.68A5.56,5.56,0,0,1,230.12,318.91Z"/><path class="cls-185" d="M242.35,296.34a.53.53,0,1,1,.47.6A.54.54,0,0,1,242.35,296.34ZM237,305.61a1.07,1.07,0,0,0,.24-2.13,1.07,1.07,0,1,0-.24,2.13Zm-.65-13a2.14,2.14,0,1,0-1.89-2.37A2.15,2.15,0,0,0,236.31,292.58Zm18.75-.34a1.07,1.07,0,1,0-.94-1.19A1.07,1.07,0,0,0,255.06,292.24Z"/><path class="cls-186" d="M54.29,82.56a9.66,9.66,0,0,0-.8-2,9.63,9.63,0,0,0-1.74-1.23,9.66,9.66,0,0,0,2-.8A9.63,9.63,0,0,0,55,76.82a9.9,9.9,0,0,0,.8,2A9.63,9.63,0,0,0,57.49,80a9.66,9.66,0,0,0-2,.8A9.63,9.63,0,0,0,54.29,82.56Z"/><path class="cls-187" d="M78.84,161.77a9.49,9.49,0,0,0-.79-2,10,10,0,0,0-1.74-1.23,9.9,9.9,0,0,0,2-.8A9.63,9.63,0,0,0,79.51,156a9.9,9.9,0,0,0,.8,2,9.63,9.63,0,0,0,1.74,1.23,9.93,9.93,0,0,0-2,.8A10.18,10.18,0,0,0,78.84,161.77Z"/><path class="cls-188" d="M82.61,134a16.19,16.19,0,0,0-1.33-3.28,16.06,16.06,0,0,0-2.9-2.05,16.4,16.4,0,0,0,3.29-1.34,16.07,16.07,0,0,0,2-2.89,16.45,16.45,0,0,0,1.33,3.29,16.59,16.59,0,0,0,2.9,2,16.45,16.45,0,0,0-3.29,1.33A16.61,16.61,0,0,0,82.61,134Z"/><path class="cls-189" d="M110.5,72.68a5,5,0,0,1-.69,1,5.53,5.53,0,0,1-1.09.44,5,5,0,0,1,1,.69,5.12,5.12,0,0,1,.45,1.09,5.36,5.36,0,0,1,.68-1,5.15,5.15,0,0,1,1.1-.45,5.35,5.35,0,0,1-1-.68A5.56,5.56,0,0,1,110.5,72.68Z"/><path class="cls-190" d="M59.68,131.05a5.72,5.72,0,0,1-.68,1,5.56,5.56,0,0,1-1.1.44,5,5,0,0,1,1,.69,5.53,5.53,0,0,1,.44,1.09,5,5,0,0,1,.69-1,5.12,5.12,0,0,1,1.09-.45,5.36,5.36,0,0,1-1-.68A5.15,5.15,0,0,1,59.68,131.05Z"/><path class="cls-191" d="M55.54,107.21a.54.54,0,1,1,.47.59A.54.54,0,0,1,55.54,107.21Zm-5.39,9.27a1.08,1.08,0,1,0-.94-1.19A1.08,1.08,0,0,0,50.15,116.48Zm-.65-13a2.15,2.15,0,1,0-1.88-2.38A2.15,2.15,0,0,0,49.5,103.45Zm18.75-.35a1.07,1.07,0,1,0-.94-1.19A1.07,1.07,0,0,0,68.25,103.1Z"/><path class="cls-192" d="M263.68,35.56a9.93,9.93,0,0,0-.8-2,10.18,10.18,0,0,0-1.74-1.23,9.11,9.11,0,0,0,2-.8,9.65,9.65,0,0,0,1.23-1.73,9.9,9.9,0,0,0,.8,2A9.63,9.63,0,0,0,266.88,33a9.9,9.9,0,0,0-2,.8A9.63,9.63,0,0,0,263.68,35.56Z"/><path class="cls-193" d="M306.33,135a9.93,9.93,0,0,0-.8-2,10,10,0,0,0-1.74-1.22,9.93,9.93,0,0,0,2-.8,10.18,10.18,0,0,0,1.23-1.74,9.71,9.71,0,0,0,.79,2,10,10,0,0,0,1.74,1.23,9.9,9.9,0,0,0-2,.8A9.63,9.63,0,0,0,306.33,135Z"/><path class="cls-194" d="M334.07,118.84a16,16,0,0,0-1.34-3.29,16.61,16.61,0,0,0-2.89-2,16.45,16.45,0,0,0,3.29-1.33,16.59,16.59,0,0,0,2.05-2.9,16.22,16.22,0,0,0,1.33,3.29,16.06,16.06,0,0,0,2.9,2,16.22,16.22,0,0,0-3.29,1.33A16.06,16.06,0,0,0,334.07,118.84Z"/><path class="cls-195" d="M271.26,9.5a5,5,0,0,1-.69,1,5.53,5.53,0,0,1-1.09.44,5.54,5.54,0,0,1,1,.69,5.12,5.12,0,0,1,.45,1.09,5.36,5.36,0,0,1,.68-1,5.15,5.15,0,0,1,1.1-.45,5.35,5.35,0,0,1-1-.68A5.53,5.53,0,0,1,271.26,9.5Z"/><path class="cls-196" d="M311.14,115.86a5.36,5.36,0,0,1-.68,1,5.37,5.37,0,0,1-1.1.45,5.36,5.36,0,0,1,1,.68,5.15,5.15,0,0,1,.45,1.1,5.35,5.35,0,0,1,.68-1,5.56,5.56,0,0,1,1.1-.44,5.36,5.36,0,0,1-1-.69A5.53,5.53,0,0,1,311.14,115.86Z"/><path class="cls-197" d="M323.37,93.29a.52.52,0,0,1,.59-.47.53.53,0,0,1,.47.59.53.53,0,0,1-1.06-.12Zm-5.4,9.27a1.07,1.07,0,1,0-.94-1.19A1.08,1.08,0,0,0,318,102.56Zm-.64-13a2.14,2.14,0,1,0-1.89-2.38A2.14,2.14,0,0,0,317.33,89.53Zm18.75-.35a1.07,1.07,0,0,0,1.19-.94,1.07,1.07,0,1,0-2.13-.24A1.06,1.06,0,0,0,336.08,89.18Z"/><path class="cls-198" d="M125.29,162.91a.54.54,0,0,1,1,.23.53.53,0,0,1-.63.41A.54.54,0,0,1,125.29,162.91ZM119,171.62a1.07,1.07,0,1,0-.82-1.27A1.07,1.07,0,0,0,119,171.62Zm.61-13A2.14,2.14,0,1,0,118,156,2.15,2.15,0,0,0,119.64,158.59Zm18.7,1.46a1.07,1.07,0,1,0-.82-1.27A1.07,1.07,0,0,0,138.34,160.05Z"/><path class="cls-199" d="M14.31,218.06a.53.53,0,1,1-1-.31.55.55,0,0,1,.67-.36A.54.54,0,0,1,14.31,218.06Zm7-8.14a1.06,1.06,0,0,0-1.34.71,1.09,1.09,0,0,0,.71,1.34,1.07,1.07,0,0,0,1.34-.72A1.05,1.05,0,0,0,21.29,209.92Zm-1.71,12.93A2.14,2.14,0,1,0,21,225.53,2.15,2.15,0,0,0,19.58,222.85Zm-18.51-3a1.07,1.07,0,0,0-1.34.71,1.08,1.08,0,0,0,.72,1.34,1.07,1.07,0,0,0,1.33-.71A1.06,1.06,0,0,0,1.07,219.81Z"/><path class="cls-200" d="M141.22,343.1a5.47,5.47,0,0,1,.84-.82,5.5,5.5,0,0,1,1.16-.24,5.66,5.66,0,0,1-.82-.85,5.38,5.38,0,0,1-.24-1.16,5.6,5.6,0,0,1-.85.83,5.38,5.38,0,0,1-1.16.24,5.16,5.16,0,0,1,.83.85A5.32,5.32,0,0,1,141.22,343.1Z"/><path class="cls-201" d="M81.12,320.88a9.93,9.93,0,0,0-.8-2,10.18,10.18,0,0,0-1.74-1.23,9.49,9.49,0,0,0,2-.79,10,10,0,0,0,1.23-1.74,9.9,9.9,0,0,0,.8,2,9.63,9.63,0,0,0,1.74,1.23,9.66,9.66,0,0,0-2,.8A9.63,9.63,0,0,0,81.12,320.88Z"/><path class="cls-202" d="M108.85,304.7a16.45,16.45,0,0,0-1.33-3.29,16.61,16.61,0,0,0-2.89-2.05,16.19,16.19,0,0,0,3.28-1.33,16.06,16.06,0,0,0,2-2.9,16.4,16.4,0,0,0,1.34,3.29,16.07,16.07,0,0,0,2.89,2.05,16.45,16.45,0,0,0-3.29,1.33A16.59,16.59,0,0,0,108.85,304.7Z"/><path class="cls-203" d="M85.93,301.72a5.54,5.54,0,0,1-.69,1,5.12,5.12,0,0,1-1.09.45,5.36,5.36,0,0,1,1,.68,5.75,5.75,0,0,1,.45,1.1,5.35,5.35,0,0,1,.68-1,5.53,5.53,0,0,1,1.09-.44,5,5,0,0,1-1-.69A5.53,5.53,0,0,1,85.93,301.72Z"/><path class="cls-204" d="M127.57,322a.53.53,0,1,1,.41.64A.53.53,0,0,1,127.57,322Zm-6.26,8.71a1.07,1.07,0,0,0,.45-2.1,1.07,1.07,0,1,0-.45,2.1Zm.6-13a2.15,2.15,0,1,0-1.64-2.55A2.15,2.15,0,0,0,121.91,317.7Zm18.7,1.46a1.07,1.07,0,1,0-.82-1.27A1.07,1.07,0,0,0,140.61,319.16Z"/><path class="cls-205" d="M387.06,154.7a9.92,9.92,0,0,0,.44,2.08,10,10,0,0,0,1.48,1.53,3.79,3.79,0,0,0-3.6,1.91,9.92,9.92,0,0,0-.44-2.08,9.35,9.35,0,0,0-1.48-1.52,10.43,10.43,0,0,0,2.08-.43A9.74,9.74,0,0,0,387.06,154.7Z"/><path class="cls-206" d="M403,125.76a16.73,16.73,0,0,0,.71,3.48,16.5,16.5,0,0,0,2.48,2.53,16.72,16.72,0,0,0-3.47.72,16.68,16.68,0,0,0-2.54,2.48,16.08,16.08,0,0,0-.72-3.47A15.77,15.77,0,0,0,397,129a16.26,16.26,0,0,0,3.48-.72A16.68,16.68,0,0,0,403,125.76Z"/><path class="cls-207" d="M367,211.5a16.26,16.26,0,0,0,.72,3.48,16.5,16.5,0,0,0,2.48,2.53,16.26,16.26,0,0,0-3.48.72,16.5,16.5,0,0,0-2.53,2.48,16.72,16.72,0,0,0-.72-3.47,16.21,16.21,0,0,0-2.48-2.54,16.08,16.08,0,0,0,3.47-.72A16.21,16.21,0,0,0,367,211.5Z"/><path class="cls-208" d="M480.27,259.17a9.38,9.38,0,0,0-1-1.86,9.55,9.55,0,0,0-1.86-1,3.79,3.79,0,0,0,2.88-2.88,9.55,9.55,0,0,0,1,1.86,9.38,9.38,0,0,0,1.86,1,3.85,3.85,0,0,0-2.89,2.89Z"/><path class="cls-209" d="M473.52,291.5a16.81,16.81,0,0,0-1.7-3.12,16.81,16.81,0,0,0-3.12-1.7,16.22,16.22,0,0,0,3.12-1.7,16.8,16.8,0,0,0,1.7-3.11,16.8,16.8,0,0,0,1.7,3.11,16.22,16.22,0,0,0,3.12,1.7,16.81,16.81,0,0,0-3.12,1.7A16.81,16.81,0,0,0,473.52,291.5Z"/><path class="cls-210" d="M470,234.34a16.49,16.49,0,0,0-1.7-3.11,16.22,16.22,0,0,0-3.12-1.7,16.4,16.4,0,0,0,3.12-1.71,16.49,16.49,0,0,0,1.7-3.11,15.92,15.92,0,0,0,1.7,3.11,16.39,16.39,0,0,0,3.11,1.71,16.21,16.21,0,0,0-3.11,1.7A15.92,15.92,0,0,0,470,234.34Z"/><path class="cls-211" d="M484.7,237.9a1.61,1.61,0,1,0,1.61,1.61A1.61,1.61,0,0,0,484.7,237.9Z"/><path class="cls-212" d="M466.59,295.37a5.47,5.47,0,0,1-.57,1,5.29,5.29,0,0,1-1,.56,2.12,2.12,0,0,1,1.61,1.61,5.47,5.47,0,0,1,.57-1,5.17,5.17,0,0,1,1-.57,5,5,0,0,1-1-.56A5.47,5.47,0,0,1,466.59,295.37Z"/><path class="cls-213" d="M488.67,273.46a5.47,5.47,0,0,1-.57,1,5.9,5.9,0,0,1-1,.56,2.12,2.12,0,0,1,1.6,1.61,2.12,2.12,0,0,1,1.6-1.61,5.9,5.9,0,0,1-1-.56A5.47,5.47,0,0,1,488.67,273.46Z"/><path class="cls-214" d="M485.81,311.54a.54.54,0,0,1-.49.58.54.54,0,1,1-.09-1.07A.54.54,0,0,1,485.81,311.54Zm3.44-10.16a1.07,1.07,0,1,0,1.16,1A1.07,1.07,0,0,0,489.25,301.38ZM492.48,314a2.14,2.14,0,1,0,2.32,2A2.15,2.15,0,0,0,492.48,314Zm-18.31,4.07a1.07,1.07,0,1,0,1.16,1A1.07,1.07,0,0,0,474.17,318.09Z"/><path class="cls-215" d="M376.62,173.75a1.61,1.61,0,1,0-1.07-2A1.61,1.61,0,0,0,376.62,173.75Z"/><path class="cls-216" d="M354.69,111.7a2.08,2.08,0,0,1,2-1.07,5.43,5.43,0,0,1-.83-.84,5.5,5.5,0,0,1-.24-1.16,5.47,5.47,0,0,1-.84.82,5.38,5.38,0,0,1-1.16.24,5.6,5.6,0,0,1,.83.85A6.08,6.08,0,0,1,354.69,111.7Z"/><path class="cls-217" d="M410.74,124.08a5.47,5.47,0,0,1,.84-.82,5.38,5.38,0,0,1,1.16-.24,5.6,5.6,0,0,1-.83-.85,5.82,5.82,0,0,1-.23-1.15,5.66,5.66,0,0,1-.85.82,5.38,5.38,0,0,1-1.16.24,5.6,5.6,0,0,1,.83.85A5.32,5.32,0,0,1,410.74,124.08Z"/><path class="cls-218" d="M383.21,138.58a5.2,5.2,0,0,1,.85-.82,5.38,5.38,0,0,1,1.16-.24,5.6,5.6,0,0,1-.83-.85,5.38,5.38,0,0,1-.24-1.16,2.08,2.08,0,0,1-2,1.07,5,5,0,0,1,.82.84A5.5,5.5,0,0,1,383.21,138.58Z"/><path class="cls-219" d="M397.08,103a.54.54,0,1,1,.41.64A.54.54,0,0,1,397.08,103Zm-6.26,8.71a1.07,1.07,0,1,0-.82-1.27A1.07,1.07,0,0,0,390.82,111.71Zm.61-13a2.14,2.14,0,1,0-1.64-2.55A2.15,2.15,0,0,0,391.43,98.68Zm18.7,1.46a1.07,1.07,0,1,0-.82-1.27A1.07,1.07,0,0,0,410.13,100.14Z"/><path class="cls-220" d="M479.82,46.51a12.47,12.47,0,0,0,.56,2.72,12.71,12.71,0,0,0,1.94,2,12.47,12.47,0,0,0-2.72.56,12.71,12.71,0,0,0-2,1.94,12.47,12.47,0,0,0-.56-2.72,12.71,12.71,0,0,0-1.94-2,12.47,12.47,0,0,0,2.72-.56A12.71,12.71,0,0,0,479.82,46.51Z"/><path class="cls-221" d="M500.57,8.77a20.91,20.91,0,0,0,.94,4.53,21.24,21.24,0,0,0,3.23,3.31,20.91,20.91,0,0,0-4.53.94,21.24,21.24,0,0,0-3.31,3.23,21.54,21.54,0,0,0-.94-4.53,21.24,21.24,0,0,0-3.23-3.31,21.54,21.54,0,0,0,4.53-.94A21.24,21.24,0,0,0,500.57,8.77Z"/><path class="cls-222" d="M466.19,71.36a2.1,2.1,0,1,0-1.4-2.63A2.1,2.1,0,0,0,466.19,71.36Z"/><path class="cls-223" d="M474.79,25.49a7.18,7.18,0,0,1,1.11-1.08,7.12,7.12,0,0,1,1.51-.31,7,7,0,0,1-1.08-1.1,7.12,7.12,0,0,1-.31-1.51,7.23,7.23,0,0,1-1.11,1.07,6.68,6.68,0,0,1-1.51.32,7,7,0,0,1,1.08,1.1A7.12,7.12,0,0,1,474.79,25.49Z"/></g></g></g></svg>